{
.appVersion = "3151";
.formatVersion = 3;
classes = (
{
automatic = 1;
code = "A Aacute Abreve Acircumflex Adieresis Agrave Amacron Aogonek Aring Aringacute Atilde AE AEacute B C Cacute Ccaron Ccedilla Ccircumflex Cdotaccent D Eth Dcaron Dcroat E Eacute Ebreve Ecaron Ecircumflex Edieresis Edotaccent Egrave Emacron Eogonek F G Gbreve Gcircumflex Gcommaaccent Gdotaccent H Hbar Hcircumflex I IJ Iacute Ibreve Icircumflex Idieresis Idotaccent Igrave Imacron Iogonek Itilde J Jcircumflex K Kcommaaccent L Lacute Lcaron Lcommaaccent Ldot Lslash M N Nacute Ncaron Ncommaaccent Ntilde Eng O Oacute Obreve Ocircumflex Odieresis Ograve Ohungarumlaut Omacron Oslash Oslashacute Otilde OE P Thorn Q R Racute Rcaron Rcommaaccent S Sacute Scaron Scedilla Scircumflex Scommaaccent T Tbar Tcaron Tcedilla Tcommaaccent U Uacute Ubreve Ucircumflex Udieresis Ugrave Uhungarumlaut Umacron Uogonek Uring Utilde V W Wacute Wcircumflex Wdieresis Wgrave X Y Yacute Ycircumflex Ydieresis Ygrave Z Zacute Zcaron Zdotaccent Delta Omega";
name = Uppercase;
}
);
customParameters = (
{
name = fsType;
value = (
);
},
{
name = "Use Typo Metrics";
value = 1;
}
);
date = "2012-04-10 17:06:45 +0000";
familyName = Joti;
featurePrefixes = (
{
automatic = 1;
code = "languagesystem DFLT dflt;

languagesystem latn dflt;
languagesystem latn AZE;
languagesystem latn CRT;
languagesystem latn KAZ;
languagesystem latn TAT;
languagesystem latn TRK;
languagesystem latn ROM;
languagesystem latn MOL;
languagesystem latn CAT;
";
name = Languagesystems;
}
);
features = (
{
automatic = 1;
code = "feature locl;
feature subs;
feature sinf;
feature sups;
feature frac;
feature ordn;
feature case;
";
tag = aalt;
},
{
automatic = 1;
code = "lookup ccmp_Other_1 {
	@CombiningTopAccents = [acutecomb brevecomb caroncomb circumflexcomb commaturnedabovecomb dieresiscomb dotaccentcomb gravecomb hungarumlautcomb macroncomb ringcomb tildecomb];
	@CombiningNonTopAccents = [cedillacomb commaaccent ogonekcomb];

glyphs = (
{
glyphname = A;
kernLeft = A;
kernRight = A;
lastChange = "2023-03-01 09:16:35 +0000";
layers = (
{
anchors = (
{
name = bottom;
pos = (320,0);
},
{
name = ogonek;
pos = (679,50);
},
{
name = top;
pos = (323,650);
}
);
background = {
shapes = (
{
closed = 1;
nodes = (
(130,-15,l),
(164,129,l),
(430,151,l),
(499,-15,l),
(589,0,l),
(459,650,l),
(217,665,l),
(30,0,l)
);
},
{
closed = 1;
nodes = (
(269,539,l),
(408,204,l),
(182,206,l),
(261,539,l)
);
}
);
};
layerId = UUID0;
shapes = (
{
closed = 1;
nodes = (
(164,129,l),
(430,151,l),
(499,-15,l),
(589,0,l),
(459,650,l),
(217,665,l),
(30,0,l),
(130,-15,l)
);
},
{
closed = 1;
nodes = (
(182,206,l),
(261,539,l),
(269,539,l),
(408,204,l)
);
}
);
width = 639;
}
);
unicode = 65;
},
{
glyphname = Aacute;
kernLeft = A;
kernRight = A;
lastChange = "2023-03-01 09:16:35 +0000";
layers = (
{
background = {
shapes = (
{
closed = 1;
nodes = (
(130,-15,l),
(164,129,l),
(430,151,l),
(499,-15,l),
(589,0,l),
(459,650,l),
(217,665,l),
(30,0,l)
);
},
{
closed = 1;
nodes = (
(269,539,l),
(408,204,l),
(182,206,l),
(261,539,l)
);
},
{
closed = 1;
nodes = (
(244,713,l),
(448,778,l),
(388,903,l),
(210,781,l)
);
}
);
};
layerId = UUID0;
shapes = (
{
ref = A;
},
{
pos = (64,0);
ref = acutecomb.case;
}
);
width = 639;
}
);
unicode = 193;
},
{
glyphname = Abreve;
kernLeft = A;
kernRight = A;
lastChange = "2023-03-01 09:16:35 +0000";
layers = (
{
background = {
shapes = (
{
closed = 1;
nodes = (
(130,-15,l),
(164,129,l),
(430,151,l),
(499,-15,l),
(589,0,l),
(459,650,l),
(217,665,l),
(30,0,l)
);
},
{
closed = 1;
nodes = (
(269,539,l),
(408,204,l),
(182,206,l),
(261,539,l)
);
},
{
closed = 1;
nodes = (
(389,849,o),
(370,807,o),
(326,807,cs),
(286,807,o),
(268,838,o),
(243,882,c),
(190,849,l),
(217,784,o),
(251,706,o),
(324,706,cs),
(382,706,o),
(435,742,o),
(489,833,c),
(405,888,l)
);
}
);
};
layerId = UUID0;
shapes = (
{
ref = A;
},
{
pos = (63,0);
ref = brevecomb.case;
}
);
width = 639;
}
);
unicode = 258;
},
{
glyphname = Acircumflex;
kernLeft = A;
kernRight = A;
lastChange = "2023-03-01 09:16:35 +0000";
layers = (
{
background = {
shapes = (
{
closed = 1;
nodes = (
(130,-15,l),
(164,129,l),
(430,151,l),
(499,-15,l),
(589,0,l),
(459,650,l),
(217,665,l),
(30,0,l)
);
},
{
closed = 1;
nodes = (
(269,539,l),
(408,204,l),
(182,206,l),
(261,539,l)
);
},
{
closed = 1;
nodes = (
(202,716,l),
(320,781,l),
(396,719,l),
(471,809,l),
(284,901,l),
(168,764,l)
);
}
);
};
layerId = UUID0;
shapes = (
{
ref = A;
},
{
pos = (91,0);
ref = circumflexcomb.case;
}
);
width = 639;
}
);
unicode = 194;
},
{
glyphname = Adieresis;
kernLeft = A;
kernRight = A;
lastChange = "2023-03-01 09:16:35 +0000";
layers = (
{
background = {
shapes = (
{
closed = 1;
nodes = (
(130,-15,l),
(164,129,l),
(430,151,l),
(499,-15,l),
(589,0,l),
(459,650,l),
(217,665,l),
(30,0,l)
);
},
{
closed = 1;
nodes = (
(269,539,l),
(408,204,l),
(182,206,l),
(261,539,l)
);
},
{
closed = 1;
nodes = (
(173,723,o),
(214,723,cs),
(255,723,o),
(290,761,o),
(290,807,cs),
(290,853,o),
(255,891,o),
(214,891,cs),
(173,891,o),
(138,853,o),
(138,807,cs),
(138,761,o)
);
},
{
closed = 1;
nodes = (
(383,723,o),
(424,723,cs),
(465,723,o),
(500,761,o),
(500,807,cs),
(500,853,o),
(465,891,o),
(424,891,cs),
(383,891,o),
(348,853,o),
(348,807,cs),
(348,761,o)
);
}
);
};
layerId = UUID0;
shapes = (
{
ref = A;
},
{
pos = (104,0);
ref = dieresiscomb.case;
}
);
width = 639;
}
);
unicode = 196;
},
{
glyphname = Agrave;
kernLeft = A;
kernRight = A;
lastChange = "2023-03-01 09:16:35 +0000";
layers = (
{
background = {
shapes = (
{
closed = 1;
nodes = (
(130,-15,l),
(164,129,l),
(430,151,l),
(499,-15,l),
(589,0,l),
(459,650,l),
(217,665,l),
(30,0,l)
);
},
{
closed = 1;
nodes = (
(269,539,l),
(408,204,l),
(182,206,l),
(261,539,l)
);
},
{
closed = 1;
nodes = (
(200,778,l),
(404,713,l),
(438,781,l),
(260,903,l)
);
}
);
};
layerId = UUID0;
shapes = (
{
ref = A;
},
{
pos = (94,0);
ref = gravecomb.case;
}
);
width = 639;
}
);
unicode = 192;
},
{
glyphname = Amacron;
kernLeft = A;
kernRight = A;
lastChange = "2023-03-01 09:16:35 +0000";
layers = (
{
background = {
shapes = (
{
closed = 1;
nodes = (
(130,-15,l),
(164,129,l),
(430,151,l),
(499,-15,l),
(589,0,l),
(459,650,l),
(217,665,l),
(30,0,l)
);
},
{
closed = 1;
nodes = (
(269,539,l),
(408,204,l),
(182,206,l),
(261,539,l)
);
},
{
closed = 1;
nodes = (
(473,853,l),
(212,853,l),
(205,734,l),
(466,761,l)
);
}
);
};
layerId = UUID0;
shapes = (
{
ref = A;
},
{
pos = (112,0);
ref = macroncomb.case;
}
);
width = 639;
}
);
unicode = 256;
},
{
glyphname = Aogonek;
kernLeft = A;
kernRight = A;
lastChange = "2023-03-01 09:16:35 +0000";
layers = (
{
background = {
shapes = (
{
closed = 1;
nodes = (
(130,-15,l),
(164,129,l),
(430,151,l),
(499,-15,l),
(589,0,l),
(459,650,l),
(217,665,l),
(30,0,l)
);
},
{
closed = 1;
nodes = (
(269,539,l),
(408,204,l),
(182,206,l),
(261,539,l)
);
},
{
closed = 1;
nodes = (
(606,-102,o),
(578,-111,o),
(541,-111,cs),
(516,-111,o),
(502,-107,o),
(480,-98,c),
(496,-65,o),
(527,-32,o),
(589,0,c),
(561,50,l),
(499,15,o),
(419,-32,o),
(419,-102,cs),
(419,-181,o),
(515,-202,o),
(565,-202,cs),
(595,-202,o),
(642,-195,o),
(679,-181,c),
(645,-85,l)
);
}
);
};
layerId = UUID0;
shapes = (
{
ref = A;
},
{
pos = (295,6);
ref = ogonekcomb;
}
);
width = 639;
}
);
unicode = 260;
},
{
glyphname = Aring;
kernLeft = A;
kernRight = A;
lastChange = "2023-03-01 09:16:35 +0000";
layers = (
{
background = {
shapes = (
{
closed = 1;
nodes = (
(130,-15,l),
(164,129,l),
(430,151,l),
(499,-15,l),
(589,0,l),
(459,650,l),
(217,665,l),
(30,0,l)
);
},
{
closed = 1;
nodes = (
(269,539,l),
(408,204,l),
(182,206,l),
(261,539,l)
);
},
{
closed = 1;
nodes = (
(432,867,o),
(411,897,c),
(380,909,o),
(343,915,o),
(317,915,cs),
(239,915,o),
(198,864,o),
(198,801,cs),
(198,765,o),
(203,735,o),
(224,705,c),
(255,693,o),
(292,687,o),
(318,687,cs),
(396,687,o),
(437,738,o),
(437,801,cs),
(437,837,o)
);
},
{
closed = 1;
nodes = (
(353,752,o),
(317,735,c),
(306,735,o),
(286,738,o),
(280,742,c),
(276,754,o),
(273,769,o),
(273,787,cs),
(273,818,o),
(281,850,o),
(317,867,c),
(328,867,o),
(348,864,o),
(354,859,c),
(358,848,o),
(361,832,o),
(361,814,cs),
(361,784,o)
);
}
);
};
layerId = UUID0;
shapes = (
{
ref = A;
},
{
pos = (169,0);
ref = ringcomb.case;
}
);
width = 639;
}
);
unicode = 197;
},
{
glyphname = Aringacute;
kernLeft = A;
kernRight = A;
lastChange = "2023-03-01 09:16:35 +0000";
layers = (
{
background = {
shapes = (
{
closed = 1;
nodes = (
(130,-15,l),
(164,129,l),
(430,151,l),
(499,-15,l),
(589,0,l),
(459,650,l),
(217,665,l),
(30,0,l)
);
},
{
closed = 1;
nodes = (
(269,539,l),
(408,204,l),
(182,206,l),
(261,539,l)
);
},
{
closed = 1;
nodes = (
(474,844,o),
(467,864,c),
(559,927,l),
(488,1003,l),
(421,907,l),
(401,915,o),
(368,915,o),
(356,915,cs),
(278,915,o),
(237,864,o),
(237,801,cs),
(237,765,o),
(242,735,o),
(263,705,c),
(294,693,o),
(331,687,o),
(357,687,cs),
(435,687,o),
(476,738,o),
(476,801,cs),
(476,824,o)
);
},
{
closed = 1;
nodes = (
(392,752,o),
(356,735,c),
(345,735,o),
(325,738,o),
(319,742,c),
(315,754,o),
(312,769,o),
(312,787,cs),
(312,818,o),
(320,850,o),
(356,867,c),
(367,867,o),
(387,864,o),
(393,859,c),
(397,848,o),
(400,832,o),
(400,814,cs),
(400,784,o)
);
}
);
};
layerId = UUID0;
shapes = (
{
closed = 1;
nodes = (
(435,687,o),
(476,738,o),
(476,801,cs),
(476,824,o),
(474,844,o),
(467,864,c),
(559,927,l),
(488,1003,l),
(421,907,l),
(401,915,o),
(368,915,o),
(356,915,cs),
(278,915,o),
(237,864,o),
(237,801,cs),
(237,765,o),
(242,735,o),
(263,705,c),
(294,693,o),
(331,687,o),
(357,687,cs)
);
},
{
ref = A;
},
{
closed = 1;
nodes = (
(345,735,o),
(325,738,o),
(319,742,c),
(315,754,o),
(312,769,o),
(312,787,cs),
(312,818,o),
(320,850,o),
(356,867,c),
(367,867,o),
(387,864,o),
(393,859,c),
(397,848,o),
(400,832,o),
(400,814,cs),
(400,784,o),
(392,752,o),
(356,735,c)
);
}
);
width = 639;
}
);
unicode = 506;
},
{
glyphname = Atilde;
kernLeft = A;
kernRight = A;
lastChange = "2023-03-01 09:16:35 +0000";
layers = (
{
background = {
shapes = (
{
closed = 1;
nodes = (
(130,-15,l),
(164,129,l),
(430,151,l),
(499,-15,l),
(589,0,l),
(459,650,l),
(217,665,l),
(30,0,l)
);
},
{
closed = 1;
nodes = (
(269,539,l),
(408,204,l),
(182,206,l),
(261,539,l)
);
},
{
closed = 1;
nodes = (
(411,858,o),
(426,892,c),
(486,876,l),
(475,791,o),
(448,735,o),
(401,735,cs),
(368,735,o),
(331,761,o),
(296,761,cs),
(281,761,o),
(268,750,o),
(253,716,c),
(193,732,l),
(204,817,o),
(231,873,o),
(278,873,cs),
(311,873,o),
(348,847,o),
(383,847,cs),
(398,847,o)
);
}
);
};
layerId = UUID0;
shapes = (
{
ref = A;
},
{
pos = (89,0);
ref = tildecomb.case;
}
);
width = 639;
}
);
unicode = 195;
},
{
glyphname = AE;
kernLeft = AE;
lastChange = "2023-03-01 09:16:35 +0000";
layers = (
{
anchors = (
{
name = bottom;
pos = (440,0);
},
{
name = top;
pos = (477,650);
}
);
background = {
shapes = (
{
closed = 1;
nodes = (
(782,367,l),
(516,364,l),
(477,558,l),
(806,597,l),
(809,664,l),
(428,652,l),
(217,665,l),
(30,0,l),
(130,-15,l),
(164,129,l),
(430,151,l),
(496,-9,l),
(806,0,l),
(810,103,l),
(575,69,l),
(529,296,l),
(787,277,l)
);
},
{
closed = 1;
nodes = (
(408,204,l),
(182,206,l),
(264,552,l)
);
}
);
};
layerId = UUID0;
shapes = (
{
closed = 1;
nodes = (
(164,129,l),
(430,151,l),
(496,-9,l),
(806,0,l),
(810,103,l),
(575,69,l),
(529,296,l),
(787,277,l),
(782,367,l),
(516,364,l),
(477,558,l),
(806,597,l),
(809,664,l),
(428,652,l),
(217,665,l),
(30,0,l),
(130,-15,l)
);
},
{
closed = 1;
nodes = (
(182,206,l),
(264,552,l),
(408,204,l)
);
}
);
width = 880;
}
);
unicode = 198;
},
{
glyphname = AEacute;
kernLeft = AE;
lastChange = "2023-03-01 09:16:35 +0000";
layers = (
{
background = {
shapes = (
{
closed = 1;
nodes = (
(782,367,l),
(516,364,l),
(477,558,l),
(806,597,l),
(809,664,l),
(428,652,l),
(217,665,l),
(30,0,l),
(130,-15,l),
(164,129,l),
(430,151,l),
(496,-9,l),
(806,0,l),
(810,103,l),
(575,69,l),
(529,296,l),
(787,277,l)
);
},
{
closed = 1;
nodes = (
(408,204,l),
(182,206,l),
(264,552,l)
);
},
{
closed = 1;
nodes = (
(392,713,l),
(596,778,l),
(536,903,l),
(358,781,l)
);
}
);
};
layerId = UUID0;
shapes = (
{
ref = AE;
},
{
pos = (218,0);
ref = acutecomb.case;
}
);
width = 880;
}
);
unicode = 508;
},
{
glyphname = B;
lastChange = "2023-03-01 09:16:35 +0000";
layers = (
{
anchors = (
{
name = bottom;
pos = (351,0);
},
{
name = center;
pos = (351,325);
},
{
name = top;
pos = (351,650);
}
);
background = {
shapes = (
{
closed = 1;
nodes = (
(212,-22,o),
(282,-26,o),
(329,-26,cs),
(549,-26,o),
(630,57,o),
(630,153,cs),
(630,214,o),
(587,296,o),
(508,357,c),
(563,398,o),
(598,454,o),
(598,529,cs),
(598,558,o),
(593,591,o),
(581,627,c),
(525,662,o),
(452,675,o),
(381,675,cs),
(282,675,o),
(160,649,o),
(98,630,c),
(155,-14,l)
);
},
{
closed = 1;
nodes = (
(468,237,o),
(468,196,cs),
(468,137,o),
(449,83,o),
(433,51,c),
(420,46,o),
(375,45,o),
(359,45,cs),
(328,45,o),
(295,51,o),
(262,60,c),
(284,267,l),
(337,279,o),
(389,294,o),
(435,315,c),
(459,278,o)
);
},
{
closed = 1;
nodes = (
(436,534,o),
(436,494,cs),
(436,433,o),
(383,361,o),
(290,324,c),
(319,598,l),
(343,605,o),
(366,610,o),
(383,610,c),
(418,586,o)
);
}
);
};
layerId = UUID0;
shapes = (
{
closed = 1;
nodes = (
(549,-26,o),
(630,57,o),
(630,153,cs),
(630,214,o),
(587,296,o),
(508,357,c),
(563,398,o),
(598,454,o),
(598,529,cs),
(598,558,o),
(593,591,o),
(581,627,c),
(525,662,o),
(452,675,o),
(381,675,cs),
(282,675,o),
(160,649,o),
(98,630,c),
(155,-14,l),
(212,-22,o),
(282,-26,o),
(329,-26,cs)
);
},
{
closed = 1;
nodes = (
(328,45,o),
(295,51,o),
(262,60,c),
(284,267,l),
(337,279,o),
(389,294,o),
(435,315,c),
(459,278,o),
(468,237,o),
(468,196,cs),
(468,137,o),
(449,83,o),
(433,51,c),
(420,46,o),
(375,45,o),
(359,45,cs)
);
},
{
closed = 1;
nodes = (
(319,598,l),
(343,605,o),
(366,610,o),
(383,610,c),
(418,586,o),
(436,534,o),
(436,494,cs),
(436,433,o),
(383,361,o),
(290,324,c)
);
}
);
width = 702;
}
);
unicode = 66;
},
{
glyphname = C;
lastChange = "2023-03-01 09:16:35 +0000";
layers = (
{
anchors = (
{
name = bottom;
pos = (251,0);
},
{
name = top;
pos = (316,650);
}
);
background = {
shapes = (
{
closed = 1;
nodes = (
(178,634,o),
(70,444,o),
(70,207,cs),
(70,155,o),
(75,100,o),
(87,41,c),
(132,4,o),
(224,-24,o),
(330,-24,cs),
(385,-24,o),
(444,-17,o),
(502,1,c),
(468,109,l),
(399,83,o),
(332,73,o),
(267,73,cs),
(234,73,o),
(202,75,o),
(171,80,c),
(171,263,o),
(286,460,o),
(471,578,c),
(278,700,l)
);
}
);
};
layerId = UUID0;
shapes = (
{
closed = 1;
nodes = (
(385,-24,o),
(444,-17,o),
(502,1,c),
(468,109,l),
(399,83,o),
(332,73,o),
(267,73,cs),
(234,73,o),
(202,75,o),
(171,80,c),
(171,263,o),
(286,460,o),
(471,578,c),
(278,700,l),
(178,634,o),
(70,444,o),
(70,207,cs),
(70,155,o),
(75,100,o),
(87,41,c),
(132,4,o),
(224,-24,o),
(330,-24,cs)
);
}
);
width = 502;
}
);
unicode = 67;
},
{
glyphname = Cacute;
lastChange = "2023-03-01 09:16:35 +0000";
layers = (
{
background = {
shapes = (
{
closed = 1;
nodes = (
(178,634,o),
(70,444,o),
(70,207,cs),
(70,155,o),
(75,100,o),
(87,41,c),
(132,4,o),
(224,-24,o),
(330,-24,cs),
(385,-24,o),
(444,-17,o),
(502,1,c),
(468,109,l),
(399,83,o),
(332,73,o),
(267,73,cs),
(234,73,o),
(202,75,o),
(171,80,c),
(171,263,o),
(286,460,o),
(471,578,c),
(278,700,l)
);
},
{
closed = 1;
nodes = (
(222,713,l),
(426,778,l),
(366,903,l),
(188,781,l)
);
}
);
};
layerId = UUID0;
shapes = (
{
ref = C;
},
{
pos = (57,0);
ref = acutecomb.case;
}
);
width = 502;
}
);
unicode = 262;
},
{
glyphname = Ccaron;
lastChange = "2023-03-01 09:16:35 +0000";
layers = (
{
background = {
shapes = (
{
closed = 1;
nodes = (
(178,634,o),
(70,444,o),
(70,207,cs),
(70,155,o),
(75,100,o),
(87,41,c),
(132,4,o),
(224,-24,o),
(330,-24,cs),
(385,-24,o),
(444,-17,o),
(502,1,c),
(468,109,l),
(399,83,o),
(332,73,o),
(267,73,cs),
(234,73,o),
(202,75,o),
(171,80,c),
(171,263,o),
(286,460,o),
(471,578,c),
(278,700,l)
);
},
{
closed = 1;
nodes = (
(391,888,l),
(315,826,l),
(197,891,l),
(163,843,l),
(279,706,l),
(466,798,l)
);
}
);
};
layerId = UUID0;
shapes = (
{
ref = C;
},
{
pos = (84,0);
ref = caroncomb.case;
}
);
width = 502;
}
);
unicode = 268;
},
{
glyphname = Ccedilla;
lastChange = "2023-03-01 09:16:35 +0000";
layers = (
{
background = {
shapes = (
{
closed = 1;
nodes = (
(178,634,o),
(70,444,o),
(70,207,cs),
(70,155,o),
(75,100,o),
(87,41,c),
(132,4,o),
(224,-24,o),
(330,-24,cs),
(385,-24,o),
(444,-17,o),
(502,1,c),
(468,109,l),
(399,83,o),
(332,73,o),
(267,73,cs),
(234,73,o),
(202,75,o),
(171,80,c),
(171,263,o),
(286,460,o),
(471,578,c),
(278,700,l)
);
},
{
closed = 1;
nodes = (
(158,-201,o),
(205,-208,o),
(235,-208,cs),
(285,-208,o),
(381,-187,o),
(381,-108,cs),
(381,-38,o),
(301,9,o),
(239,44,c),
(211,-6,l),
(273,-38,o),
(304,-71,o),
(320,-104,c),
(298,-113,o),
(284,-117,o),
(259,-117,cs),
(222,-117,o),
(194,-108,o),
(155,-91,c),
(121,-187,l)
);
}
);
};
layerId = UUID0;
shapes = (
{
ref = C;
},
{
pos = (-3,0);
ref = cedillacomb;
}
);
width = 502;
}
);
unicode = 199;
},
{
glyphname = Ccircumflex;
lastChange = "2023-03-01 09:16:35 +0000";
layers = (
{
background = {
shapes = (
{
closed = 1;
nodes = (
(178,634,o),
(70,444,o),
(70,207,cs),
(70,155,o),
(75,100,o),
(87,41,c),
(132,4,o),
(224,-24,o),
(330,-24,cs),
(385,-24,o),
(444,-17,o),
(502,1,c),
(468,109,l),
(399,83,o),
(332,73,o),
(267,73,cs),
(234,73,o),
(202,75,o),
(171,80,c),
(171,263,o),
(286,460,o),
(471,578,c),
(278,700,l)
);
},
{
closed = 1;
nodes = (
(179,716,l),
(297,781,l),
(373,719,l),
(448,809,l),
(261,901,l),
(145,764,l)
);
}
);
};
layerId = UUID0;
shapes = (
{
ref = C;
},
{
pos = (84,0);
ref = circumflexcomb.case;
}
);
width = 502;
}
);
unicode = 264;
},
{
glyphname = Cdotaccent;
lastChange = "2023-03-01 09:16:35 +0000";
layers = (
{
background = {
shapes = (
{
closed = 1;
nodes = (
(178,634,o),
(70,444,o),
(70,207,cs),
(70,155,o),
(75,100,o),
(87,41,c),
(132,4,o),
(224,-24,o),
(330,-24,cs),
(385,-24,o),
(444,-17,o),
(502,1,c),
(468,109,l),
(399,83,o),
(332,73,o),
(267,73,cs),
(234,73,o),
(202,75,o),
(171,80,c),
(171,263,o),
(286,460,o),
(471,578,c),
(278,700,l)
);
},
{
closed = 1;
nodes = (
(373,791,o),
(364,755,c),
(335,744,o),
(292,738,o),
(253,738,cs),
(234,738,o),
(215,739,o),
(199,743,c),
(199,785,o),
(208,834,o),
(227,871,c),
(276,883,o),
(326,883,o),
(376,883,c),
(376,827,o)
);
}
);
};
layerId = UUID0;
shapes = (
{
ref = C;
},
{
pos = (160,0);
ref = dotaccentcomb.case;
}
);
width = 502;
}
);
unicode = 266;
},
{
glyphname = D;
lastChange = "2023-03-01 09:16:35 +0000";
layers = (
{
anchors = (
{
name = bottom;
pos = (327,0);
},
{
name = center;
pos = (327,325);
},
{
name = top;
pos = (362,650);
}
);
background = {
shapes = (
{
closed = 1;
nodes = (
(436,-6,o),
(624,233,o),
(624,468,cs),
(624,526,o),
(613,583,o),
(591,637,c),
(531,666,o),
(459,677,o),
(386,677,cs),
(280,677,o),
(173,654,o),
(98,630,c),
(155,-14,l)
);
},
{
closed = 1;
nodes = (
(446,495,o),
(446,400,cs),
(446,268,o),
(391,122,o),
(264,70,c),
(319,603,l),
(334,607,o),
(349,610,o),
(363,610,c),
(417,578,o)
);
}
);
};
layerId = UUID0;
shapes = (
{
closed = 1;
nodes = (
(436,-6,o),
(624,233,o),
(624,468,cs),
(624,526,o),
(613,583,o),
(591,637,c),
(531,666,o),
(459,677,o),
(386,677,cs),
(280,677,o),
(173,654,o),
(98,630,c),
(155,-14,l)
);
},
{
closed = 1;
nodes = (
(319,603,l),
(334,607,o),
(349,610,o),
(363,610,c),
(417,578,o),
(446,495,o),
(446,400,cs),
(446,268,o),
(391,122,o),
(264,70,c)
);
}
);
width = 654;
}
);
unicode = 68;
},
{
glyphname = Eth;
lastChange = "2023-03-01 09:16:35 +0000";
layers = (
{
background = {
shapes = (
{
closed = 1;
nodes = (
(436,-6,o),
(624,233,o),
(624,468,cs),
(624,526,o),
(613,583,o),
(591,637,c),
(531,666,o),
(459,677,o),
(386,677,cs),
(280,677,o),
(173,654,o),
(98,630,c),
(155,-14,l)
);
},
{
closed = 1;
nodes = (
(446,495,o),
(446,400,cs),
(446,268,o),
(391,122,o),
(264,70,c),
(319,603,l),
(334,607,o),
(349,610,o),
(363,610,c),
(417,578,o)
);
},
{
closed = 1;
nodes = (
(402,369,l),
(30,369,l),
(20,289,l),
(392,316,l)
);
}
);
};
layerId = UUID0;
shapes = (
{
closed = 1;
nodes = (
(392,316,l),
(402,369,l),
(30,369,l),
(20,289,l)
);
},
{
alignment = -1;
ref = D;
}
);
width = 654;
}
);
unicode = 208;
},
{
glyphname = Dcaron;
lastChange = "2023-03-01 09:16:35 +0000";
layers = (
{
background = {
shapes = (
{
closed = 1;
nodes = (
(436,-6,o),
(624,233,o),
(624,468,cs),
(624,526,o),
(613,583,o),
(591,637,c),
(531,666,o),
(459,677,o),
(386,677,cs),
(280,677,o),
(173,654,o),
(98,630,c),
(155,-14,l)
);
},
{
closed = 1;
nodes = (
(446,495,o),
(446,400,cs),
(446,268,o),
(391,122,o),
(264,70,c),
(319,603,l),
(334,607,o),
(349,610,o),
(363,610,c),
(417,578,o)
);
},
{
closed = 1;
nodes = (
(438,888,l),
(362,826,l),
(244,891,l),
(210,843,l),
(326,706,l),
(513,798,l)
);
}
);
};
layerId = UUID0;
shapes = (
{
ref = D;
},
{
pos = (130,0);
ref = caroncomb.case;
}
);
width = 654;
}
);
unicode = 270;
},
{
glyphname = Dcroat;
lastChange = "2023-03-01 09:16:35 +0000";
layers = (
{
background = {
shapes = (
{
closed = 1;
nodes = (
(436,-6,o),
(624,233,o),
(624,468,cs),
(624,526,o),
(613,583,o),
(591,637,c),
(531,666,o),
(459,677,o),
(386,677,cs),
(280,677,o),
(173,654,o),
(98,630,c),
(155,-14,l)
);
},
{
closed = 1;
nodes = (
(446,495,o),
(446,400,cs),
(446,268,o),
(391,122,o),
(264,70,c),
(319,603,l),
(334,607,o),
(349,610,o),
(363,610,c),
(417,578,o)
);
},
{
closed = 1;
nodes = (
(402,369,l),
(30,369,l),
(20,289,l),
(392,316,l)
);
}
);
};
layerId = UUID0;
shapes = (
{
ref = Eth;
}
);
width = 654;
}
);
unicode = 272;
},
{
glyphname = E;
lastChange = "2023-03-01 09:16:35 +0000";
layers = (
{
anchors = (
{
name = bottom;
pos = (303,0);
},
{
name = ogonek;
pos = (622,50);
},
{
name = top;
pos = (303,650);
},
{
name = topleft;
pos = (20,650);
}
);
background = {
shapes = (
{
closed = 1;
nodes = (
(535,103,l),
(259,71,l),
(286,294,l),
(512,277,l),
(507,367,l),
(294,365,l),
(320,572,l),
(531,597,l),
(534,664,l),
(93,650,l),
(140,-9,l),
(531,0,l)
);
}
);
};
layerId = UUID0;
shapes = (
{
closed = 1;
nodes = (
(531,0,l),
(535,103,l),
(259,71,l),
(286,294,l),
(512,277,l),
(507,367,l),
(294,365,l),
(320,572,l),
(531,597,l),
(534,664,l),
(93,650,l),
(140,-9,l)
);
}
);
width = 605;
}
);
unicode = 69;
},
{
glyphname = Eacute;
lastChange = "2023-03-01 09:16:35 +0000";
layers = (
{
background = {
shapes = (
{
closed = 1;
nodes = (
(535,103,l),
(259,71,l),
(286,294,l),
(512,277,l),
(507,367,l),
(294,365,l),
(320,572,l),
(531,597,l),
(534,664,l),
(93,650,l),
(140,-9,l),
(531,0,l)
);
},
{
closed = 1;
nodes = (
(227,713,l),
(431,778,l),
(371,903,l),
(193,781,l)
);
}
);
};
layerId = UUID0;
shapes = (
{
ref = E;
},
{
pos = (44,0);
ref = acutecomb.case;
}
);
width = 605;
}
);
unicode = 201;
},
{
glyphname = Ebreve;
lastChange = "2023-03-01 09:16:35 +0000";
layers = (
{
background = {
shapes = (
{
closed = 1;
nodes = (
(535,103,l),
(259,71,l),
(286,294,l),
(512,277,l),
(507,367,l),
(294,365,l),
(320,572,l),
(531,597,l),
(534,664,l),
(93,650,l),
(140,-9,l),
(531,0,l)
);
},
{
closed = 1;
nodes = (
(352,849,o),
(333,807,o),
(289,807,cs),
(249,807,o),
(231,838,o),
(206,882,c),
(153,849,l),
(180,784,o),
(214,706,o),
(287,706,cs),
(345,706,o),
(398,742,o),
(452,833,c),
(368,888,l)
);
}
);
};
layerId = UUID0;
shapes = (
{
ref = E;
},
{
pos = (43,0);
ref = brevecomb.case;
}
);
width = 605;
}
);
unicode = 276;
},
{
glyphname = Ecaron;
lastChange = "2023-03-01 09:16:35 +0000";
layers = (
{
background = {
shapes = (
{
closed = 1;
nodes = (
(535,103,l),
(259,71,l),
(286,294,l),
(512,277,l),
(507,367,l),
(294,365,l),
(320,572,l),
(531,597,l),
(534,664,l),
(93,650,l),
(140,-9,l),
(531,0,l)
);
},
{
closed = 1;
nodes = (
(395,888,l),
(319,826,l),
(201,891,l),
(167,843,l),
(283,706,l),
(470,798,l)
);
}
);
};
layerId = UUID0;
shapes = (
{
ref = E;
},
{
pos = (71,0);
ref = caroncomb.case;
}
);
width = 605;
}
);
unicode = 282;
},
{
glyphname = Ecircumflex;
lastChange = "2023-03-01 09:16:35 +0000";
layers = (
{
background = {
shapes = (
{
closed = 1;
nodes = (
(535,103,l),
(259,71,l),
(286,294,l),
(512,277,l),
(507,367,l),
(294,365,l),
(320,572,l),
(531,597,l),
(534,664,l),
(93,650,l),
(140,-9,l),
(531,0,l)
);
},
{
closed = 1;
nodes = (
(185,716,l),
(303,781,l),
(379,719,l),
(454,809,l),
(267,901,l),
(151,764,l)
);
}
);
};
layerId = UUID0;
shapes = (
{
ref = E;
},
{
pos = (71,0);
ref = circumflexcomb.case;
}
);
width = 605;
}
);
unicode = 202;
},
{
glyphname = Edieresis;
lastChange = "2023-03-01 09:16:35 +0000";
layers = (
{
background = {
shapes = (
{
closed = 1;
nodes = (
(535,103,l),
(259,71,l),
(286,294,l),
(512,277,l),
(507,367,l),
(294,365,l),
(320,572,l),
(531,597,l),
(534,664,l),
(93,650,l),
(140,-9,l),
(531,0,l)
);
},
{
closed = 1;
nodes = (
(156,723,o),
(197,723,cs),
(238,723,o),
(273,761,o),
(273,807,cs),
(273,853,o),
(238,891,o),
(197,891,cs),
(156,891,o),
(121,853,o),
(121,807,cs),
(121,761,o)
);
},
{
closed = 1;
nodes = (
(366,723,o),
(407,723,cs),
(448,723,o),
(483,761,o),
(483,807,cs),
(483,853,o),
(448,891,o),
(407,891,cs),
(366,891,o),
(331,853,o),
(331,807,cs),
(331,761,o)
);
}
);
};
layerId = UUID0;
shapes = (
{
ref = E;
},
{
pos = (84,0);
ref = dieresiscomb.case;
}
);
width = 605;
}
);
unicode = 203;
},
{
glyphname = Edotaccent;
lastChange = "2023-03-01 09:16:35 +0000";
layers = (
{
background = {
shapes = (
{
closed = 1;
nodes = (
(535,103,l),
(259,71,l),
(286,294,l),
(512,277,l),
(507,367,l),
(294,365,l),
(320,572,l),
(531,597,l),
(534,664,l),
(93,650,l),
(140,-9,l),
(531,0,l)
);
},
{
closed = 1;
nodes = (
(388,791,o),
(379,755,c),
(350,744,o),
(307,738,o),
(268,738,cs),
(249,738,o),
(230,739,o),
(214,743,c),
(214,785,o),
(223,834,o),
(242,871,c),
(291,883,o),
(341,883,o),
(391,883,c),
(391,827,o)
);
}
);
};
layerId = UUID0;
shapes = (
{
ref = E;
},
{
pos = (147,0);
ref = dotaccentcomb.case;
}
);
width = 605;
}
);
unicode = 278;
},
{
glyphname = Egrave;
lastChange = "2023-03-01 09:16:35 +0000";
layers = (
{
background = {
shapes = (
{
closed = 1;
nodes = (
(535,103,l),
(259,71,l),
(286,294,l),
(512,277,l),
(507,367,l),
(294,365,l),
(320,572,l),
(531,597,l),
(534,664,l),
(93,650,l),
(140,-9,l),
(531,0,l)
);
},
{
closed = 1;
nodes = (
(183,778,l),
(387,713,l),
(421,781,l),
(243,903,l)
);
}
);
};
layerId = UUID0;
shapes = (
{
ref = E;
},
{
pos = (74,0);
ref = gravecomb.case;
}
);
width = 605;
}
);
unicode = 200;
},
{
glyphname = Emacron;
lastChange = "2023-03-01 09:16:35 +0000";
layers = (
{
background = {
shapes = (
{
closed = 1;
nodes = (
(535,103,l),
(259,71,l),
(286,294,l),
(512,277,l),
(507,367,l),
(294,365,l),
(320,572,l),
(531,597,l),
(534,664,l),
(93,650,l),
(140,-9,l),
(531,0,l)
);
},
{
closed = 1;
nodes = (
(436,853,l),
(175,853,l),
(168,734,l),
(429,761,l)
);
}
);
};
layerId = UUID0;
shapes = (
{
ref = E;
},
{
pos = (92,0);
ref = macroncomb.case;
}
);
width = 605;
}
);
unicode = 274;
},
{
glyphname = Eogonek;
lastChange = "2023-03-01 09:16:35 +0000";
layers = (
{
background = {
shapes = (
{
closed = 1;
nodes = (
(535,103,l),
(259,71,l),
(286,294,l),
(512,277,l),
(507,367,l),
(294,365,l),
(320,572,l),
(531,597,l),
(534,664,l),
(93,650,l),
(140,-9,l),
(531,0,l)
);
},
{
closed = 1;
nodes = (
(548,-102,o),
(520,-111,o),
(483,-111,cs),
(458,-111,o),
(444,-107,o),
(422,-98,c),
(438,-65,o),
(469,-32,o),
(531,0,c),
(503,50,l),
(441,15,o),
(361,-32,o),
(361,-102,cs),
(361,-181,o),
(457,-202,o),
(507,-202,cs),
(537,-202,o),
(584,-195,o),
(621,-181,c),
(587,-85,l)
);
}
);
};
layerId = UUID0;
shapes = (
{
ref = E;
},
{
pos = (238,6);
ref = ogonekcomb;
}
);
width = 605;
}
);
unicode = 280;
},
{
glyphname = F;
lastChange = "2023-03-01 09:16:35 +0000";
layers = (
{
anchors = (
{
name = bottom;
pos = (287,0);
},
{
name = top;
pos = (287,650);
}
);
background = {
shapes = (
{
closed = 1;
nodes = (
(477,337,l),
(291,335,l),
(320,572,l),
(531,597,l),
(534,664,l),
(93,650,l),
(140,-9,l),
(250,-4,l),
(282,263,l),
(482,247,l)
);
}
);
};
layerId = UUID0;
shapes = (
{
closed = 1;
nodes = (
(250,-4,l),
(282,263,l),
(482,247,l),
(477,337,l),
(291,335,l),
(320,572,l),
(531,597,l),
(534,664,l),
(93,650,l),
(140,-9,l)
);
}
);
width = 574;
}
);
unicode = 70;
},
{
glyphname = G;
lastChange = "2023-03-01 09:16:35 +0000";
layers = (
{
anchors = (
{
name = bottom;
pos = (282,0);
},
{
name = top;
pos = (288,650);
}
);
background = {
shapes = (
{
closed = 1;
nodes = (
(486,-42,l),
(546,310,l),
(356,298,l),
(376,79,l),
(346,72,o),
(314,69,o),
(279,69,cs),
(243,69,o),
(206,73,o),
(171,80,c),
(171,263,o),
(286,460,o),
(471,578,c),
(278,700,l),
(128,591,o),
(70,398,o),
(70,217,cs),
(70,159,o),
(76,103,o),
(87,51,c),
(132,14,o),
(224,-14,o),
(330,-14,cs),
(348,-14,o),
(366,-13,o),
(384,-11,c),
(388,-50,l)
);
}
);
};
layerId = UUID0;
shapes = (
{
closed = 1;
nodes = (
(486,-42,l),
(546,310,l),
(356,298,l),
(376,79,l),
(346,72,o),
(314,69,o),
(279,69,cs),
(243,69,o),
(206,73,o),
(171,80,c),
(171,263,o),
(286,460,o),
(471,578,c),
(278,700,l),
(128,591,o),
(70,398,o),
(70,217,cs),
(70,159,o),
(76,103,o),
(87,51,c),
(132,14,o),
(224,-14,o),
(330,-14,cs),
(348,-14,o),
(366,-13,o),
(384,-11,c),
(388,-50,l)
);
}
);
width = 576;
}
);
unicode = 71;
},
{
glyphname = Gbreve;
lastChange = "2023-03-01 09:16:35 +0000";
layers = (
{
background = {
shapes = (
{
closed = 1;
nodes = (
(486,-42,l),
(546,310,l),
(356,298,l),
(376,79,l),
(346,72,o),
(314,69,o),
(279,69,cs),
(243,69,o),
(206,73,o),
(171,80,c),
(171,263,o),
(286,460,o),
(471,578,c),
(278,700,l),
(128,591,o),
(70,398,o),
(70,217,cs),
(70,159,o),
(76,103,o),
(87,51,c),
(132,14,o),
(224,-14,o),
(330,-14,cs),
(348,-14,o),
(366,-13,o),
(384,-11,c),
(388,-50,l)
);
},
{
closed = 1;
nodes = (
(337,849,o),
(318,807,o),
(274,807,cs),
(234,807,o),
(216,838,o),
(191,882,c),
(138,849,l),
(165,784,o),
(199,706,o),
(272,706,cs),
(330,706,o),
(383,742,o),
(437,833,c),
(353,888,l)
);
}
);
};
layerId = UUID0;
shapes = (
{
ref = G;
},
{
pos = (28,0);
ref = brevecomb.case;
}
);
width = 576;
}
);
unicode = 286;
},
{
glyphname = Gcircumflex;
lastChange = "2023-03-01 09:16:35 +0000";
layers = (
{
background = {
shapes = (
{
closed = 1;
nodes = (
(486,-42,l),
(546,310,l),
(356,298,l),
(376,79,l),
(346,72,o),
(314,69,o),
(279,69,cs),
(243,69,o),
(206,73,o),
(171,80,c),
(171,263,o),
(286,460,o),
(471,578,c),
(278,700,l),
(128,591,o),
(70,398,o),
(70,217,cs),
(70,159,o),
(76,103,o),
(87,51,c),
(132,14,o),
(224,-14,o),
(330,-14,cs),
(348,-14,o),
(366,-13,o),
(384,-11,c),
(388,-50,l)
);
},
{
closed = 1;
nodes = (
(183,716,l),
(301,781,l),
(377,719,l),
(452,809,l),
(265,901,l),
(149,764,l)
);
}
);
};
layerId = UUID0;
shapes = (
{
ref = G;
},
{
pos = (56,0);
ref = circumflexcomb.case;
}
);
width = 576;
}
);
unicode = 284;
},
{
glyphname = Gcommaaccent;
lastChange = "2023-03-01 09:16:35 +0000";
layers = (
{
background = {
shapes = (
{
closed = 1;
nodes = (
(486,-42,l),
(546,310,l),
(356,298,l),
(376,79,l),
(346,72,o),
(314,69,o),
(279,69,cs),
(243,69,o),
(206,73,o),
(171,80,c),
(171,263,o),
(286,460,o),
(471,578,c),
(278,700,l),
(128,591,o),
(70,398,o),
(70,217,cs),
(70,159,o),
(76,103,o),
(87,51,c),
(132,14,o),
(224,-14,o),
(330,-14,cs),
(348,-14,o),
(366,-13,o),
(384,-11,c),
(388,-50,l)
);
},
{
closed = 1;
nodes = (
(278,-223,o),
(268,-251,o),
(232,-280,c),
(286,-331,l),
(341,-282,o),
(361,-223,o),
(361,-149,cs),
(361,-124,o),
(359,-100,o),
(355,-78,c),
(340,-62,o),
(311,-51,o),
(278,-51,cs),
(219,-51,o),
(203,-78,o),
(203,-130,cs),
(203,-178,o),
(221,-209,o),
(250,-209,cs),
(263,-209,o),
(272,-205,o),
(279,-199,c),
(283,-201,l)
);
}
);
};
layerId = UUID0;
shapes = (
{
ref = G;
},
{
pos = (123,0);
ref = commaaccentcomb;
}
);
width = 576;
}
);
unicode = 290;
},
{
glyphname = Gdotaccent;
lastChange = "2023-03-01 09:16:35 +0000";
layers = (
{
background = {
shapes = (
{
closed = 1;
nodes = (
(486,-42,l),
(546,310,l),
(356,298,l),
(376,79,l),
(346,72,o),
(314,69,o),
(279,69,cs),
(243,69,o),
(206,73,o),
(171,80,c),
(171,263,o),
(286,460,o),
(471,578,c),
(278,700,l),
(128,591,o),
(70,398,o),
(70,217,cs),
(70,159,o),
(76,103,o),
(87,51,c),
(132,14,o),
(224,-14,o),
(330,-14,cs),
(348,-14,o),
(366,-13,o),
(384,-11,c),
(388,-50,l)
);
},
{
closed = 1;
nodes = (
(386,791,o),
(377,755,c),
(348,744,o),
(305,738,o),
(266,738,cs),
(247,738,o),
(228,739,o),
(212,743,c),
(212,785,o),
(221,834,o),
(240,871,c),
(289,883,o),
(339,883,o),
(389,883,c),
(389,827,o)
);
}
);
};
layerId = UUID0;
shapes = (
{
ref = G;
},
{
pos = (132,0);
ref = dotaccentcomb.case;
}
);
width = 576;
}
);
unicode = 288;
},
{
glyphname = H;
lastChange = "2023-03-01 09:16:35 +0000";
layers = (
{
anchors = (
{
name = bottom;
pos = (385,0);
},
{
name = center;
pos = (385,325);
},
{
name = top;
pos = (385,650);
},
{
name = topleft;
pos = (20,650);
}
);
background = {
shapes = (
{
closed = 1;
nodes = (
(613,-6,l),
(684,663,l),
(456,648,l),
(485,304,l),
(288,306,l),
(326,665,l),
(98,650,l),
(155,-14,l),
(255,-4,l),
(279,229,l),
(490,246,l),
(513,-16,l)
);
}
);
};
layerId = UUID0;
shapes = (
{
closed = 1;
nodes = (
(613,-6,l),
(684,663,l),
(456,648,l),
(485,304,l),
(288,306,l),
(326,665,l),
(98,650,l),
(155,-14,l),
(255,-4,l),
(279,229,l),
(490,246,l),
(513,-16,l)
);
}
);
width = 769;
}
);
unicode = 72;
},
{
glyphname = Hbar;
lastChange = "2023-03-01 09:16:35 +0000";
layers = (
{
background = {
shapes = (
{
closed = 1;
nodes = (
(613,-6,l),
(684,663,l),
(456,648,l),
(485,304,l),
(288,306,l),
(326,665,l),
(98,650,l),
(155,-14,l),
(255,-4,l),
(279,229,l),
(490,246,l),
(513,-16,l)
);
},
{
closed = 1;
nodes = (
(747,500,l),
(40,500,l),
(21,420,l),
(728,447,l)
);
}
);
};
layerId = UUID0;
shapes = (
{
closed = 1;
nodes = (
(728,447,l),
(747,500,l),
(40,500,l),
(21,420,l)
);
},
{
alignment = -1;
ref = H;
}
);
width = 769;
}
);
unicode = 294;
},
{
glyphname = Hcircumflex;
lastChange = "2023-03-01 09:16:35 +0000";
layers = (
{
background = {
shapes = (
{
closed = 1;
nodes = (
(613,-6,l),
(684,663,l),
(456,648,l),
(485,304,l),
(288,306,l),
(326,665,l),
(98,650,l),
(155,-14,l),
(255,-4,l),
(279,229,l),
(490,246,l),
(513,-16,l)
);
},
{
closed = 1;
nodes = (
(267,716,l),
(385,781,l),
(461,719,l),
(536,809,l),
(349,901,l),
(233,764,l)
);
}
);
};
layerId = UUID0;
shapes = (
{
ref = H;
},
{
pos = (153,0);
ref = circumflexcomb.case;
}
);
width = 769;
}
);
unicode = 292;
},
{
glyphname = I;
lastChange = "2023-03-01 09:16:35 +0000";
layers = (
{
anchors = (
{
name = bottom;
pos = (216,0);
},
{
name = ogonek;
pos = (355,46);
},
{
name = top;
pos = (216,650);
},
{
name = topleft;
pos = (20,650);
}
);
background = {
shapes = (
{
closed = 1;
nodes = (
(265,-4,l),
(336,665,l),
(98,650,l),
(155,-14,l)
);
}
);
};
layerId = UUID0;
shapes = (
{
closed = 1;
nodes = (
(265,-4,l),
(336,665,l),
(98,650,l),
(155,-14,l)
);
}
);
width = 431;
}
);
unicode = 73;
},
{
glyphname = IJ;
lastChange = "2023-03-01 09:16:35 +0000";
layers = (
{
background = {
shapes = (
{
closed = 1;
nodes = (
(265,-4,l),
(336,665,l),
(98,650,l),
(155,-14,l)
);
},
{
closed = 1;
nodes = (
(539,650,l),
(582,154,o),
(582,147,o),
(582,140,cs),
(582,92,o),
(565,50,o),
(510,50,cs),
(489,50,o),
(466,56,o),
(441,64,c),
(423,10,l),
(464,-11,o),
(508,-24,o),
(550,-24,cs),
(634,-24,o),
(707,10,o),
(721,141,cs),
(777,665,l)
);
}
);
};
layerId = UUID0;
shapes = (
{
ref = I;
},
{
pos = (431,0);
ref = J;
}
);
width = 852;
}
);
unicode = 306;
},
{
glyphname = Iacute;
lastChange = "2023-03-01 09:16:35 +0000";
layers = (
{
background = {
shapes = (
{
closed = 1;
nodes = (
(265,-4,l),
(336,665,l),
(98,650,l),
(155,-14,l)
);
},
{
closed = 1;
nodes = (
(141,713,l),
(345,778,l),
(285,903,l),
(107,781,l)
);
}
);
};
layerId = UUID0;
shapes = (
{
ref = I;
},
{
pos = (-43,0);
ref = acutecomb.case;
}
);
width = 431;
}
);
unicode = 205;
},
{
glyphname = Ibreve;
lastChange = "2023-03-01 09:16:35 +0000";
layers = (
{
background = {
shapes = (
{
closed = 1;
nodes = (
(265,-4,l),
(336,665,l),
(98,650,l),
(155,-14,l)
);
},
{
closed = 1;
nodes = (
(275,849,o),
(256,807,o),
(212,807,cs),
(172,807,o),
(154,838,o),
(129,882,c),
(76,849,l),
(103,784,o),
(137,706,o),
(210,706,cs),
(268,706,o),
(321,742,o),
(375,833,c),
(291,888,l)
);
}
);
};
layerId = UUID0;
shapes = (
{
ref = I;
},
{
pos = (-44,0);
ref = brevecomb.case;
}
);
width = 431;
}
);
unicode = 300;
},
{
glyphname = Icircumflex;
lastChange = "2023-03-01 09:16:35 +0000";
layers = (
{
background = {
shapes = (
{
closed = 1;
nodes = (
(265,-4,l),
(336,665,l),
(98,650,l),
(155,-14,l)
);
},
{
closed = 1;
nodes = (
(98,716,l),
(216,781,l),
(292,719,l),
(367,809,l),
(180,901,l),
(64,764,l)
);
}
);
};
layerId = UUID0;
shapes = (
{
ref = I;
},
{
pos = (-16,0);
ref = circumflexcomb.case;
}
);
width = 431;
}
);
unicode = 206;
},
{
glyphname = Idieresis;
lastChange = "2023-03-01 09:16:35 +0000";
layers = (
{
background = {
shapes = (
{
closed = 1;
nodes = (
(265,-4,l),
(336,665,l),
(98,650,l),
(155,-14,l)
);
},
{
closed = 1;
nodes = (
(70,723,o),
(111,723,cs),
(152,723,o),
(187,761,o),
(187,807,cs),
(187,853,o),
(152,891,o),
(111,891,cs),
(70,891,o),
(35,853,o),
(35,807,cs),
(35,761,o)
);
},
{
closed = 1;
nodes = (
(280,723,o),
(321,723,cs),
(362,723,o),
(397,761,o),
(397,807,cs),
(397,853,o),
(362,891,o),
(321,891,cs),
(280,891,o),
(245,853,o),
(245,807,cs),
(245,761,o)
);
}
);
};
layerId = UUID0;
shapes = (
{
ref = I;
},
{
pos = (-3,0);
ref = dieresiscomb.case;
}
);
width = 431;
}
);
unicode = 207;
},
{
glyphname = Idotaccent;
lastChange = "2023-03-01 09:16:35 +0000";
layers = (
{
background = {
shapes = (
{
closed = 1;
nodes = (
(265,-4,l),
(336,665,l),
(98,650,l),
(155,-14,l)
);
},
{
closed = 1;
nodes = (
(301,791,o),
(292,755,c),
(263,744,o),
(220,738,o),
(181,738,cs),
(162,738,o),
(143,739,o),
(127,743,c),
(127,785,o),
(136,834,o),
(155,871,c),
(204,883,o),
(254,883,o),
(304,883,c),
(304,827,o)
);
}
);
};
layerId = UUID0;
shapes = (
{
ref = I;
},
{
pos = (60,0);
ref = dotaccentcomb.case;
}
);
width = 431;
}
);
unicode = 304;
},
{
glyphname = Igrave;
lastChange = "2023-03-01 09:16:35 +0000";
layers = (
{
background = {
shapes = (
{
closed = 1;
nodes = (
(265,-4,l),
(336,665,l),
(98,650,l),
(155,-14,l)
);
},
{
closed = 1;
nodes = (
(97,778,l),
(301,713,l),
(335,781,l),
(157,903,l)
);
}
);
};
layerId = UUID0;
shapes = (
{
ref = I;
},
{
pos = (-13,0);
ref = gravecomb.case;
}
);
width = 431;
}
);
unicode = 204;
},
{
glyphname = Imacron;
lastChange = "2023-03-01 09:16:35 +0000";
layers = (
{
background = {
shapes = (
{
closed = 1;
nodes = (
(265,-4,l),
(336,665,l),
(98,650,l),
(155,-14,l)
);
},
{
closed = 1;
nodes = (
(359,853,l),
(98,853,l),
(91,734,l),
(352,761,l)
);
}
);
};
layerId = UUID0;
shapes = (
{
ref = I;
},
{
pos = (5,0);
ref = macroncomb.case;
}
);
width = 431;
}
);
unicode = 298;
},
{
glyphname = Iogonek;
lastChange = "2023-03-01 09:16:35 +0000";
layers = (
{
background = {
shapes = (
{
closed = 1;
nodes = (
(265,-4,l),
(336,665,l),
(98,650,l),
(155,-14,l)
);
},
{
closed = 1;
nodes = (
(282,-106,o),
(254,-115,o),
(217,-115,cs),
(192,-115,o),
(178,-111,o),
(156,-102,c),
(172,-69,o),
(203,-36,o),
(265,-4,c),
(237,46,l),
(175,11,o),
(95,-36,o),
(95,-106,cs),
(95,-185,o),
(191,-206,o),
(241,-206,cs),
(271,-206,o),
(318,-199,o),
(355,-185,c),
(321,-89,l)
);
}
);
};
layerId = UUID0;
shapes = (
{
ref = I;
},
{
pos = (-29,2);
ref = ogonekcomb;
}
);
width = 431;
}
);
unicode = 302;
},
{
glyphname = Itilde;
lastChange = "2023-03-01 09:16:35 +0000";
layers = (
{
background = {
shapes = (
{
closed = 1;
nodes = (
(265,-4,l),
(336,665,l),
(98,650,l),
(155,-14,l)
);
},
{
closed = 1;
nodes = (
(297,858,o),
(312,892,c),
(372,876,l),
(361,791,o),
(334,735,o),
(287,735,cs),
(254,735,o),
(217,761,o),
(182,761,cs),
(167,761,o),
(154,750,o),
(139,716,c),
(79,732,l),
(90,817,o),
(117,873,o),
(164,873,cs),
(197,873,o),
(234,847,o),
(269,847,cs),
(284,847,o)
);
}
);
};
layerId = UUID0;
shapes = (
{
ref = I;
},
{
pos = (-18,0);
ref = tildecomb.case;
}
);
width = 431;
}
);
unicode = 296;
},
{
glyphname = J;
lastChange = "2023-03-01 09:16:35 +0000";
layers = (
{
anchors = (
{
name = bottom;
pos = (211,0);
},
{
name = top;
pos = (211,650);
}
);
background = {
shapes = (
{
closed = 1;
nodes = (
(108,650,l),
(151,154,o),
(151,147,o),
(151,140,cs),
(151,92,o),
(134,50,o),
(79,50,cs),
(58,50,o),
(35,56,o),
(10,64,c),
(-8,10,l),
(33,-11,o),
(77,-24,o),
(119,-24,cs),
(203,-24,o),
(276,10,o),
(290,141,cs),
(346,665,l)
);
}
);
};
layerId = UUID0;
shapes = (
{
closed = 1;
nodes = (
(203,-24,o),
(276,10,o),
(290,141,cs),
(346,665,l),
(108,650,l),
(151,154,o),
(151,147,o),
(151,140,cs),
(151,92,o),
(134,50,o),
(79,50,cs),
(58,50,o),
(35,56,o),
(10,64,c),
(-8,10,l),
(33,-11,o),
(77,-24,o),
(119,-24,cs)
);
}
);
width = 421;
}
);
unicode = 74;
},
{
glyphname = Jcircumflex;
lastChange = "2023-03-01 09:16:35 +0000";
layers = (
{
background = {
shapes = (
{
closed = 1;
nodes = (
(108,650,l),
(151,154,o),
(151,147,o),
(151,140,cs),
(151,92,o),
(134,50,o),
(79,50,cs),
(58,50,o),
(35,56,o),
(10,64,c),
(-8,10,l),
(33,-11,o),
(77,-24,o),
(119,-24,cs),
(203,-24,o),
(276,10,o),
(290,141,cs),
(346,665,l)
);
},
{
closed = 1;
nodes = (
(93,716,l),
(211,781,l),
(287,719,l),
(362,809,l),
(175,901,l),
(59,764,l)
);
}
);
};
layerId = UUID0;
shapes = (
{
ref = J;
},
{
pos = (-21,0);
ref = circumflexcomb.case;
}
);
width = 421;
}
);
unicode = 308;
},
{
glyphname = K;
lastChange = "2023-03-01 09:16:35 +0000";
layers = (
{
anchors = (
{
name = bottom;
pos = (340,0);
},
{
name = top;
pos = (341,650);
}
);
background = {
shapes = (
{
closed = 1;
nodes = (
(536,665,l),
(304,363,l),
(336,665,l),
(98,650,l),
(155,-14,l),
(265,-4,l),
(292,248,l),
(314,271,l),
(449,-14,l),
(661,1,l),
(414,376,l),
(625,597,l)
);
}
);
};
layerId = UUID0;
shapes = (
{
closed = 1;
nodes = (
(265,-4,l),
(292,248,l),
(314,271,l),
(449,-14,l),
(661,1,l),
(414,376,l),
(625,597,l),
(536,665,l),
(304,363,l),
(336,665,l),
(98,650,l),
(155,-14,l)
);
}
);
width = 681;
}
);
unicode = 75;
},
{
glyphname = Kcommaaccent;
lastChange = "2023-03-01 09:16:35 +0000";
layers = (
{
background = {
shapes = (
{
closed = 1;
nodes = (
(536,665,l),
(304,363,l),
(336,665,l),
(98,650,l),
(155,-14,l),
(265,-4,l),
(292,248,l),
(314,271,l),
(449,-14,l),
(661,1,l),
(414,376,l),
(625,597,l)
);
},
{
closed = 1;
nodes = (
(335,-223,o),
(325,-251,o),
(289,-280,c),
(343,-331,l),
(398,-282,o),
(418,-223,o),
(418,-149,cs),
(418,-124,o),
(416,-100,o),
(412,-78,c),
(397,-62,o),
(368,-51,o),
(335,-51,cs),
(276,-51,o),
(260,-78,o),
(260,-130,cs),
(260,-178,o),
(278,-209,o),
(307,-209,cs),
(320,-209,o),
(329,-205,o),
(336,-199,c),
(340,-201,l)
);
}
);
};
layerId = UUID0;
shapes = (
{
ref = K;
},
{
pos = (181,0);
ref = commaaccentcomb;
}
);
width = 681;
}
);
unicode = 310;
},
{
glyphname = L;
lastChange = "2023-03-01 09:16:35 +0000";
layers = (
{
anchors = (
{
name = bottom;
pos = (318,0);
},
{
name = center;
pos = (253,325);
},
{
name = top;
pos = (219,650);
},
{
name = topright;
pos = (485,650);
}
);
background = {
shapes = (
{
closed = 1;
nodes = (
(515,103,l),
(259,72,l),
(331,665,l),
(93,650,l),
(140,-9,l),
(511,0,l)
);
}
);
};
layerId = UUID0;
shapes = (
{
closed = 1;
nodes = (
(511,0,l),
(515,103,l),
(259,72,l),
(331,665,l),
(93,650,l),
(140,-9,l)
);
}
);
width = 505;
}
);
unicode = 76;
},
{
glyphname = Lacute;
lastChange = "2023-03-01 09:16:35 +0000";
layers = (
{
background = {
shapes = (
{
closed = 1;
nodes = (
(515,103,l),
(259,72,l),
(331,665,l),
(93,650,l),
(140,-9,l),
(511,0,l)
);
},
{
closed = 1;
nodes = (
(133,713,l),
(337,778,l),
(277,903,l),
(99,781,l)
);
}
);
};
layerId = UUID0;
shapes = (
{
ref = L;
},
{
pos = (-40,0);
ref = acutecomb.case;
}
);
width = 505;
}
);
unicode = 313;
},
{
glyphname = Lcaron;
lastChange = "2023-03-01 09:16:35 +0000";
layers = (
{
background = {
shapes = (
{
closed = 1;
nodes = (
(515,103,l),
(259,72,l),
(331,665,l),
(93,650,l),
(140,-9,l),
(511,0,l)
);
},
{
closed = 1;
nodes = (
(308,888,l),
(232,826,l),
(114,891,l),
(80,843,l),
(196,706,l),
(383,798,l)
);
}
);
};
layerId = UUID0;
shapes = (
{
ref = L;
},
{
pos = (361,-56);
ref = caroncomb.alt;
}
);
width = 505;
}
);
unicode = 317;
},
{
glyphname = Lcommaaccent;
lastChange = "2023-03-01 09:16:35 +0000";
layers = (
{
background = {
shapes = (
{
closed = 1;
nodes = (
(515,103,l),
(259,72,l),
(331,665,l),
(93,650,l),
(140,-9,l),
(511,0,l)
);
},
{
closed = 1;
nodes = (
(201,-223,o),
(191,-251,o),
(155,-280,c),
(209,-331,l),
(264,-282,o),
(284,-223,o),
(284,-149,cs),
(284,-124,o),
(282,-100,o),
(278,-78,c),
(263,-62,o),
(234,-51,o),
(201,-51,cs),
(142,-51,o),
(126,-78,o),
(126,-130,cs),
(126,-178,o),
(144,-209,o),
(173,-209,cs),
(186,-209,o),
(195,-205,o),
(202,-199,c),
(206,-201,l)
);
}
);
};
layerId = UUID0;
shapes = (
{
ref = L;
},
{
pos = (159,0);
ref = commaaccentcomb;
}
);
width = 505;
}
);
unicode = 315;
},
{
glyphname = Ldot;
lastChange = "2023-03-01 09:16:35 +0000";
layers = (
{
background = {
shapes = (
{
closed = 1;
nodes = (
(515,103,l),
(259,72,l),
(331,665,l),
(93,650,l),
(140,-9,l),
(511,0,l)
);
},
{
closed = 1;
nodes = (
(386,240,o),
(454,240,cs),
(522,240,o),
(547,280,o),
(547,328,cs),
(547,376,o),
(522,416,o),
(454,416,cs),
(386,416,o),
(361,376,o),
(361,328,cs),
(361,280,o)
);
}
);
};
layerId = UUID0;
shapes = (
{
ref = L;
},
{
pos = (311,40);
ref = periodcentered;
}
);
width = 505;
}
);
unicode = 319;
},
{
glyphname = Lslash;
lastChange = "2023-03-01 09:16:35 +0000";
layers = (
{
background = {
shapes = (
{
closed = 1;
nodes = (
(515,103,l),
(259,72,l),
(331,665,l),
(93,650,l),
(140,-9,l),
(511,0,l)
);
},
{
closed = 1;
nodes = (
(369,525,l),
(18,356,l),
(55,281,l),
(394,474,l)
);
}
);
};
layerId = UUID0;
shapes = (
{
closed = 1;
nodes = (
(394,474,l),
(369,525,l),
(18,356,l),
(55,281,l)
);
},
{
alignment = -1;
ref = L;
}
);
width = 505;
}
);
unicode = 321;
},
{
glyphname = M;
lastChange = "2023-03-01 09:16:35 +0000";
layers = (
{
anchors = (
{
name = bottom;
pos = (470,0);
},
{
name = top;
pos = (470,650);
}
);
background = {
shapes = (
{
closed = 1;
nodes = (
(859,0,l),
(829,650,l),
(587,665,l),
(470,184,l),
(369,660,l),
(127,650,l),
(80,-5,l),
(180,0,l),
(196,478,l),
(202,478,l),
(419,-15,l),
(509,0,l),
(618,517,l),
(626,517,l),
(769,-15,l)
);
}
);
};
layerId = UUID0;
shapes = (
{
closed = 1;
nodes = (
(509,0,l),
(618,517,l),
(626,517,l),
(769,-15,l),
(859,0,l),
(829,650,l),
(587,665,l),
(470,184,l),
(369,660,l),
(127,650,l),
(80,-5,l),
(180,0,l),
(196,478,l),
(202,478,l),
(419,-15,l)
);
}
);
width = 939;
}
);
unicode = 77;
},
{
glyphname = N;
lastChange = "2023-03-01 09:16:35 +0000";
layers = (
{
anchors = (
{
name = bottom;
pos = (346,0);
},
{
name = top;
pos = (387,650);
}
);
background = {
shapes = (
{
closed = 1;
nodes = (
(542,655,l),
(532,166,l),
(524,166,l),
(349,665,l),
(107,650,l),
(80,-5,l),
(180,0,l),
(177,521,l),
(185,521,l),
(509,-15,l),
(599,0,l),
(642,660,l)
);
}
);
};
layerId = UUID0;
shapes = (
{
closed = 1;
nodes = (
(599,0,l),
(642,660,l),
(542,655,l),
(532,166,l),
(524,166,l),
(349,665,l),
(107,650,l),
(80,-5,l),
(180,0,l),
(177,521,l),
(185,521,l),
(509,-15,l)
);
}
);
width = 692;
}
);
unicode = 78;
},
{
glyphname = Nacute;
lastChange = "2023-03-01 09:16:35 +0000";
layers = (
{
background = {
shapes = (
{
closed = 1;
nodes = (
(542,655,l),
(532,166,l),
(524,166,l),
(349,665,l),
(107,650,l),
(80,-5,l),
(180,0,l),
(177,521,l),
(185,521,l),
(509,-15,l),
(599,0,l),
(642,660,l)
);
},
{
closed = 1;
nodes = (
(301,713,l),
(505,778,l),
(445,903,l),
(267,781,l)
);
}
);
};
layerId = UUID0;
shapes = (
{
ref = N;
},
{
pos = (128,0);
ref = acutecomb.case;
}
);
width = 692;
}
);
unicode = 323;
},
{
glyphname = Ncaron;
lastChange = "2023-03-01 09:16:35 +0000";
layers = (
{
background = {
shapes = (
{
closed = 1;
nodes = (
(542,655,l),
(532,166,l),
(524,166,l),
(349,665,l),
(107,650,l),
(80,-5,l),
(180,0,l),
(177,521,l),
(185,521,l),
(509,-15,l),
(599,0,l),
(642,660,l)
);
},
{
closed = 1;
nodes = (
(462,888,l),
(386,826,l),
(268,891,l),
(234,843,l),
(350,706,l),
(537,798,l)
);
}
);
};
layerId = UUID0;
shapes = (
{
ref = N;
},
{
pos = (155,0);
ref = caroncomb.case;
}
);
width = 692;
}
);
unicode = 327;
},
{
glyphname = Ncommaaccent;
lastChange = "2023-03-01 09:16:35 +0000";
layers = (
{
background = {
shapes = (
{
closed = 1;
nodes = (
(542,655,l),
(532,166,l),
(524,166,l),
(349,665,l),
(107,650,l),
(80,-5,l),
(180,0,l),
(177,521,l),
(185,521,l),
(509,-15,l),
(599,0,l),
(642,660,l)
);
},
{
closed = 1;
nodes = (
(341,-223,o),
(331,-251,o),
(295,-280,c),
(349,-331,l),
(404,-282,o),
(424,-223,o),
(424,-149,cs),
(424,-124,o),
(422,-100,o),
(418,-78,c),
(403,-62,o),
(374,-51,o),
(341,-51,cs),
(282,-51,o),
(266,-78,o),
(266,-130,cs),
(266,-178,o),
(284,-209,o),
(313,-209,cs),
(326,-209,o),
(335,-205,o),
(342,-199,c),
(346,-201,l)
);
}
);
};
layerId = UUID0;
shapes = (
{
ref = N;
},
{
pos = (187,0);
ref = commaaccentcomb;
}
);
width = 692;
}
);
unicode = 325;
},
{
glyphname = Ntilde;
lastChange = "2023-03-01 09:16:35 +0000";
layers = (
{
background = {
shapes = (
{
closed = 1;
nodes = (
(542,655,l),
(532,166,l),
(524,166,l),
(349,665,l),
(107,650,l),
(80,-5,l),
(180,0,l),
(177,521,l),
(185,521,l),
(509,-15,l),
(599,0,l),
(642,660,l)
);
},
{
closed = 1;
nodes = (
(457,858,o),
(472,892,c),
(532,876,l),
(521,791,o),
(494,735,o),
(447,735,cs),
(414,735,o),
(377,761,o),
(342,761,cs),
(327,761,o),
(314,750,o),
(299,716,c),
(239,732,l),
(250,817,o),
(277,873,o),
(324,873,cs),
(357,873,o),
(394,847,o),
(429,847,cs),
(444,847,o)
);
}
);
};
layerId = UUID0;
shapes = (
{
ref = N;
},
{
pos = (153,0);
ref = tildecomb.case;
}
);
width = 692;
}
);
unicode = 209;
},
{
glyphname = Eng;
lastChange = "2023-03-01 09:16:35 +0000";
layers = (
{
anchors = (
{
name = bottom;
pos = (346,0);
},
{
name = top;
pos = (346,650);
}
);
background = {
shapes = (
{
closed = 1;
nodes = (
(542,655,l),
(531,163,l),
(525,163,l),
(349,665,l),
(107,650,l),
(80,-5,l),
(180,0,l),
(177,519,l),
(185,519,l),
(408,151,l),
(454,74,o),
(480,6,o),
(480,-45,cs),
(480,-100,o),
(449,-134,o),
(383,-134,cs),
(362,-134,o),
(339,-128,o),
(314,-120,c),
(296,-174,l),
(337,-195,o),
(381,-208,o),
(423,-208,cs),
(507,-208,o),
(588,-158,o),
(598,-7,c),
(642,660,l)
);
}
);
};
layerId = UUID0;
shapes = (
{
closed = 1;
nodes = (
(507,-208,o),
(588,-158,o),
(598,-7,c),
(642,660,l),
(542,655,l),
(531,163,l),
(525,163,l),
(349,665,l),
(107,650,l),
(80,-5,l),
(180,0,l),
(177,519,l),
(185,519,l),
(408,151,l),
(454,74,o),
(480,6,o),
(480,-45,cs),
(480,-100,o),
(449,-134,o),
(383,-134,cs),
(362,-134,o),
(339,-128,o),
(314,-120,c),
(296,-174,l),
(337,-195,o),
(381,-208,o),
(423,-208,cs)
);
}
);
width = 692;
}
);
unicode = 330;
},
{
glyphname = O;
lastChange = "2023-03-01 09:16:35 +0000";
layers = (
{
anchors = (
{
name = bottom;
pos = (295,0);
},
{
name = center;
pos = (295,325);
},
{
name = ogonek;
pos = (530,10);
},
{
name = top;
pos = (295,650);
},
{
name = topleft;
pos = (20,650);
},
{
name = topright;
pos = (569,650);
}
);
background = {
shapes = (
{
closed = 1;
nodes = (
(60,444,o),
(60,207,cs),
(60,155,o),
(65,100,o),
(77,41,c),
(122,4,o),
(194,-24,o),
(300,-24,cs),
(496,-24,o),
(539,54,o),
(539,207,cs),
(539,444,o),
(418,628,o),
(268,690,c),
(168,624,o)
);
},
{
closed = 1;
nodes = (
(414,157,o),
(400,96,c),
(357,81,o),
(298,73,o),
(242,73,cs),
(213,73,o),
(185,75,o),
(161,80,c),
(161,230,o),
(237,396,o),
(367,516,c),
(400,445,o),
(418,357,o),
(418,252,cs),
(418,198,o)
);
}
);
};
layerId = UUID0;
shapes = (
{
closed = 1;
nodes = (
(496,-24,o),
(539,54,o),
(539,207,cs),
(539,444,o),
(418,628,o),
(268,690,c),
(168,624,o),
(60,444,o),
(60,207,cs),
(60,155,o),
(65,100,o),
(77,41,c),
(122,4,o),
(194,-24,o),
(300,-24,cs)
);
},
{
closed = 1;
nodes = (
(213,73,o),
(185,75,o),
(161,80,c),
(161,230,o),
(237,396,o),
(367,516,c),
(400,445,o),
(418,357,o),
(418,252,cs),
(418,198,o),
(414,157,o),
(400,96,c),
(357,81,o),
(298,73,o),
(242,73,cs)
);
}
);
width = 589;
}
);
unicode = 79;
},
{
glyphname = Oacute;
lastChange = "2023-03-01 09:16:35 +0000";
layers = (
{
background = {
shapes = (
{
closed = 1;
nodes = (
(60,444,o),
(60,207,cs),
(60,155,o),
(65,100,o),
(77,41,c),
(122,4,o),
(194,-24,o),
(300,-24,cs),
(496,-24,o),
(539,54,o),
(539,207,cs),
(539,444,o),
(418,628,o),
(268,690,c),
(168,624,o)
);
},
{
closed = 1;
nodes = (
(414,157,o),
(400,96,c),
(357,81,o),
(298,73,o),
(242,73,cs),
(213,73,o),
(185,75,o),
(161,80,c),
(161,230,o),
(237,396,o),
(367,516,c),
(400,445,o),
(418,357,o),
(418,252,cs),
(418,198,o)
);
},
{
closed = 1;
nodes = (
(219,713,l),
(423,778,l),
(363,903,l),
(185,781,l)
);
}
);
};
layerId = UUID0;
shapes = (
{
ref = O;
},
{
pos = (36,0);
ref = acutecomb.case;
}
);
width = 589;
}
);
unicode = 211;
},
{
glyphname = Obreve;
lastChange = "2023-03-01 09:16:35 +0000";
layers = (
{
background = {
shapes = (
{
closed = 1;
nodes = (
(60,444,o),
(60,207,cs),
(60,155,o),
(65,100,o),
(77,41,c),
(122,4,o),
(194,-24,o),
(300,-24,cs),
(496,-24,o),
(539,54,o),
(539,207,cs),
(539,444,o),
(418,628,o),
(268,690,c),
(168,624,o)
);
},
{
closed = 1;
nodes = (
(414,157,o),
(400,96,c),
(357,81,o),
(298,73,o),
(242,73,cs),
(213,73,o),
(185,75,o),
(161,80,c),
(161,230,o),
(237,396,o),
(367,516,c),
(400,445,o),
(418,357,o),
(418,252,cs),
(418,198,o)
);
},
{
closed = 1;
nodes = (
(344,849,o),
(325,807,o),
(281,807,cs),
(241,807,o),
(223,838,o),
(198,882,c),
(145,849,l),
(172,784,o),
(206,706,o),
(279,706,cs),
(337,706,o),
(390,742,o),
(444,833,c),
(360,888,l)
);
}
);
};
layerId = UUID0;
shapes = (
{
ref = O;
},
{
pos = (35,0);
ref = brevecomb.case;
}
);
width = 589;
}
);
unicode = 334;
},
{
glyphname = Ocircumflex;
lastChange = "2023-03-01 09:16:35 +0000";
layers = (
{
background = {
shapes = (
{
closed = 1;
nodes = (
(60,444,o),
(60,207,cs),
(60,155,o),
(65,100,o),
(77,41,c),
(122,4,o),
(194,-24,o),
(300,-24,cs),
(496,-24,o),
(539,54,o),
(539,207,cs),
(539,444,o),
(418,628,o),
(268,690,c),
(168,624,o)
);
},
{
closed = 1;
nodes = (
(414,157,o),
(400,96,c),
(357,81,o),
(298,73,o),
(242,73,cs),
(213,73,o),
(185,75,o),
(161,80,c),
(161,230,o),
(237,396,o),
(367,516,c),
(400,445,o),
(418,357,o),
(418,252,cs),
(418,198,o)
);
},
{
closed = 1;
nodes = (
(177,716,l),
(295,781,l),
(371,719,l),
(446,809,l),
(259,901,l),
(143,764,l)
);
}
);
};
layerId = UUID0;
shapes = (
{
ref = O;
},
{
pos = (63,0);
ref = circumflexcomb.case;
}
);
width = 589;
}
);
unicode = 212;
},
{
glyphname = Odieresis;
lastChange = "2023-03-01 09:16:35 +0000";
layers = (
{
background = {
shapes = (
{
closed = 1;
nodes = (
(60,444,o),
(60,207,cs),
(60,155,o),
(65,100,o),
(77,41,c),
(122,4,o),
(194,-24,o),
(300,-24,cs),
(496,-24,o),
(539,54,o),
(539,207,cs),
(539,444,o),
(418,628,o),
(268,690,c),
(168,624,o)
);
},
{
closed = 1;
nodes = (
(414,157,o),
(400,96,c),
(357,81,o),
(298,73,o),
(242,73,cs),
(213,73,o),
(185,75,o),
(161,80,c),
(161,230,o),
(237,396,o),
(367,516,c),
(400,445,o),
(418,357,o),
(418,252,cs),
(418,198,o)
);
},
{
closed = 1;
nodes = (
(148,723,o),
(189,723,cs),
(230,723,o),
(265,761,o),
(265,807,cs),
(265,853,o),
(230,891,o),
(189,891,cs),
(148,891,o),
(113,853,o),
(113,807,cs),
(113,761,o)
);
},
{
closed = 1;
nodes = (
(358,723,o),
(399,723,cs),
(440,723,o),
(475,761,o),
(475,807,cs),
(475,853,o),
(440,891,o),
(399,891,cs),
(358,891,o),
(323,853,o),
(323,807,cs),
(323,761,o)
);
}
);
};
layerId = UUID0;
shapes = (
{
ref = O;
},
{
pos = (76,0);
ref = dieresiscomb.case;
}
);
width = 589;
}
);
unicode = 214;
},
{
glyphname = Ograve;
lastChange = "2023-03-01 09:16:35 +0000";
layers = (
{
background = {
shapes = (
{
closed = 1;
nodes = (
(60,444,o),
(60,207,cs),
(60,155,o),
(65,100,o),
(77,41,c),
(122,4,o),
(194,-24,o),
(300,-24,cs),
(496,-24,o),
(539,54,o),
(539,207,cs),
(539,444,o),
(418,628,o),
(268,690,c),
(168,624,o)
);
},
{
closed = 1;
nodes = (
(414,157,o),
(400,96,c),
(357,81,o),
(298,73,o),
(242,73,cs),
(213,73,o),
(185,75,o),
(161,80,c),
(161,230,o),
(237,396,o),
(367,516,c),
(400,445,o),
(418,357,o),
(418,252,cs),
(418,198,o)
);
},
{
closed = 1;
nodes = (
(175,778,l),
(379,713,l),
(413,781,l),
(235,903,l)
);
}
);
};
layerId = UUID0;
shapes = (
{
ref = O;
},
{
pos = (66,0);
ref = gravecomb.case;
}
);
width = 589;
}
);
unicode = 210;
},
{
glyphname = Ohungarumlaut;
lastChange = "2023-03-01 09:16:35 +0000";
layers = (
{
background = {
shapes = (
{
closed = 1;
nodes = (
(60,444,o),
(60,207,cs),
(60,155,o),
(65,100,o),
(77,41,c),
(122,4,o),
(194,-24,o),
(300,-24,cs),
(496,-24,o),
(539,54,o),
(539,207,cs),
(539,444,o),
(418,628,o),
(268,690,c),
(168,624,o)
);
},
{
closed = 1;
nodes = (
(414,157,o),
(400,96,c),
(357,81,o),
(298,73,o),
(242,73,cs),
(213,73,o),
(185,75,o),
(161,80,c),
(161,230,o),
(237,396,o),
(367,516,c),
(400,445,o),
(418,357,o),
(418,252,cs),
(418,198,o)
);
},
{
closed = 1;
nodes = (
(145,708,l),
(320,803,l),
(243,906,l),
(109,759,l)
);
},
{
closed = 1;
nodes = (
(365,708,l),
(540,803,l),
(463,906,l),
(329,759,l)
);
}
);
};
layerId = UUID0;
shapes = (
{
ref = O;
},
{
pos = (34,0);
ref = hungarumlautcomb.case;
}
);
width = 589;
}
);
unicode = 336;
},
{
glyphname = Omacron;
lastChange = "2023-03-01 09:16:35 +0000";
layers = (
{
background = {
shapes = (
{
closed = 1;
nodes = (
(60,444,o),
(60,207,cs),
(60,155,o),
(65,100,o),
(77,41,c),
(122,4,o),
(194,-24,o),
(300,-24,cs),
(496,-24,o),
(539,54,o),
(539,207,cs),
(539,444,o),
(418,628,o),
(268,690,c),
(168,624,o)
);
},
{
closed = 1;
nodes = (
(414,157,o),
(400,96,c),
(357,81,o),
(298,73,o),
(242,73,cs),
(213,73,o),
(185,75,o),
(161,80,c),
(161,230,o),
(237,396,o),
(367,516,c),
(400,445,o),
(418,357,o),
(418,252,cs),
(418,198,o)
);
},
{
closed = 1;
nodes = (
(428,853,l),
(167,853,l),
(160,734,l),
(421,761,l)
);
}
);
};
layerId = UUID0;
shapes = (
{
ref = O;
},
{
pos = (84,0);
ref = macroncomb.case;
}
);
width = 589;
}
);
unicode = 332;
},
{
glyphname = Oslash;
lastChange = "2023-03-01 09:16:35 +0000";
layers = (
{
background = {
shapes = (
{
closed = 1;
nodes = (
(405,734,l),
(176,-111,l),
(242,-126,l),
(471,719,l)
);
},
{
closed = 1;
nodes = (
(60,444,o),
(60,207,cs),
(60,155,o),
(65,100,o),
(77,41,c),
(122,4,o),
(194,-24,o),
(300,-24,cs),
(496,-24,o),
(539,54,o),
(539,207,cs),
(539,444,o),
(418,628,o),
(268,690,c),
(168,624,o)
);
},
{
closed = 1;
nodes = (
(414,157,o),
(400,96,c),
(357,81,o),
(298,73,o),
(242,73,cs),
(213,73,o),
(185,75,o),
(161,80,c),
(161,230,o),
(237,396,o),
(367,516,c),
(400,445,o),
(418,357,o),
(418,252,cs),
(418,198,o)
);
}
);
};
layerId = UUID0;
shapes = (
{
closed = 1;
nodes = (
(471,719,l),
(405,734,l),
(176,-111,l),
(242,-126,l)
);
},
{
ref = O;
}
);
width = 589;
}
);
unicode = 216;
},
{
glyphname = Oslashacute;
lastChange = "2023-03-01 09:16:35 +0000";
layers = (
{
background = {
shapes = (
{
closed = 1;
nodes = (
(400,715,l),
(176,-111,l),
(242,-126,l),
(466,700,l)
);
},
{
closed = 1;
nodes = (
(60,444,o),
(60,207,cs),
(60,155,o),
(65,100,o),
(77,41,c),
(122,4,o),
(194,-24,o),
(300,-24,cs),
(496,-24,o),
(539,54,o),
(539,207,cs),
(539,444,o),
(418,628,o),
(268,690,c),
(168,624,o)
);
},
{
closed = 1;
nodes = (
(414,157,o),
(400,96,c),
(357,81,o),
(298,73,o),
(242,73,cs),
(213,73,o),
(185,75,o),
(161,80,c),
(161,230,o),
(237,396,o),
(367,516,c),
(400,445,o),
(418,357,o),
(418,252,cs),
(418,198,o)
);
},
{
closed = 1;
nodes = (
(219,713,l),
(423,778,l),
(363,903,l),
(185,781,l)
);
}
);
};
layerId = UUID0;
shapes = (
{
ref = Oslash;
},
{
pos = (36,0);
ref = acutecomb.case;
}
);
width = 589;
}
);
unicode = 510;
},
{
glyphname = Otilde;
lastChange = "2023-03-01 09:16:35 +0000";
layers = (
{
background = {
shapes = (
{
closed = 1;
nodes = (
(60,444,o),
(60,207,cs),
(60,155,o),
(65,100,o),
(77,41,c),
(122,4,o),
(194,-24,o),
(300,-24,cs),
(496,-24,o),
(539,54,o),
(539,207,cs),
(539,444,o),
(418,628,o),
(268,690,c),
(168,624,o)
);
},
{
closed = 1;
nodes = (
(414,157,o),
(400,96,c),
(357,81,o),
(298,73,o),
(242,73,cs),
(213,73,o),
(185,75,o),
(161,80,c),
(161,230,o),
(237,396,o),
(367,516,c),
(400,445,o),
(418,357,o),
(418,252,cs),
(418,198,o)
);
},
{
closed = 1;
nodes = (
(376,858,o),
(391,892,c),
(451,876,l),
(440,791,o),
(413,735,o),
(366,735,cs),
(333,735,o),
(296,761,o),
(261,761,cs),
(246,761,o),
(233,750,o),
(218,716,c),
(158,732,l),
(169,817,o),
(196,873,o),
(243,873,cs),
(276,873,o),
(313,847,o),
(348,847,cs),
(363,847,o)
);
}
);
};
layerId = UUID0;
shapes = (
{
ref = O;
},
{
pos = (61,0);
ref = tildecomb.case;
}
);
width = 589;
}
);
unicode = 213;
},
{
glyphname = OE;
lastChange = "2023-03-01 09:16:35 +0000";
layers = (
{
anchors = (
{
name = bottom;
pos = (424,0);
},
{
name = top;
pos = (424,650);
}
);
background = {
shapes = (
{
closed = 1;
nodes = (
(778,103,l),
(502,71,l),
(529,294,l),
(755,277,l),
(750,367,l),
(537,365,l),
(563,572,l),
(774,597,l),
(777,664,l),
(338,650,l),
(316,666,o),
(292,680,o),
(268,690,c),
(168,624,o),
(60,444,o),
(60,207,cs),
(60,155,o),
(65,100,o),
(77,41,c),
(122,4,o),
(194,-24,o),
(300,-24,cs),
(351,-24,o),
(392,-18,o),
(424,-8,c),
(774,0,l)
);
},
{
closed = 1;
nodes = (
(229,379,o),
(347,497,c),
(376,89,l),
(336,79,o),
(288,72,o),
(242,72,cs),
(213,72,o),
(185,75,o),
(161,80,c),
(161,222,o)
);
}
);
};
layerId = UUID0;
shapes = (
{
closed = 1;
nodes = (
(351,-24,o),
(392,-18,o),
(424,-8,c),
(774,0,l),
(778,103,l),
(502,71,l),
(529,294,l),
(755,277,l),
(750,367,l),
(537,365,l),
(563,572,l),
(774,597,l),
(777,664,l),
(338,650,l),
(316,666,o),
(292,680,o),
(268,690,c),
(168,624,o),
(60,444,o),
(60,207,cs),
(60,155,o),
(65,100,o),
(77,41,c),
(122,4,o),
(194,-24,o),
(300,-24,cs)
);
},
{
closed = 1;
nodes = (
(213,72,o),
(185,75,o),
(161,80,c),
(161,222,o),
(229,379,o),
(347,497,c),
(376,89,l),
(336,79,o),
(288,72,o),
(242,72,cs)
);
}
);
width = 848;
}
);
unicode = 338;
},
{
glyphname = P;
lastChange = "2023-03-01 09:16:35 +0000";
layers = (
{
anchors = (
{
name = bottom;
pos = (315,0);
},
{
name = top;
pos = (315,650);
}
);
background = {
shapes = (
{
closed = 1;
nodes = (
(255,-4,l),
(279,220,l),
(464,262,o),
(619,361,o),
(619,524,cs),
(619,557,o),
(613,591,o),
(601,627,c),
(545,662,o),
(471,675,o),
(396,675,cs),
(280,675,o),
(160,650,o),
(98,630,c),
(155,-14,l)
);
},
{
closed = 1;
nodes = (
(426,542,o),
(426,495,cs),
(426,422,o),
(376,337,o),
(286,288,c),
(319,603,l),
(334,607,o),
(349,610,o),
(363,610,c),
(405,585,o)
);
}
);
};
layerId = UUID0;
shapes = (
{
closed = 1;
nodes = (
(255,-4,l),
(279,220,l),
(464,262,o),
(619,361,o),
(619,524,cs),
(619,557,o),
(613,591,o),
(601,627,c),
(545,662,o),
(471,675,o),
(396,675,cs),
(280,675,o),
(160,650,o),
(98,630,c),
(155,-14,l)
);
},
{
closed = 1;
nodes = (
(319,603,l),
(334,607,o),
(349,610,o),
(363,610,c),
(405,585,o),
(426,542,o),
(426,495,cs),
(426,422,o),
(376,337,o),
(286,288,c)
);
}
);
width = 629;
}
);
unicode = 80;
},
{
glyphname = Thorn;
lastChange = "2023-03-01 09:16:35 +0000";
layers = (
{
anchors = (
{
name = bottom;
pos = (315,0);
},
{
name = top;
pos = (315,650);
}
);
background = {
shapes = (
{
closed = 1;
nodes = (
(255,-4,l),
(265,97,l),
(456,137,o),
(619,237,o),
(619,404,cs),
(619,437,o),
(613,471,o),
(601,507,c),
(538,543,o),
(482,562,o),
(413,562,cs),
(383,562,o),
(350,558,o),
(314,551,c),
(326,665,l),
(98,630,l),
(155,-14,l)
);
},
{
closed = 1;
nodes = (
(426,422,o),
(426,375,cs),
(426,298,o),
(371,209,o),
(272,162,c),
(306,479,l),
(326,486,o),
(345,490,o),
(363,490,c),
(406,464,o)
);
}
);
};
layerId = UUID0;
shapes = (
{
closed = 1;
nodes = (
(255,-4,l),
(265,97,l),
(456,137,o),
(619,237,o),
(619,404,cs),
(619,437,o),
(613,471,o),
(601,507,c),
(538,543,o),
(482,562,o),
(413,562,cs),
(383,562,o),
(350,558,o),
(314,551,c),
(326,665,l),
(98,630,l),
(155,-14,l)
);
},
{
closed = 1;
nodes = (
(306,479,l),
(326,486,o),
(345,490,o),
(363,490,c),
(406,464,o),
(426,422,o),
(426,375,cs),
(426,298,o),
(371,209,o),
(272,162,c)
);
}
);
width = 629;
}
);
unicode = 222;
},
{
glyphname = Q;
lastChange = "2023-03-01 09:16:35 +0000";
layers = (
{
anchors = (
{
name = bottom;
pos = (295,0);
},
{
name = top;
pos = (295,650);
}
);
background = {
shapes = (
{
closed = 1;
nodes = (
(60,444,o),
(60,207,cs),
(60,155,o),
(65,100,o),
(77,41,c),
(121,4,o),
(192,-23,o),
(295,-24,c),
(352,-165,l),
(532,-152,l),
(420,-9,l),
(515,19,o),
(539,92,o),
(539,207,cs),
(539,444,o),
(418,628,o),
(268,690,c),
(168,624,o)
);
},
{
closed = 1;
nodes = (
(414,157,o),
(400,96,c),
(357,81,o),
(298,73,o),
(242,73,cs),
(213,73,o),
(185,75,o),
(161,80,c),
(161,230,o),
(237,396,o),
(367,516,c),
(400,445,o),
(418,357,o),
(418,252,cs),
(418,198,o)
);
}
);
};
layerId = UUID0;
shapes = (
{
closed = 1;
nodes = (
(532,-152,l),
(420,-9,l),
(515,19,o),
(539,92,o),
(539,207,cs),
(539,444,o),
(418,628,o),
(268,690,c),
(168,624,o),
(60,444,o),
(60,207,cs),
(60,155,o),
(65,100,o),
(77,41,c),
(121,4,o),
(192,-23,o),
(295,-24,c),
(352,-165,l)
);
},
{
closed = 1;
nodes = (
(213,73,o),
(185,75,o),
(161,80,c),
(161,230,o),
(237,396,o),
(367,516,c),
(400,445,o),
(418,357,o),
(418,252,cs),
(418,198,o),
(414,157,o),
(400,96,c),
(357,81,o),
(298,73,o),
(242,73,cs)
);
}
);
width = 589;
}
);
unicode = 81;
},
{
glyphname = R;
lastChange = "2023-03-01 09:16:35 +0000";
layers = (
{
anchors = (
{
name = bottom;
pos = (370,0);
},
{
name = top;
pos = (371,650);
}
);
background = {
shapes = (
{
closed = 1;
nodes = (
(255,-4,l),
(282,248,l),
(291,250,o),
(301,251,o),
(311,254,c),
(582,-38,l),
(652,1,l),
(484,320,l),
(571,369,o),
(629,438,o),
(629,528,cs),
(629,557,o),
(623,591,o),
(611,627,c),
(555,662,o),
(481,675,o),
(406,675,cs),
(290,675,o),
(160,650,o),
(98,630,c),
(155,-14,l)
);
},
{
closed = 1;
nodes = (
(436,544,o),
(436,501,cs),
(436,433,o),
(384,355,o),
(289,312,c),
(319,600,l),
(337,606,o),
(356,610,o),
(373,610,c),
(416,584,o)
);
}
);
};
layerId = UUID0;
shapes = (
{
closed = 1;
nodes = (
(652,1,l),
(484,320,l),
(571,369,o),
(629,438,o),
(629,528,cs),
(629,557,o),
(623,591,o),
(611,627,c),
(555,662,o),
(481,675,o),
(406,675,cs),
(290,675,o),
(160,650,o),
(98,630,c),
(155,-14,l),
(255,-4,l),
(282,248,l),
(291,250,o),
(301,251,o),
(311,254,c),
(582,-38,l)
);
},
{
closed = 1;
nodes = (
(319,600,l),
(337,606,o),
(356,610,o),
(373,610,c),
(416,584,o),
(436,544,o),
(436,501,cs),
(436,433,o),
(384,355,o),
(289,312,c)
);
}
);
width = 702;
}
);
unicode = 82;
},
{
glyphname = Racute;
lastChange = "2023-03-01 09:16:35 +0000";
layers = (
{
background = {
shapes = (
{
closed = 1;
nodes = (
(255,-4,l),
(282,248,l),
(291,250,o),
(301,251,o),
(311,254,c),
(582,-38,l),
(652,1,l),
(484,320,l),
(571,369,o),
(629,438,o),
(629,528,cs),
(629,557,o),
(623,591,o),
(611,627,c),
(555,662,o),
(481,675,o),
(406,675,cs),
(290,675,o),
(160,650,o),
(98,630,c),
(155,-14,l)
);
},
{
closed = 1;
nodes = (
(436,544,o),
(436,501,cs),
(436,433,o),
(384,355,o),
(289,312,c),
(319,600,l),
(337,606,o),
(356,610,o),
(373,610,c),
(416,584,o)
);
},
{
closed = 1;
nodes = (
(288,713,l),
(492,778,l),
(432,903,l),
(254,781,l)
);
}
);
};
layerId = UUID0;
shapes = (
{
ref = R;
},
{
pos = (112,0);
ref = acutecomb.case;
}
);
width = 702;
}
);
unicode = 340;
},
{
glyphname = Rcaron;
lastChange = "2023-03-01 09:16:35 +0000";
layers = (
{
background = {
shapes = (
{
closed = 1;
nodes = (
(255,-4,l),
(282,248,l),
(291,250,o),
(301,251,o),
(311,254,c),
(582,-38,l),
(652,1,l),
(484,320,l),
(571,369,o),
(629,438,o),
(629,528,cs),
(629,557,o),
(623,591,o),
(611,627,c),
(555,662,o),
(481,675,o),
(406,675,cs),
(290,675,o),
(160,650,o),
(98,630,c),
(155,-14,l)
);
},
{
closed = 1;
nodes = (
(436,544,o),
(436,501,cs),
(436,433,o),
(384,355,o),
(289,312,c),
(319,600,l),
(337,606,o),
(356,610,o),
(373,610,c),
(416,584,o)
);
},
{
closed = 1;
nodes = (
(449,888,l),
(373,826,l),
(255,891,l),
(221,843,l),
(337,706,l),
(524,798,l)
);
}
);
};
layerId = UUID0;
shapes = (
{
ref = R;
},
{
pos = (139,0);
ref = caroncomb.case;
}
);
width = 702;
}
);
unicode = 344;
},
{
glyphname = Rcommaaccent;
lastChange = "2023-03-01 09:16:35 +0000";
layers = (
{
background = {
shapes = (
{
closed = 1;
nodes = (
(255,-4,l),
(282,248,l),
(291,250,o),
(301,251,o),
(311,254,c),
(582,-38,l),
(652,1,l),
(484,320,l),
(571,369,o),
(629,438,o),
(629,528,cs),
(629,557,o),
(623,591,o),
(611,627,c),
(555,662,o),
(481,675,o),
(406,675,cs),
(290,675,o),
(160,650,o),
(98,630,c),
(155,-14,l)
);
},
{
closed = 1;
nodes = (
(436,544,o),
(436,501,cs),
(436,433,o),
(384,355,o),
(289,312,c),
(319,600,l),
(337,606,o),
(356,610,o),
(373,610,c),
(416,584,o)
);
},
{
closed = 1;
nodes = (
(367,-223,o),
(357,-251,o),
(321,-280,c),
(375,-331,l),
(430,-282,o),
(450,-223,o),
(450,-149,cs),
(450,-124,o),
(448,-100,o),
(444,-78,c),
(429,-62,o),
(400,-51,o),
(367,-51,cs),
(308,-51,o),
(292,-78,o),
(292,-130,cs),
(292,-178,o),
(310,-209,o),
(339,-209,cs),
(352,-209,o),
(361,-205,o),
(368,-199,c),
(372,-201,l)
);
}
);
};
layerId = UUID0;
shapes = (
{
ref = R;
},
{
pos = (211,0);
ref = commaaccentcomb;
}
);
width = 702;
}
);
unicode = 342;
},
{
glyphname = S;
lastChange = "2023-03-01 09:16:35 +0000";
layers = (
{
anchors = (
{
name = bottom;
pos = (203,0);
},
{
name = top;
pos = (216,650);
}
);
background = {
shapes = (
{
closed = 1;
nodes = (
(198,221,o),
(198,126,cs),
(198,90,o),
(179,58,o),
(111,20,c),
(159,-45,l),
(280,3,o),
(359,73,o),
(359,179,cs),
(359,263,o),
(258,324,o),
(258,413,cs),
(258,478,o),
(310,533,o),
(382,578,c),
(199,700,l),
(112,631,o),
(49,550,o),
(49,440,cs),
(49,292,o)
);
}
);
};
layerId = UUID0;
shapes = (
{
closed = 1;
nodes = (
(280,3,o),
(359,73,o),
(359,179,cs),
(359,263,o),
(258,324,o),
(258,413,cs),
(258,478,o),
(310,533,o),
(382,578,c),
(199,700,l),
(112,631,o),
(49,550,o),
(49,440,cs),
(49,292,o),
(198,221,o),
(198,126,cs),
(198,90,o),
(179,58,o),
(111,20,c),
(159,-45,l)
);
}
);
width = 431;
}
);
unicode = 83;
},
{
glyphname = Sacute;
lastChange = "2023-03-01 09:16:35 +0000";
layers = (
{
background = {
shapes = (
{
closed = 1;
nodes = (
(198,221,o),
(198,126,cs),
(198,90,o),
(179,58,o),
(111,20,c),
(159,-45,l),
(280,3,o),
(359,73,o),
(359,179,cs),
(359,263,o),
(258,324,o),
(258,413,cs),
(258,478,o),
(310,533,o),
(382,578,c),
(199,700,l),
(112,631,o),
(49,550,o),
(49,440,cs),
(49,292,o)
);
},
{
closed = 1;
nodes = (
(151,713,l),
(355,778,l),
(295,903,l),
(117,781,l)
);
}
);
};
layerId = UUID0;
shapes = (
{
ref = S;
},
{
pos = (-43,0);
ref = acutecomb.case;
}
);
width = 431;
}
);
unicode = 346;
},
{
glyphname = Scaron;
lastChange = "2023-03-01 09:16:35 +0000";
layers = (
{
background = {
shapes = (
{
closed = 1;
nodes = (
(198,191,o),
(198,96,cs),
(198,60,o),
(179,28,o),
(111,-10,c),
(159,-75,l),
(280,-27,o),
(359,43,o),
(359,149,cs),
(359,233,o),
(258,294,o),
(258,383,cs),
(258,448,o),
(310,503,o),
(382,548,c),
(199,670,l),
(112,601,o),
(49,520,o),
(49,410,cs),
(49,262,o)
);
},
{
closed = 1;
nodes = (
(312,888,l),
(236,826,l),
(118,891,l),
(84,843,l),
(200,706,l),
(387,798,l)
);
}
);
};
layerId = UUID0;
shapes = (
{
ref = S;
},
{
pos = (-16,0);
ref = caroncomb.case;
}
);
width = 431;
}
);
unicode = 352;
},
{
glyphname = Scedilla;
lastChange = "2023-03-01 09:16:35 +0000";
layers = (
{
background = {
shapes = (
{
closed = 1;
nodes = (
(96,-201,o),
(143,-208,o),
(173,-208,cs),
(223,-208,o),
(319,-187,o),
(319,-108,cs),
(319,-64,o),
(287,-28,o),
(248,0,c),
(317,44,o),
(359,102,o),
(359,179,cs),
(359,263,o),
(258,324,o),
(258,413,cs),
(258,478,o),
(310,533,o),
(382,578,c),
(199,700,l),
(112,631,o),
(49,550,o),
(49,440,cs),
(49,292,o),
(198,221,o),
(198,126,cs),
(198,90,o),
(179,53,o),
(111,15,c),
(176,-17,o),
(239,-57,o),
(258,-104,c),
(236,-113,o),
(222,-117,o),
(197,-117,cs),
(160,-117,o),
(132,-108,o),
(93,-91,c),
(59,-187,l)
);
}
);
};
layerId = UUID0;
shapes = (
{
ref = S;
},
{
pos = (-51,0);
ref = cedillacomb;
}
);
width = 431;
}
);
unicode = 350;
},
{
glyphname = Scircumflex;
lastChange = "2023-03-01 09:16:35 +0000";
layers = (
{
background = {
shapes = (
{
closed = 1;
nodes = (
(198,221,o),
(198,126,cs),
(198,90,o),
(179,58,o),
(111,20,c),
(159,-45,l),
(280,3,o),
(359,73,o),
(359,179,cs),
(359,263,o),
(258,324,o),
(258,413,cs),
(258,478,o),
(310,533,o),
(382,578,c),
(199,700,l),
(112,631,o),
(49,550,o),
(49,440,cs),
(49,292,o)
);
},
{
closed = 1;
nodes = (
(118,716,l),
(236,781,l),
(312,719,l),
(387,809,l),
(200,901,l),
(84,764,l)
);
}
);
};
layerId = UUID0;
shapes = (
{
ref = S;
},
{
pos = (-16,0);
ref = circumflexcomb.case;
}
);
width = 431;
}
);
unicode = 348;
},
{
glyphname = Scommaaccent;
lastChange = "2023-03-01 09:16:35 +0000";
layers = (
{
background = {
shapes = (
{
closed = 1;
nodes = (
(198,221,o),
(198,126,cs),
(198,90,o),
(179,58,o),
(111,20,c),
(159,-45,l),
(280,3,o),
(359,73,o),
(359,179,cs),
(359,263,o),
(258,324,o),
(258,413,cs),
(258,478,o),
(310,533,o),
(382,578,c),
(199,700,l),
(112,631,o),
(49,550,o),
(49,440,cs),
(49,292,o)
);
},
{
closed = 1;
nodes = (
(199,-223,o),
(189,-251,o),
(153,-280,c),
(207,-331,l),
(262,-282,o),
(282,-223,o),
(282,-149,cs),
(282,-124,o),
(280,-100,o),
(276,-78,c),
(261,-62,o),
(232,-51,o),
(199,-51,cs),
(140,-51,o),
(124,-78,o),
(124,-130,cs),
(124,-178,o),
(142,-209,o),
(171,-209,cs),
(184,-209,o),
(193,-205,o),
(200,-199,c),
(204,-201,l)
);
}
);
};
layerId = UUID0;
shapes = (
{
ref = S;
},
{
pos = (44,0);
ref = commaaccentcomb;
}
);
width = 431;
}
);
unicode = 536;
},
{
glyphname = T;
kernLeft = T;
kernRight = T;
lastChange = "2023-03-01 09:16:35 +0000";
layers = (
{
anchors = (
{
name = bottom;
pos = (257,0);
},
{
name = center;
pos = (271,325);
},
{
name = top;
pos = (291,650);
}
);
background = {
shapes = (
{
closed = 1;
nodes = (
(21,548,l),
(161,562,l),
(211,-14,l),
(321,-4,l),
(383,584,l),
(523,598,l),
(526,665,l),
(15,651,l)
);
}
);
};
layerId = UUID0;
shapes = (
{
closed = 1;
nodes = (
(321,-4,l),
(383,584,l),
(523,598,l),
(526,665,l),
(15,651,l),
(21,548,l),
(161,562,l),
(211,-14,l)
);
}
);
width = 541;
}
);
unicode = 84;
},
{
glyphname = Tbar;
kernLeft = T;
kernRight = T;
lastChange = "2023-03-01 09:16:35 +0000";
layers = (
{
background = {
shapes = (
{
closed = 1;
nodes = (
(21,548,l),
(161,562,l),
(211,-14,l),
(321,-4,l),
(383,584,l),
(523,598,l),
(526,665,l),
(15,651,l)
);
},
{
closed = 1;
nodes = (
(499,369,l),
(53,369,l),
(41,289,l),
(487,316,l)
);
}
);
};
layerId = UUID0;
shapes = (
{
closed = 1;
nodes = (
(487,316,l),
(499,369,l),
(53,369,l),
(41,289,l)
);
},
{
alignment = -1;
ref = T;
}
);
width = 541;
}
);
unicode = 358;
},
{
glyphname = Tcaron;
kernLeft = T;
kernRight = T;
lastChange = "2023-03-01 09:16:35 +0000";
layers = (
{
background = {
shapes = (
{
closed = 1;
nodes = (
(21,548,l),
(161,562,l),
(211,-14,l),
(321,-4,l),
(383,584,l),
(523,598,l),
(526,665,l),
(15,651,l)
);
},
{
closed = 1;
nodes = (
(367,888,l),
(291,826,l),
(173,891,l),
(139,843,l),
(255,706,l),
(442,798,l)
);
}
);
};
layerId = UUID0;
shapes = (
{
ref = T;
},
{
pos = (59,0);
ref = caroncomb.case;
}
);
width = 541;
}
);
unicode = 356;
},
{
glyphname = Tcedilla;
kernLeft = T;
kernRight = T;
lastChange = "2023-03-01 09:16:35 +0000";
layers = (
{
background = {
shapes = (
{
closed = 1;
nodes = (
(164,-201,o),
(211,-208,o),
(241,-208,cs),
(291,-208,o),
(387,-187,o),
(387,-108,cs),
(387,-38,o),
(307,9,o),
(245,44,c),
(211,-14,l),
(273,-36,o),
(310,-71,o),
(326,-104,c),
(304,-113,o),
(290,-117,o),
(265,-117,cs),
(228,-117,o),
(200,-108,o),
(161,-91,c),
(127,-187,l)
);
},
{
closed = 1;
nodes = (
(21,548,l),
(161,562,l),
(211,-14,l),
(321,-4,l),
(383,584,l),
(523,598,l),
(526,665,l),
(15,651,l)
);
}
);
};
layerId = UUID0;
shapes = (
{
ref = T;
},
{
pos = (3,0);
ref = cedillacomb;
}
);
width = 541;
}
);
unicode = 354;
},
{
glyphname = Tcommaaccent;
kernLeft = T;
kernRight = T;
lastChange = "2023-03-01 09:16:35 +0000";
layers = (
{
background = {
shapes = (
{
closed = 1;
nodes = (
(21,548,l),
(161,562,l),
(211,-14,l),
(321,-4,l),
(383,584,l),
(523,598,l),
(526,665,l),
(15,651,l)
);
},
{
closed = 1;
nodes = (
(265,-223,o),
(255,-251,o),
(219,-280,c),
(273,-331,l),
(328,-282,o),
(348,-223,o),
(348,-149,cs),
(348,-124,o),
(346,-100,o),
(342,-78,c),
(327,-62,o),
(298,-51,o),
(265,-51,cs),
(206,-51,o),
(190,-78,o),
(190,-130,cs),
(190,-178,o),
(208,-209,o),
(237,-209,cs),
(250,-209,o),
(259,-205,o),
(266,-199,c),
(270,-201,l)
);
}
);
};
layerId = UUID0;
shapes = (
{
ref = T;
},
{
pos = (98,0);
ref = commaaccentcomb;
}
);
width = 541;
}
);
unicode = 538;
},
{
glyphname = U;
lastChange = "2023-03-01 09:16:35 +0000";
layers = (
{
anchors = (
{
name = bottom;
pos = (348,0);
},
{
name = ogonek;
pos = (544,44);
},
{
name = top;
pos = (378,650);
},
{
name = topright;
pos = (676,650);
}
);
background = {
shapes = (
{
closed = 1;
nodes = (
(511,655,l),
(502,191,ls),
(500,80,o),
(437,54,o),
(381,54,cs),
(314,54,o),
(272,85,o),
(272,168,cs),
(272,175,o),
(272,183,o),
(313,665,c),
(75,650,l),
(123,207,ls),
(141,36,o),
(233,-24,o),
(342,-24,cs),
(445,-24,o),
(570,10,o),
(581,190,cs),
(611,660,l)
);
}
);
};
layerId = UUID0;
shapes = (
{
closed = 1;
nodes = (
(445,-24,o),
(570,10,o),
(581,190,cs),
(611,660,l),
(511,655,l),
(502,191,ls),
(500,80,o),
(437,54,o),
(381,54,cs),
(314,54,o),
(272,85,o),
(272,168,cs),
(272,175,o),
(272,183,o),
(313,665,c),
(75,650,l),
(123,207,ls),
(142,36,o),
(233,-24,o),
(342,-24,cs)
);
}
);
width = 696;
}
);
unicode = 85;
},
{
glyphname = Uacute;
lastChange = "2023-03-01 09:16:35 +0000";
layers = (
{
background = {
shapes = (
{
closed = 1;
nodes = (
(511,655,l),
(502,191,ls),
(500,80,o),
(437,54,o),
(381,54,cs),
(314,54,o),
(272,85,o),
(272,168,cs),
(272,175,o),
(272,183,o),
(313,665,c),
(75,650,l),
(123,207,ls),
(141,36,o),
(233,-24,o),
(342,-24,cs),
(445,-24,o),
(570,10,o),
(581,190,cs),
(611,660,l)
);
},
{
closed = 1;
nodes = (
(310,713,l),
(514,778,l),
(454,903,l),
(276,781,l)
);
}
);
};
layerId = UUID0;
shapes = (
{
ref = U;
},
{
pos = (119,0);
ref = acutecomb.case;
}
);
width = 696;
}
);
unicode = 218;
},
{
glyphname = Ubreve;
lastChange = "2023-03-01 09:16:35 +0000";
layers = (
{
background = {
shapes = (
{
closed = 1;
nodes = (
(511,655,l),
(502,191,ls),
(500,80,o),
(437,54,o),
(381,54,cs),
(314,54,o),
(272,85,o),
(272,168,cs),
(272,175,o),
(272,183,o),
(313,665,c),
(75,650,l),
(123,207,ls),
(141,36,o),
(233,-24,o),
(342,-24,cs),
(445,-24,o),
(570,10,o),
(581,190,cs),
(611,660,l)
);
},
{
closed = 1;
nodes = (
(434,849,o),
(415,807,o),
(371,807,cs),
(331,807,o),
(313,838,o),
(288,882,c),
(235,849,l),
(262,784,o),
(296,706,o),
(369,706,cs),
(427,706,o),
(480,742,o),
(534,833,c),
(450,888,l)
);
}
);
};
layerId = UUID0;
shapes = (
{
ref = U;
},
{
pos = (118,0);
ref = brevecomb.case;
}
);
width = 696;
}
);
unicode = 364;
},
{
glyphname = Ucircumflex;
lastChange = "2023-03-01 09:16:35 +0000";
layers = (
{
background = {
shapes = (
{
closed = 1;
nodes = (
(511,655,l),
(502,191,ls),
(500,80,o),
(437,54,o),
(381,54,cs),
(314,54,o),
(272,85,o),
(272,168,cs),
(272,175,o),
(272,183,o),
(313,665,c),
(75,650,l),
(123,207,ls),
(141,36,o),
(233,-24,o),
(342,-24,cs),
(445,-24,o),
(570,10,o),
(581,190,cs),
(611,660,l)
);
},
{
closed = 1;
nodes = (
(260,716,l),
(378,781,l),
(454,719,l),
(529,809,l),
(342,901,l),
(226,764,l)
);
}
);
};
layerId = UUID0;
shapes = (
{
ref = U;
},
{
pos = (146,0);
ref = circumflexcomb.case;
}
);
width = 696;
}
);
unicode = 219;
},
{
glyphname = Udieresis;
lastChange = "2023-03-01 09:16:35 +0000";
layers = (
{
background = {
shapes = (
{
closed = 1;
nodes = (
(511,655,l),
(502,191,ls),
(500,80,o),
(437,54,o),
(381,54,cs),
(314,54,o),
(272,85,o),
(272,168,cs),
(272,175,o),
(272,183,o),
(313,665,c),
(75,650,l),
(123,207,ls),
(141,36,o),
(233,-24,o),
(342,-24,cs),
(445,-24,o),
(570,10,o),
(581,190,cs),
(611,660,l)
);
},
{
closed = 1;
nodes = (
(237,723,o),
(278,723,cs),
(319,723,o),
(354,761,o),
(354,807,cs),
(354,853,o),
(319,891,o),
(278,891,cs),
(237,891,o),
(202,853,o),
(202,807,cs),
(202,761,o)
);
},
{
closed = 1;
nodes = (
(447,723,o),
(488,723,cs),
(529,723,o),
(564,761,o),
(564,807,cs),
(564,853,o),
(529,891,o),
(488,891,cs),
(447,891,o),
(412,853,o),
(412,807,cs),
(412,761,o)
);
}
);
};
layerId = UUID0;
shapes = (
{
ref = U;
},
{
pos = (159,0);
ref = dieresiscomb.case;
}
);
width = 696;
}
);
unicode = 220;
},
{
glyphname = Ugrave;
lastChange = "2023-03-01 09:16:35 +0000";
layers = (
{
background = {
shapes = (
{
closed = 1;
nodes = (
(511,655,l),
(502,191,ls),
(500,80,o),
(437,54,o),
(381,54,cs),
(314,54,o),
(272,85,o),
(272,168,cs),
(272,175,o),
(272,183,o),
(313,665,c),
(75,650,l),
(123,207,ls),
(141,36,o),
(233,-24,o),
(342,-24,cs),
(445,-24,o),
(570,10,o),
(581,190,cs),
(611,660,l)
);
},
{
closed = 1;
nodes = (
(260,778,l),
(464,713,l),
(498,781,l),
(320,903,l)
);
}
);
};
layerId = UUID0;
shapes = (
{
ref = U;
},
{
pos = (149,0);
ref = gravecomb.case;
}
);
width = 696;
}
);
unicode = 217;
},
{
glyphname = Uhungarumlaut;
lastChange = "2023-03-01 09:16:35 +0000";
layers = (
{
background = {
shapes = (
{
closed = 1;
nodes = (
(511,655,l),
(502,191,ls),
(500,80,o),
(437,54,o),
(381,54,cs),
(314,54,o),
(272,85,o),
(272,168,cs),
(272,175,o),
(272,183,o),
(313,665,c),
(75,650,l),
(123,207,ls),
(141,36,o),
(233,-24,o),
(342,-24,cs),
(445,-24,o),
(570,10,o),
(581,190,cs),
(611,660,l)
);
},
{
closed = 1;
nodes = (
(218,708,l),
(393,803,l),
(316,906,l),
(182,759,l)
);
},
{
closed = 1;
nodes = (
(438,708,l),
(613,803,l),
(536,906,l),
(402,759,l)
);
}
);
};
layerId = UUID0;
shapes = (
{
ref = U;
},
{
pos = (117,0);
ref = hungarumlautcomb.case;
}
);
width = 696;
}
);
unicode = 368;
},
{
glyphname = Umacron;
lastChange = "2023-03-01 09:16:35 +0000";
layers = (
{
background = {
shapes = (
{
closed = 1;
nodes = (
(511,655,l),
(502,191,ls),
(500,80,o),
(437,54,o),
(381,54,cs),
(314,54,o),
(272,85,o),
(272,168,cs),
(272,175,o),
(272,183,o),
(313,665,c),
(75,650,l),
(123,207,ls),
(141,36,o),
(233,-24,o),
(342,-24,cs),
(445,-24,o),
(570,10,o),
(581,190,cs),
(611,660,l)
);
},
{
closed = 1;
nodes = (
(519,853,l),
(258,853,l),
(251,734,l),
(512,761,l)
);
}
);
};
layerId = UUID0;
shapes = (
{
ref = U;
},
{
pos = (167,0);
ref = macroncomb.case;
}
);
width = 696;
}
);
unicode = 362;
},
{
glyphname = Uogonek;
lastChange = "2023-03-01 09:16:35 +0000";
layers = (
{
background = {
shapes = (
{
closed = 1;
nodes = (
(511,655,l),
(502,191,ls),
(500,80,o),
(437,54,o),
(381,54,cs),
(314,54,o),
(272,85,o),
(272,168,cs),
(272,175,o),
(272,183,o),
(313,665,c),
(75,650,l),
(123,207,ls),
(141,36,o),
(233,-24,o),
(342,-24,cs),
(445,-24,o),
(570,10,o),
(581,190,cs),
(611,660,l)
);
},
{
closed = 1;
nodes = (
(471,-108,o),
(443,-117,o),
(406,-117,cs),
(381,-117,o),
(367,-113,o),
(345,-104,c),
(361,-71,o),
(392,-38,o),
(454,-6,c),
(426,44,l),
(364,9,o),
(284,-38,o),
(284,-108,cs),
(284,-187,o),
(380,-208,o),
(430,-208,cs),
(460,-208,o),
(507,-201,o),
(544,-187,c),
(510,-91,l)
);
}
);
};
layerId = UUID0;
shapes = (
{
ref = U;
},
{
pos = (160,0);
ref = ogonekcomb;
}
);
width = 696;
}
);
unicode = 370;
},
{
glyphname = Uring;
lastChange = "2023-03-01 09:16:35 +0000";
layers = (
{
background = {
shapes = (
{
closed = 1;
nodes = (
(511,655,l),
(502,191,ls),
(500,80,o),
(437,54,o),
(381,54,cs),
(314,54,o),
(272,85,o),
(272,168,cs),
(272,175,o),
(272,183,o),
(313,665,c),
(75,650,l),
(123,207,ls),
(141,36,o),
(233,-24,o),
(342,-24,cs),
(445,-24,o),
(570,10,o),
(581,190,cs),
(611,660,l)
);
},
{
closed = 1;
nodes = (
(496,867,o),
(475,897,c),
(444,909,o),
(407,915,o),
(381,915,cs),
(303,915,o),
(262,864,o),
(262,801,cs),
(262,765,o),
(267,735,o),
(288,705,c),
(319,693,o),
(356,687,o),
(382,687,cs),
(460,687,o),
(501,738,o),
(501,801,cs),
(501,837,o)
);
},
{
closed = 1;
nodes = (
(417,752,o),
(381,735,c),
(370,735,o),
(350,738,o),
(344,742,c),
(340,754,o),
(337,769,o),
(337,787,cs),
(337,818,o),
(345,850,o),
(381,867,c),
(392,867,o),
(412,864,o),
(418,859,c),
(422,848,o),
(425,832,o),
(425,814,cs),
(425,784,o)
);
}
);
};
layerId = UUID0;
shapes = (
{
ref = U;
},
{
pos = (224,0);
ref = ringcomb.case;
}
);
width = 696;
}
);
unicode = 366;
},
{
glyphname = Utilde;
lastChange = "2023-03-01 09:16:35 +0000";
layers = (
{
background = {
shapes = (
{
closed = 1;
nodes = (
(511,655,l),
(502,191,ls),
(500,80,o),
(437,54,o),
(381,54,cs),
(314,54,o),
(272,85,o),
(272,168,cs),
(272,175,o),
(272,183,o),
(313,665,c),
(75,650,l),
(123,207,ls),
(141,36,o),
(233,-24,o),
(342,-24,cs),
(445,-24,o),
(570,10,o),
(581,190,cs),
(611,660,l)
);
},
{
closed = 1;
nodes = (
(454,858,o),
(469,892,c),
(529,876,l),
(518,791,o),
(491,735,o),
(444,735,cs),
(411,735,o),
(374,761,o),
(339,761,cs),
(324,761,o),
(311,750,o),
(296,716,c),
(236,732,l),
(247,817,o),
(274,873,o),
(321,873,cs),
(354,873,o),
(391,847,o),
(426,847,cs),
(441,847,o)
);
}
);
};
layerId = UUID0;
shapes = (
{
ref = U;
},
{
pos = (144,0);
ref = tildecomb.case;
}
);
width = 696;
}
);
unicode = 360;
},
{
glyphname = V;
kernLeft = V;
kernRight = V;
lastChange = "2023-03-01 09:16:35 +0000";
layers = (
{
anchors = (
{
name = bottom;
pos = (300,0);
},
{
name = top;
pos = (300,650);
}
);
background = {
shapes = (
{
closed = 1;
nodes = (
(15,638,l),
(262,-15,l),
(352,0,l),
(569,641,l),
(479,665,l),
(334,163,l),
(325,163,l),
(244,665,l)
);
}
);
};
layerId = UUID0;
shapes = (
{
closed = 1;
nodes = (
(352,0,l),
(569,641,l),
(479,665,l),
(334,163,l),
(325,163,l),
(244,665,l),
(15,638,l),
(262,-15,l)
);
}
);
width = 599;
}
);
unicode = 86;
},
{
glyphname = W;
kernLeft = V;
kernRight = V;
lastChange = "2023-03-01 09:16:35 +0000";
layers = (
{
anchors = (
{
name = bottom;
pos = (462,0);
},
{
name = top;
pos = (516,650);
}
);
background = {
shapes = (
{
closed = 1;
nodes = (
(29,638,l),
(239,-15,l),
(349,0,l),
(463,322,l),
(616,-15,l),
(706,0,l),
(883,641,l),
(793,665,l),
(678,157,l),
(670,157,l),
(566,611,l),
(486,635,l),
(335,161,l),
(327,161,l),
(258,665,l)
);
}
);
};
layerId = UUID0;
shapes = (
{
closed = 1;
nodes = (
(349,0,l),
(463,322,l),
(616,-15,l),
(706,0,l),
(883,641,l),
(793,665,l),
(678,157,l),
(670,157,l),
(566,611,l),
(486,635,l),
(335,161,l),
(327,161,l),
(258,665,l),
(29,638,l),
(239,-15,l)
);
}
);
width = 923;
}
);
unicode = 87;
},
{
glyphname = Wacute;
kernLeft = V;
kernRight = V;
lastChange = "2023-03-01 09:16:35 +0000";
layers = (
{
background = {
shapes = (
{
closed = 1;
nodes = (
(29,638,l),
(239,-15,l),
(349,0,l),
(463,322,l),
(616,-15,l),
(706,0,l),
(883,641,l),
(793,665,l),
(678,157,l),
(670,157,l),
(566,611,l),
(486,635,l),
(335,161,l),
(327,161,l),
(258,665,l)
);
},
{
closed = 1;
nodes = (
(433,713,l),
(637,778,l),
(577,903,l),
(399,781,l)
);
}
);
};
layerId = UUID0;
shapes = (
{
ref = W;
},
{
pos = (257,0);
ref = acutecomb.case;
}
);
width = 923;
}
);
unicode = 7810;
},
{
glyphname = Wcircumflex;
kernLeft = V;
kernRight = V;
lastChange = "2023-03-01 09:16:35 +0000";
layers = (
{
background = {
shapes = (
{
closed = 1;
nodes = (
(29,638,l),
(239,-15,l),
(349,0,l),
(463,322,l),
(616,-15,l),
(706,0,l),
(883,641,l),
(793,665,l),
(678,157,l),
(670,157,l),
(566,611,l),
(486,635,l),
(335,161,l),
(327,161,l),
(258,665,l)
);
},
{
closed = 1;
nodes = (
(401,716,l),
(519,781,l),
(595,719,l),
(670,809,l),
(483,901,l),
(367,764,l)
);
}
);
};
layerId = UUID0;
shapes = (
{
ref = W;
},
{
pos = (284,0);
ref = circumflexcomb.case;
}
);
width = 923;
}
);
unicode = 372;
},
{
glyphname = Wdieresis;
kernLeft = V;
kernRight = V;
lastChange = "2023-03-01 09:16:35 +0000";
layers = (
{
background = {
shapes = (
{
closed = 1;
nodes = (
(29,638,l),
(239,-15,l),
(349,0,l),
(463,322,l),
(616,-15,l),
(706,0,l),
(883,641,l),
(793,665,l),
(678,157,l),
(670,157,l),
(566,611,l),
(486,635,l),
(335,161,l),
(327,161,l),
(258,665,l)
);
},
{
closed = 1;
nodes = (
(370,723,o),
(411,723,cs),
(452,723,o),
(487,761,o),
(487,807,cs),
(487,853,o),
(452,891,o),
(411,891,cs),
(370,891,o),
(335,853,o),
(335,807,cs),
(335,761,o)
);
},
{
closed = 1;
nodes = (
(580,723,o),
(621,723,cs),
(662,723,o),
(697,761,o),
(697,807,cs),
(697,853,o),
(662,891,o),
(621,891,cs),
(580,891,o),
(545,853,o),
(545,807,cs),
(545,761,o)
);
}
);
};
layerId = UUID0;
shapes = (
{
ref = W;
},
{
pos = (297,0);
ref = dieresiscomb.case;
}
);
width = 923;
}
);
unicode = 7812;
},
{
glyphname = Wgrave;
kernLeft = V;
kernRight = V;
lastChange = "2023-03-01 09:16:35 +0000";
layers = (
{
background = {
shapes = (
{
closed = 1;
nodes = (
(29,638,l),
(239,-15,l),
(349,0,l),
(463,322,l),
(616,-15,l),
(706,0,l),
(883,641,l),
(793,665,l),
(678,157,l),
(670,157,l),
(566,611,l),
(486,635,l),
(335,161,l),
(327,161,l),
(258,665,l)
);
},
{
closed = 1;
nodes = (
(367,778,l),
(571,713,l),
(605,781,l),
(427,903,l)
);
}
);
};
layerId = UUID0;
shapes = (
{
ref = W;
},
{
pos = (287,0);
ref = gravecomb.case;
}
);
width = 923;
}
);
unicode = 7808;
},
{
glyphname = X;
lastChange = "2023-03-01 09:16:35 +0000";
layers = (
{
anchors = (
{
name = bottom;
pos = (316,0);
},
{
name = top;
pos = (316,650);
}
);
background = {
shapes = (
{
closed = 1;
nodes = (
(145,-15,l),
(262,239,l),
(370,-14,l),
(601,15,l),
(404,329,l),
(598,638,l),
(483,665,l),
(369,418,l),
(281,665,l),
(50,637,l),
(224,323,l),
(30,13,l)
);
}
);
};
layerId = UUID0;
shapes = (
{
closed = 1;
nodes = (
(262,239,l),
(370,-14,l),
(601,15,l),
(404,329,l),
(598,638,l),
(483,665,l),
(369,418,l),
(281,665,l),
(50,637,l),
(224,323,l),
(30,13,l),
(145,-15,l)
);
}
);
width = 631;
}
);
unicode = 88;
},
{
glyphname = Y;
kernLeft = V;
kernRight = V;
lastChange = "2023-03-01 09:16:35 +0000";
layers = (
{
anchors = (
{
name = bottom;
pos = (279,0);
},
{
name = top;
pos = (314,650);
},
{
name = topleft;
pos = (20,650);
}
);
background = {
shapes = (
{
closed = 1;
nodes = (
(4,638,l),
(202,209,l),
(233,-14,l),
(333,-4,l),
(371,235,l),
(543,640,l),
(462,662,l),
(318,303,l),
(309,303,l),
(229,665,l)
);
}
);
};
layerId = UUID0;
shapes = (
{
closed = 1;
nodes = (
(333,-4,l),
(371,235,l),
(543,640,l),
(462,662,l),
(318,303,l),
(309,303,l),
(229,665,l),
(4,638,l),
(202,209,l),
(233,-14,l)
);
}
);
width = 558;
}
);
unicode = 89;
},
{
glyphname = Yacute;
kernLeft = V;
kernRight = V;
lastChange = "2023-03-01 09:16:35 +0000";
layers = (
{
background = {
shapes = (
{
closed = 1;
nodes = (
(4,638,l),
(202,209,l),
(233,-14,l),
(333,-4,l),
(371,235,l),
(543,640,l),
(462,662,l),
(318,303,l),
(309,303,l),
(229,665,l)
);
},
{
closed = 1;
nodes = (
(224,713,l),
(428,778,l),
(368,903,l),
(190,781,l)
);
}
);
};
layerId = UUID0;
shapes = (
{
ref = Y;
},
{
pos = (55,0);
ref = acutecomb.case;
}
);
width = 558;
}
);
unicode = 221;
},
{
glyphname = Ycircumflex;
kernLeft = V;
kernRight = V;
lastChange = "2023-03-01 09:16:35 +0000";
layers = (
{
background = {
shapes = (
{
closed = 1;
nodes = (
(4,638,l),
(202,209,l),
(233,-14,l),
(333,-4,l),
(371,235,l),
(543,640,l),
(462,662,l),
(318,303,l),
(309,303,l),
(229,665,l)
);
},
{
closed = 1;
nodes = (
(201,716,l),
(319,781,l),
(395,719,l),
(470,809,l),
(283,901,l),
(167,764,l)
);
}
);
};
layerId = UUID0;
shapes = (
{
ref = Y;
},
{
pos = (82,0);
ref = circumflexcomb.case;
}
);
width = 558;
}
);
unicode = 374;
},
{
glyphname = Ydieresis;
kernLeft = V;
kernRight = V;
lastChange = "2023-03-01 09:16:35 +0000";
layers = (
{
background = {
shapes = (
{
closed = 1;
nodes = (
(4,638,l),
(202,209,l),
(233,-14,l),
(333,-4,l),
(371,235,l),
(543,640,l),
(462,662,l),
(318,303,l),
(309,303,l),
(229,665,l)
);
},
{
closed = 1;
nodes = (
(168,723,o),
(209,723,cs),
(250,723,o),
(285,761,o),
(285,807,cs),
(285,853,o),
(250,891,o),
(209,891,cs),
(168,891,o),
(133,853,o),
(133,807,cs),
(133,761,o)
);
},
{
closed = 1;
nodes = (
(378,723,o),
(419,723,cs),
(460,723,o),
(495,761,o),
(495,807,cs),
(495,853,o),
(460,891,o),
(419,891,cs),
(378,891,o),
(343,853,o),
(343,807,cs),
(343,761,o)
);
}
);
};
layerId = UUID0;
shapes = (
{
ref = Y;
},
{
pos = (95,0);
ref = dieresiscomb.case;
}
);
width = 558;
}
);
unicode = 376;
},
{
glyphname = Ygrave;
kernLeft = V;
kernRight = V;
lastChange = "2023-03-01 09:16:35 +0000";
layers = (
{
background = {
shapes = (
{
closed = 1;
nodes = (
(4,638,l),
(202,209,l),
(233,-14,l),
(333,-4,l),
(371,235,l),
(543,640,l),
(462,662,l),
(318,303,l),
(309,303,l),
(229,665,l)
);
},
{
closed = 1;
nodes = (
(189,778,l),
(393,713,l),
(427,781,l),
(249,903,l)
);
}
);
};
layerId = UUID0;
shapes = (
{
ref = Y;
},
{
pos = (85,0);
ref = gravecomb.case;
}
);
width = 558;
}
);
unicode = 7922;
},
{
glyphname = Z;
lastChange = "2023-03-01 09:16:35 +0000";
layers = (
{
anchors = (
{
name = bottom;
pos = (280,0);
},
{
name = center;
pos = (280,325);
},
{
name = top;
pos = (291,650);
}
);
background = {
shapes = (
{
closed = 1;
nodes = (
(58,593,l),
(296,569,l),
(23,58,l),
(20,-9,l),
(509,0,l),
(503,103,l),
(130,68,l),
(520,546,l),
(506,650,l),
(55,660,l)
);
}
);
};
layerId = UUID0;
shapes = (
{
closed = 1;
nodes = (
(509,0,l),
(503,103,l),
(130,68,l),
(520,546,l),
(506,650,l),
(55,660,l),
(58,593,l),
(296,569,l),
(23,58,l),
(20,-9,l)
);
}
);
width = 560;
}
);
unicode = 90;
},
{
glyphname = Zacute;
lastChange = "2023-03-01 09:16:35 +0000";
layers = (
{
background = {
shapes = (
{
closed = 1;
nodes = (
(58,593,l),
(296,569,l),
(23,58,l),
(20,-9,l),
(509,0,l),
(503,103,l),
(130,68,l),
(520,546,l),
(506,650,l),
(55,660,l)
);
},
{
closed = 1;
nodes = (
(195,713,l),
(399,778,l),
(339,903,l),
(161,781,l)
);
}
);
};
layerId = UUID0;
shapes = (
{
ref = Z;
},
{
pos = (32,0);
ref = acutecomb.case;
}
);
width = 560;
}
);
unicode = 377;
},
{
glyphname = Zcaron;
lastChange = "2023-03-01 09:16:35 +0000";
layers = (
{
background = {
shapes = (
{
closed = 1;
nodes = (
(58,593,l),
(296,569,l),
(23,58,l),
(20,-9,l),
(509,0,l),
(503,103,l),
(130,68,l),
(520,546,l),
(506,650,l),
(55,660,l)
);
},
{
closed = 1;
nodes = (
(379,888,l),
(303,826,l),
(185,891,l),
(151,843,l),
(267,706,l),
(454,798,l)
);
}
);
};
layerId = UUID0;
shapes = (
{
ref = Z;
},
{
pos = (59,0);
ref = caroncomb.case;
}
);
width = 560;
}
);
unicode = 381;
},
{
glyphname = Zdotaccent;
lastChange = "2023-03-01 09:16:35 +0000";
layers = (
{
background = {
shapes = (
{
closed = 1;
nodes = (
(58,593,l),
(296,569,l),
(23,58,l),
(20,-9,l),
(509,0,l),
(503,103,l),
(130,68,l),
(520,546,l),
(506,650,l),
(55,660,l)
);
},
{
closed = 1;
nodes = (
(383,791,o),
(374,755,c),
(345,744,o),
(302,738,o),
(263,738,cs),
(244,738,o),
(225,739,o),
(209,743,c),
(209,785,o),
(218,834,o),
(237,871,c),
(286,883,o),
(336,883,o),
(386,883,c),
(386,827,o)
);
}
);
};
layerId = UUID0;
shapes = (
{
ref = Z;
},
{
pos = (135,0);
ref = dotaccentcomb.case;
}
);
width = 560;
}
);
unicode = 379;
},
{
glyphname = a;
kernLeft = a;
lastChange = "2023-03-01 09:16:35 +0000";
layers = (
{
anchors = (
{
name = bottom;
pos = (290,0);
},
{
name = ogonek;
pos = (580,44);
},
{
name = top;
pos = (300,500);
}
);
background = {
shapes = (
{
closed = 1;
nodes = (
(489,-6,l),
(517,270,ls),
(518,277,o),
(519,296,o),
(519,308,cs),
(519,453,o),
(422,512,o),
(276,512,cs),
(202,512,o),
(129,495,o),
(85,477,c),
(129,332,l),
(166,355,o),
(205,365,o),
(240,365,cs),
(302,365,o),
(354,333,o),
(360,278,cs),
(362,256,l),
(325,261,o),
(291,263,o),
(262,263,cs),
(81,263,o),
(35,222,o),
(35,141,cs),
(35,76,o),
(65,9,o),
(110,-22,c),
(118,-23,o),
(127,-23,o),
(135,-23,cs),
(241,-23,o),
(323,36,o),
(367,130,c),
(375,130,l),
(390,-15,l)
);
},
{
closed = 1;
nodes = (
(254,96,o),
(210,89,c),
(200,99,o),
(191,130,o),
(191,153,cs),
(191,179,o),
(199,196,o),
(205,208,c),
(241,214,o),
(271,215,o),
(313,215,cs),
(331,215,o),
(349,214,o),
(366,214,c),
(333,116,o)
);
}
);
};
layerId = UUID0;
shapes = (
{
closed = 1;
nodes = (
(241,-23,o),
(323,36,o),
(367,130,c),
(375,130,l),
(390,-15,l),
(489,-6,l),
(517,270,ls),
(518,277,o),
(519,296,o),
(519,308,cs),
(519,453,o),
(422,512,o),
(276,512,cs),
(202,512,o),
(129,495,o),
(85,477,c),
(129,332,l),
(166,355,o),
(205,365,o),
(240,365,cs),
(302,365,o),
(355,333,o),
(360,278,cs),
(362,256,l),
(325,261,o),
(291,263,o),
(262,263,cs),
(81,263,o),
(35,222,o),
(35,141,cs),
(35,76,o),
(65,9,o),
(110,-22,c),
(118,-23,o),
(127,-23,o),
(135,-23,cs)
);
},
{
closed = 1;
nodes = (
(200,99,o),
(191,130,o),
(191,153,cs),
(191,179,o),
(199,196,o),
(205,208,c),
(241,214,o),
(271,215,o),
(313,215,cs),
(331,215,o),
(349,214,o),
(366,214,c),
(333,116,o),
(254,96,o),
(210,89,c)
);
}
);
width = 580;
}
);
unicode = 97;
},
{
glyphname = aacute;
kernLeft = a;
lastChange = "2023-03-01 09:16:35 +0000";
layers = (
{
background = {
shapes = (
{
closed = 1;
nodes = (
(489,-6,l),
(517,270,ls),
(518,277,o),
(519,296,o),
(519,308,cs),
(519,453,o),
(422,512,o),
(276,512,cs),
(202,512,o),
(129,495,o),
(85,477,c),
(129,332,l),
(166,355,o),
(205,365,o),
(240,365,cs),
(302,365,o),
(354,333,o),
(360,278,cs),
(362,256,l),
(325,261,o),
(291,263,o),
(262,263,cs),
(81,263,o),
(35,222,o),
(35,141,cs),
(35,76,o),
(65,9,o),
(110,-22,c),
(118,-23,o),
(127,-23,o),
(135,-23,cs),
(241,-23,o),
(323,36,o),
(367,130,c),
(375,130,l),
(390,-15,l)
);
},
{
closed = 1;
nodes = (
(254,96,o),
(210,89,c),
(200,99,o),
(191,130,o),
(191,153,cs),
(191,179,o),
(199,196,o),
(205,208,c),
(241,214,o),
(271,215,o),
(313,215,cs),
(331,215,o),
(349,214,o),
(366,214,c),
(333,116,o)
);
},
{
closed = 1;
nodes = (
(205,563,l),
(409,628,l),
(349,753,l),
(171,631,l)
);
}
);
};
layerId = UUID0;
shapes = (
{
ref = a;
},
{
pos = (51,0);
ref = acutecomb;
}
);
width = 580;
}
);
unicode = 225;
},
{
glyphname = abreve;
kernLeft = a;
lastChange = "2023-03-01 09:16:35 +0000";
layers = (
{
background = {
shapes = (
{
closed = 1;
nodes = (
(489,-6,l),
(517,270,ls),
(518,277,o),
(519,296,o),
(519,308,cs),
(519,453,o),
(422,512,o),
(276,512,cs),
(202,512,o),
(129,495,o),
(85,477,c),
(129,332,l),
(166,355,o),
(205,365,o),
(240,365,cs),
(302,365,o),
(354,333,o),
(360,278,cs),
(362,256,l),
(325,261,o),
(291,263,o),
(262,263,cs),
(81,263,o),
(35,222,o),
(35,141,cs),
(35,76,o),
(65,9,o),
(110,-22,c),
(118,-23,o),
(127,-23,o),
(135,-23,cs),
(241,-23,o),
(323,36,o),
(367,130,c),
(375,130,l),
(390,-15,l)
);
},
{
closed = 1;
nodes = (
(254,96,o),
(210,89,c),
(200,99,o),
(191,130,o),
(191,153,cs),
(191,179,o),
(199,196,o),
(205,208,c),
(241,214,o),
(271,215,o),
(313,215,cs),
(331,215,o),
(349,214,o),
(366,214,c),
(333,116,o)
);
},
{
closed = 1;
nodes = (
(359,699,o),
(340,657,o),
(296,657,cs),
(256,657,o),
(238,688,o),
(213,732,c),
(160,699,l),
(187,634,o),
(221,556,o),
(294,556,cs),
(352,556,o),
(405,592,o),
(459,683,c),
(375,738,l)
);
}
);
};
layerId = UUID0;
shapes = (
{
ref = a;
},
{
pos = (40,0);
ref = brevecomb;
}
);
width = 580;
}
);
unicode = 259;
},
{
glyphname = acircumflex;
kernLeft = a;
lastChange = "2023-03-01 09:16:35 +0000";
layers = (
{
background = {
shapes = (
{
closed = 1;
nodes = (
(489,-6,l),
(517,270,ls),
(518,277,o),
(519,296,o),
(519,308,cs),
(519,453,o),
(422,512,o),
(276,512,cs),
(202,512,o),
(129,495,o),
(85,477,c),
(129,332,l),
(166,355,o),
(205,365,o),
(240,365,cs),
(302,365,o),
(354,333,o),
(360,278,cs),
(362,256,l),
(325,261,o),
(291,263,o),
(262,263,cs),
(81,263,o),
(35,222,o),
(35,141,cs),
(35,76,o),
(65,9,o),
(110,-22,c),
(118,-23,o),
(127,-23,o),
(135,-23,cs),
(241,-23,o),
(323,36,o),
(367,130,c),
(375,130,l),
(390,-15,l)
);
},
{
closed = 1;
nodes = (
(254,96,o),
(210,89,c),
(200,99,o),
(191,130,o),
(191,153,cs),
(191,179,o),
(199,196,o),
(205,208,c),
(241,214,o),
(271,215,o),
(313,215,cs),
(331,215,o),
(349,214,o),
(366,214,c),
(333,116,o)
);
},
{
closed = 1;
nodes = (
(179,566,l),
(297,631,l),
(373,569,l),
(448,659,l),
(261,751,l),
(145,614,l)
);
}
);
};
layerId = UUID0;
shapes = (
{
ref = a;
},
{
pos = (68,0);
ref = circumflexcomb;
}
);
width = 580;
}
);
unicode = 226;
},
{
glyphname = adieresis;
kernLeft = a;
lastChange = "2023-03-01 09:16:35 +0000";
layers = (
{
background = {
shapes = (
{
closed = 1;
nodes = (
(489,-6,l),
(517,270,ls),
(518,277,o),
(519,296,o),
(519,308,cs),
(519,453,o),
(422,512,o),
(276,512,cs),
(202,512,o),
(129,495,o),
(85,477,c),
(129,332,l),
(166,355,o),
(205,365,o),
(240,365,cs),
(302,365,o),
(354,333,o),
(360,278,cs),
(362,256,l),
(325,261,o),
(291,263,o),
(262,263,cs),
(81,263,o),
(35,222,o),
(35,141,cs),
(35,76,o),
(65,9,o),
(110,-22,c),
(118,-23,o),
(127,-23,o),
(135,-23,cs),
(241,-23,o),
(323,36,o),
(367,130,c),
(375,130,l),
(390,-15,l)
);
},
{
closed = 1;
nodes = (
(254,96,o),
(210,89,c),
(200,99,o),
(191,130,o),
(191,153,cs),
(191,179,o),
(199,196,o),
(205,208,c),
(241,214,o),
(271,215,o),
(313,215,cs),
(331,215,o),
(349,214,o),
(366,214,c),
(333,116,o)
);
},
{
closed = 1;
nodes = (
(144,573,o),
(185,573,cs),
(226,573,o),
(261,611,o),
(261,657,cs),
(261,703,o),
(226,741,o),
(185,741,cs),
(144,741,o),
(109,703,o),
(109,657,cs),
(109,611,o)
);
},
{
closed = 1;
nodes = (
(354,573,o),
(395,573,cs),
(436,573,o),
(471,611,o),
(471,657,cs),
(471,703,o),
(436,741,o),
(395,741,cs),
(354,741,o),
(319,703,o),
(319,657,cs),
(319,611,o)
);
}
);
};
layerId = UUID0;
shapes = (
{
ref = a;
},
{
pos = (81,0);
ref = dieresiscomb;
}
);
width = 580;
}
);
unicode = 228;
},
{
glyphname = agrave;
kernLeft = a;
lastChange = "2023-03-01 09:16:35 +0000";
layers = (
{
background = {
shapes = (
{
closed = 1;
nodes = (
(489,-6,l),
(517,270,ls),
(518,277,o),
(519,296,o),
(519,308,cs),
(519,453,o),
(422,512,o),
(276,512,cs),
(202,512,o),
(129,495,o),
(85,477,c),
(129,332,l),
(166,355,o),
(205,365,o),
(240,365,cs),
(302,365,o),
(354,333,o),
(360,278,cs),
(362,256,l),
(325,261,o),
(291,263,o),
(262,263,cs),
(81,263,o),
(35,222,o),
(35,141,cs),
(35,76,o),
(65,9,o),
(110,-22,c),
(118,-23,o),
(127,-23,o),
(135,-23,cs),
(241,-23,o),
(323,36,o),
(367,130,c),
(375,130,l),
(390,-15,l)
);
},
{
closed = 1;
nodes = (
(254,96,o),
(210,89,c),
(200,99,o),
(191,130,o),
(191,153,cs),
(191,179,o),
(199,196,o),
(205,208,c),
(241,214,o),
(271,215,o),
(313,215,cs),
(331,215,o),
(349,214,o),
(366,214,c),
(333,116,o)
);
},
{
closed = 1;
nodes = (
(171,628,l),
(375,563,l),
(409,631,l),
(231,753,l)
);
}
);
};
layerId = UUID0;
shapes = (
{
ref = a;
},
{
pos = (71,0);
ref = gravecomb;
}
);
width = 580;
}
);
unicode = 224;
},
{
glyphname = amacron;
kernLeft = a;
lastChange = "2023-03-01 09:16:35 +0000";
layers = (
{
background = {
shapes = (
{
closed = 1;
nodes = (
(489,-6,l),
(517,270,ls),
(518,277,o),
(519,296,o),
(519,308,cs),
(519,453,o),
(422,512,o),
(276,512,cs),
(202,512,o),
(129,495,o),
(85,477,c),
(129,332,l),
(166,355,o),
(205,365,o),
(240,365,cs),
(302,365,o),
(354,333,o),
(360,278,cs),
(362,256,l),
(325,261,o),
(291,263,o),
(262,263,cs),
(81,263,o),
(35,222,o),
(35,141,cs),
(35,76,o),
(65,9,o),
(110,-22,c),
(118,-23,o),
(127,-23,o),
(135,-23,cs),
(241,-23,o),
(323,36,o),
(367,130,c),
(375,130,l),
(390,-15,l)
);
},
{
closed = 1;
nodes = (
(254,96,o),
(210,89,c),
(200,99,o),
(191,130,o),
(191,153,cs),
(191,179,o),
(199,196,o),
(205,208,c),
(241,214,o),
(271,215,o),
(313,215,cs),
(331,215,o),
(349,214,o),
(366,214,c),
(333,116,o)
);
},
{
closed = 1;
nodes = (
(444,703,l),
(183,703,l),
(176,584,l),
(437,611,l)
);
}
);
};
layerId = UUID0;
shapes = (
{
ref = a;
},
{
pos = (89,0);
ref = macroncomb;
}
);
width = 580;
}
);
unicode = 257;
},
{
glyphname = aogonek;
kernLeft = a;
lastChange = "2023-03-01 09:16:35 +0000";
layers = (
{
background = {
shapes = (
{
closed = 1;
nodes = (
(489,-6,l),
(517,270,ls),
(518,277,o),
(519,296,o),
(519,308,cs),
(519,453,o),
(422,512,o),
(276,512,cs),
(202,512,o),
(129,495,o),
(85,477,c),
(129,332,l),
(166,355,o),
(205,365,o),
(240,365,cs),
(302,365,o),
(354,333,o),
(360,278,cs),
(362,256,l),
(325,261,o),
(291,263,o),
(262,263,cs),
(81,263,o),
(35,222,o),
(35,141,cs),
(35,76,o),
(65,9,o),
(110,-22,c),
(118,-23,o),
(127,-23,o),
(135,-23,cs),
(241,-23,o),
(323,36,o),
(367,130,c),
(375,130,l),
(390,-15,l)
);
},
{
closed = 1;
nodes = (
(254,96,o),
(210,89,c),
(200,99,o),
(191,130,o),
(191,153,cs),
(191,179,o),
(199,196,o),
(205,208,c),
(241,214,o),
(271,215,o),
(313,215,cs),
(331,215,o),
(349,214,o),
(366,214,c),
(333,116,o)
);
},
{
closed = 1;
nodes = (
(507,-108,o),
(479,-117,o),
(442,-117,cs),
(417,-117,o),
(403,-113,o),
(381,-104,c),
(397,-71,o),
(428,-38,o),
(490,-6,c),
(462,44,l),
(400,9,o),
(320,-38,o),
(320,-108,cs),
(320,-187,o),
(416,-208,o),
(466,-208,cs),
(496,-208,o),
(543,-201,o),
(580,-187,c),
(546,-91,l)
);
}
);
};
layerId = UUID0;
shapes = (
{
ref = a;
},
{
pos = (196,0);
ref = ogonekcomb;
}
);
width = 580;
}
);
unicode = 261;
},
{
glyphname = aring;
kernLeft = a;
lastChange = "2023-03-01 09:16:35 +0000";
layers = (
{
background = {
shapes = (
{
closed = 1;
nodes = (
(489,-6,l),
(517,270,ls),
(518,277,o),
(519,296,o),
(519,308,cs),
(519,453,o),
(422,512,o),
(276,512,cs),
(202,512,o),
(129,495,o),
(85,477,c),
(129,332,l),
(166,355,o),
(205,365,o),
(240,365,cs),
(302,365,o),
(354,333,o),
(360,278,cs),
(362,256,l),
(325,261,o),
(291,263,o),
(262,263,cs),
(81,263,o),
(35,222,o),
(35,141,cs),
(35,76,o),
(65,9,o),
(110,-22,c),
(118,-23,o),
(127,-23,o),
(135,-23,cs),
(241,-23,o),
(323,36,o),
(367,130,c),
(375,130,l),
(390,-15,l)
);
},
{
closed = 1;
nodes = (
(254,96,o),
(210,89,c),
(200,99,o),
(191,130,o),
(191,153,cs),
(191,179,o),
(199,196,o),
(205,208,c),
(241,214,o),
(271,215,o),
(313,215,cs),
(331,215,o),
(349,214,o),
(366,214,c),
(333,116,o)
);
},
{
closed = 1;
nodes = (
(422,717,o),
(401,747,c),
(370,759,o),
(333,765,o),
(307,765,cs),
(229,765,o),
(188,714,o),
(188,651,cs),
(188,615,o),
(193,585,o),
(214,555,c),
(245,543,o),
(282,537,o),
(308,537,cs),
(386,537,o),
(427,588,o),
(427,651,cs),
(427,687,o)
);
},
{
closed = 1;
nodes = (
(343,602,o),
(307,585,c),
(296,585,o),
(276,588,o),
(270,592,c),
(266,604,o),
(263,619,o),
(263,637,cs),
(263,668,o),
(271,700,o),
(307,717,c),
(318,717,o),
(338,714,o),
(344,709,c),
(348,698,o),
(351,682,o),
(351,664,cs),
(351,634,o)
);
}
);
};
layerId = UUID0;
shapes = (
{
ref = a;
},
{
pos = (146,0);
ref = ringcomb;
}
);
width = 580;
}
);
unicode = 229;
},
{
glyphname = aringacute;
kernLeft = a;
lastChange = "2023-03-01 09:16:35 +0000";
layers = (
{
background = {
shapes = (
{
closed = 1;
nodes = (
(489,-6,l),
(517,270,ls),
(518,277,o),
(519,296,o),
(519,308,cs),
(519,453,o),
(422,512,o),
(276,512,cs),
(202,512,o),
(129,495,o),
(85,477,c),
(129,332,l),
(166,355,o),
(205,365,o),
(240,365,cs),
(302,365,o),
(354,333,o),
(360,278,cs),
(362,256,l),
(325,261,o),
(291,263,o),
(262,263,cs),
(81,263,o),
(35,222,o),
(35,141,cs),
(35,76,o),
(65,9,o),
(110,-22,c),
(118,-23,o),
(127,-23,o),
(135,-23,cs),
(241,-23,o),
(323,36,o),
(367,130,c),
(375,130,l),
(390,-15,l)
);
},
{
closed = 1;
nodes = (
(254,96,o),
(210,89,c),
(200,99,o),
(191,130,o),
(191,153,cs),
(191,179,o),
(199,196,o),
(205,208,c),
(241,214,o),
(271,215,o),
(313,215,cs),
(331,215,o),
(349,214,o),
(366,214,c),
(333,116,o)
);
},
{
closed = 1;
nodes = (
(416,694,o),
(409,714,c),
(501,777,l),
(430,853,l),
(363,757,l),
(343,765,o),
(310,765,o),
(298,765,cs),
(220,765,o),
(179,714,o),
(179,651,cs),
(179,615,o),
(184,585,o),
(205,555,c),
(236,543,o),
(273,537,o),
(299,537,cs),
(377,537,o),
(418,588,o),
(418,651,cs),
(418,674,o)
);
},
{
closed = 1;
nodes = (
(334,602,o),
(298,585,c),
(287,585,o),
(267,588,o),
(261,592,c),
(257,604,o),
(254,619,o),
(254,637,cs),
(254,668,o),
(262,700,o),
(298,717,c),
(309,717,o),
(329,714,o),
(335,709,c),
(339,698,o),
(342,682,o),
(342,664,cs),
(342,634,o)
);
}
);
};
layerId = UUID0;
shapes = (
{
closed = 1;
nodes = (
(377,537,o),
(418,588,o),
(418,651,cs),
(418,674,o),
(416,694,o),
(409,714,c),
(501,777,l),
(430,853,l),
(363,757,l),
(343,765,o),
(310,765,o),
(298,765,cs),
(220,765,o),
(179,714,o),
(179,651,cs),
(179,615,o),
(184,585,o),
(205,555,c),
(236,543,o),
(273,537,o),
(299,537,cs)
);
},
{
ref = a;
},
{
closed = 1;
nodes = (
(287,585,o),
(267,588,o),
(261,592,c),
(257,604,o),
(254,619,o),
(254,637,cs),
(254,668,o),
(262,700,o),
(298,717,c),
(309,717,o),
(329,714,o),
(335,709,c),
(339,698,o),
(342,682,o),
(342,664,cs),
(342,634,o),
(334,602,o),
(298,585,c)
);
}
);
width = 580;
}
);
unicode = 507;
},
{
glyphname = atilde;
kernLeft = a;
lastChange = "2023-03-01 09:16:35 +0000";
layers = (
{
background = {
shapes = (
{
closed = 1;
nodes = (
(489,-6,l),
(517,270,ls),
(518,277,o),
(519,296,o),
(519,308,cs),
(519,453,o),
(422,512,o),
(276,512,cs),
(202,512,o),
(129,495,o),
(85,477,c),
(129,332,l),
(166,355,o),
(205,365,o),
(240,365,cs),
(302,365,o),
(354,333,o),
(360,278,cs),
(362,256,l),
(325,261,o),
(291,263,o),
(262,263,cs),
(81,263,o),
(35,222,o),
(35,141,cs),
(35,76,o),
(65,9,o),
(110,-22,c),
(118,-23,o),
(127,-23,o),
(135,-23,cs),
(241,-23,o),
(323,36,o),
(367,130,c),
(375,130,l),
(390,-15,l)
);
},
{
closed = 1;
nodes = (
(254,96,o),
(210,89,c),
(200,99,o),
(191,130,o),
(191,153,cs),
(191,179,o),
(199,196,o),
(205,208,c),
(241,214,o),
(271,215,o),
(313,215,cs),
(331,215,o),
(349,214,o),
(366,214,c),
(333,116,o)
);
},
{
closed = 1;
nodes = (
(365,708,o),
(380,742,c),
(440,726,l),
(429,641,o),
(402,585,o),
(355,585,cs),
(322,585,o),
(285,611,o),
(250,611,cs),
(235,611,o),
(222,600,o),
(207,566,c),
(147,582,l),
(158,667,o),
(185,723,o),
(232,723,cs),
(265,723,o),
(302,697,o),
(337,697,cs),
(352,697,o)
);
}
);
};
layerId = UUID0;
shapes = (
{
ref = a;
},
{
pos = (66,0);
ref = tildecomb;
}
);
width = 580;
}
);
unicode = 227;
},
{
glyphname = ae;
kernLeft = a;
lastChange = "2023-03-01 09:16:35 +0000";
layers = (
{
anchors = (
{
name = bottom;
pos = (430,0);
},
{
name = top;
pos = (440,500);
}
);
background = {
shapes = (
{
closed = 1;
nodes = (
(254,96,o),
(210,89,c),
(200,99,o),
(191,130,o),
(191,153,cs),
(191,179,o),
(199,196,o),
(205,208,c),
(241,214,o),
(271,215,o),
(313,215,cs),
(331,215,o),
(349,214,o),
(366,214,c),
(333,116,o)
);
},
{
closed = 1;
nodes = (
(525,-24,o),
(629,-24,cs),
(682,-24,o),
(739,-18,o),
(793,-1,c),
(763,96,l),
(696,72,o),
(630,63,o),
(567,63,cs),
(534,63,o),
(495,65,o),
(465,69,c),
(465,102,o),
(471,135,o),
(484,167,c),
(514,160,o),
(559,156,o),
(604,156,cs),
(765,156,o),
(804,204,o),
(804,298,cs),
(804,419,o),
(671,497,o),
(562,539,c),
(529,521,o),
(496,491,o),
(466,451,c),
(424,493,o),
(358,512,o),
(276,512,cs),
(202,512,o),
(129,495,o),
(85,477,c),
(129,332,l),
(166,355,o),
(205,365,o),
(240,365,cs),
(302,365,o),
(355,333,o),
(360,278,cs),
(362,256,l),
(325,261,o),
(291,263,o),
(262,263,cs),
(81,263,o),
(35,222,o),
(35,141,cs),
(35,76,o),
(65,9,o),
(110,-22,c),
(118,-23,o),
(127,-23,o),
(135,-23,cs),
(247,-23,o),
(333,44,o),
(375,147,c),
(377,114,o),
(381,78,o),
(390,35,c),
(444,-6,o)
);
},
{
closed = 1;
nodes = (
(693,313,o),
(693,265,cs),
(693,253,o),
(692,240,o),
(690,227,c),
(651,219,o),
(597,213,o),
(546,213,cs),
(532,213,o),
(517,213,o),
(504,214,c),
(540,277,o),
(585,330,o),
(660,380,c),
(678,350,o)
);
}
);
};
layerId = UUID0;
shapes = (
{
closed = 1;
nodes = (
(682,-24,o),
(739,-18,o),
(793,-1,c),
(763,96,l),
(696,72,o),
(630,63,o),
(567,63,cs),
(534,63,o),
(495,65,o),
(465,69,c),
(465,102,o),
(471,135,o),
(484,167,c),
(514,160,o),
(559,156,o),
(604,156,cs),
(765,156,o),
(804,204,o),
(804,298,cs),
(804,419,o),
(671,497,o),
(562,539,c),
(529,521,o),
(496,491,o),
(466,451,c),
(424,493,o),
(358,512,o),
(276,512,cs),
(202,512,o),
(129,495,o),
(85,477,c),
(129,332,l),
(166,355,o),
(205,365,o),
(240,365,cs),
(302,365,o),
(355,333,o),
(360,278,cs),
(362,256,l),
(325,261,o),
(291,263,o),
(262,263,cs),
(81,263,o),
(35,222,o),
(35,141,cs),
(35,76,o),
(65,9,o),
(110,-22,c),
(118,-23,o),
(127,-23,o),
(135,-23,cs),
(247,-23,o),
(333,44,o),
(375,147,c),
(377,114,o),
(381,78,o),
(390,35,c),
(444,-6,o),
(525,-24,o),
(629,-24,cs)
);
},
{
closed = 1;
nodes = (
(200,99,o),
(191,130,o),
(191,153,cs),
(191,179,o),
(199,196,o),
(205,208,c),
(241,214,o),
(271,215,o),
(313,215,cs),
(331,215,o),
(349,214,o),
(366,214,c),
(333,116,o),
(254,96,o),
(210,89,c)
);
},
{
closed = 1;
nodes = (
(532,213,o),
(517,213,o),
(504,214,c),
(540,277,o),
(585,330,o),
(660,380,c),
(678,350,o),
(693,313,o),
(693,265,cs),
(693,253,o),
(692,240,o),
(690,227,c),
(651,219,o),
(597,213,o),
(546,213,cs)
);
}
);
width = 859;
}
);
unicode = 230;
},
{
glyphname = aeacute;
kernLeft = a;
lastChange = "2023-03-01 09:16:35 +0000";
layers = (
{
background = {
shapes = (
{
closed = 1;
nodes = (
(254,96,o),
(210,89,c),
(200,99,o),
(191,130,o),
(191,153,cs),
(191,179,o),
(199,196,o),
(205,208,c),
(241,214,o),
(271,215,o),
(313,215,cs),
(331,215,o),
(349,214,o),
(366,214,c),
(333,116,o)
);
},
{
closed = 1;
nodes = (
(525,-24,o),
(629,-24,cs),
(682,-24,o),
(739,-18,o),
(793,-1,c),
(763,96,l),
(696,72,o),
(630,63,o),
(567,63,cs),
(534,63,o),
(495,65,o),
(465,69,c),
(465,102,o),
(471,135,o),
(484,167,c),
(514,160,o),
(559,156,o),
(604,156,cs),
(765,156,o),
(804,204,o),
(804,298,cs),
(804,419,o),
(671,497,o),
(562,539,c),
(529,521,o),
(496,491,o),
(466,451,c),
(424,493,o),
(358,512,o),
(276,512,cs),
(202,512,o),
(129,495,o),
(85,477,c),
(129,332,l),
(166,355,o),
(205,365,o),
(240,365,cs),
(302,365,o),
(355,333,o),
(360,278,cs),
(362,256,l),
(325,261,o),
(291,263,o),
(262,263,cs),
(81,263,o),
(35,222,o),
(35,141,cs),
(35,76,o),
(65,9,o),
(110,-22,c),
(118,-23,o),
(127,-23,o),
(135,-23,cs),
(247,-23,o),
(333,44,o),
(375,147,c),
(377,114,o),
(381,78,o),
(390,35,c),
(444,-6,o)
);
},
{
closed = 1;
nodes = (
(693,313,o),
(693,265,cs),
(693,253,o),
(692,240,o),
(690,227,c),
(651,219,o),
(597,213,o),
(546,213,cs),
(532,213,o),
(517,213,o),
(504,214,c),
(540,277,o),
(585,330,o),
(660,380,c),
(678,350,o)
);
},
{
closed = 1;
nodes = (
(358,563,l),
(562,628,l),
(502,753,l),
(324,631,l)
);
}
);
};
layerId = UUID0;
shapes = (
{
ref = ae;
},
{
pos = (191,0);
ref = acutecomb;
}
);
width = 859;
}
);
unicode = 509;
},
{
glyphname = b;
lastChange = "2023-03-01 09:16:35 +0000";
layers = (
{
anchors = (
{
name = bottom;
pos = (333,0);
},
{
name = center;
pos = (333,250);
},
{
name = top;
pos = (333,500);
}
);
background = {
shapes = (
{
closed = 1;
nodes = (
(195,-11,o),
(274,-24,o),
(336,-24,cs),
(532,-24,o),
(582,54,o),
(582,207,cs),
(582,332,o),
(549,459,o),
(501,517,c),
(489,521,o),
(477,523,o),
(465,523,cs),
(384,523,o),
(309,440,o),
(257,315,c),
(248,315,l),
(284,716,l),
(70,683,l),
(117,28,l)
);
},
{
closed = 1;
nodes = (
(413,283,o),
(413,216,cs),
(413,135,o),
(405,88,o),
(398,52,c),
(359,42,o),
(326,40,o),
(281,40,cs),
(262,40,o),
(242,41,o),
(224,43,c),
(262,329,o),
(345,385,o),
(393,404,c),
(403,375,o)
);
}
);
};
layerId = UUID0;
shapes = (
{
closed = 1;
nodes = (
(532,-24,o),
(582,54,o),
(582,207,cs),
(582,332,o),
(549,459,o),
(501,517,c),
(489,521,o),
(477,523,o),
(465,523,cs),
(384,523,o),
(309,440,o),
(257,315,c),
(248,315,l),
(284,716,l),
(70,683,l),
(117,28,l),
(195,-11,o),
(274,-24,o),
(336,-24,cs)
);
},
{
closed = 1;
nodes = (
(262,40,o),
(242,41,o),
(224,43,c),
(262,329,o),
(345,385,o),
(393,404,c),
(403,375,o),
(413,283,o),
(413,216,cs),
(413,135,o),
(405,88,o),
(398,52,c),
(359,42,o),
(326,40,o),
(281,40,cs)
);
}
);
width = 665;
}
);
unicode = 98;
},
{
glyphname = c;
kernLeft = c;
lastChange = "2023-03-01 09:16:35 +0000";
layers = (
{
anchors = (
{
name = bottom;
pos = (230,0);
},
{
name = top;
pos = (250,500);
}
);
background = {
shapes = (
{
closed = 1;
nodes = (
(147,489,o),
(50,347,o),
(50,169,cs),
(50,130,o),
(54,88,o),
(65,35,c),
(105,1,o),
(188,-24,o),
(284,-24,cs),
(333,-24,o),
(386,-18,o),
(438,-1,c),
(408,96,l),
(346,72,o),
(285,63,o),
(227,63,cs),
(197,63,o),
(168,65,o),
(140,69,c),
(140,207,o),
(244,337,o),
(410,426,c),
(237,539,l)
);
}
);
};
layerId = UUID0;
shapes = (
{
closed = 1;
nodes = (
(333,-24,o),
(386,-18,o),
(438,-1,c),
(408,96,l),
(346,72,o),
(285,63,o),
(227,63,cs),
(197,63,o),
(168,65,o),
(140,69,c),
(140,207,o),
(244,337,o),
(410,426,c),
(237,539,l),
(147,489,o),
(50,347,o),
(50,169,cs),
(50,130,o),
(54,88,o),
(65,35,c),
(105,1,o),
(188,-24,o),
(284,-24,cs)
);
}
);
width = 460;
}
);
unicode = 99;
},
{
glyphname = cacute;
kernLeft = c;
lastChange = "2023-03-01 09:16:35 +0000";
layers = (
{
background = {
shapes = (
{
closed = 1;
nodes = (
(147,489,o),
(50,347,o),
(50,169,cs),
(50,130,o),
(54,88,o),
(65,35,c),
(105,1,o),
(188,-24,o),
(284,-24,cs),
(333,-24,o),
(386,-18,o),
(438,-1,c),
(408,96,l),
(346,72,o),
(285,63,o),
(227,63,cs),
(197,63,o),
(168,65,o),
(140,69,c),
(140,207,o),
(244,337,o),
(410,426,c),
(237,539,l)
);
},
{
closed = 1;
nodes = (
(178,563,l),
(382,628,l),
(322,753,l),
(144,631,l)
);
}
);
};
layerId = UUID0;
shapes = (
{
ref = c;
},
{
pos = (1,0);
ref = acutecomb;
}
);
width = 460;
}
);
unicode = 263;
},
{
glyphname = ccaron;
kernLeft = c;
lastChange = "2023-03-01 09:16:35 +0000";
layers = (
{
background = {
shapes = (
{
closed = 1;
nodes = (
(147,489,o),
(50,347,o),
(50,169,cs),
(50,130,o),
(54,88,o),
(65,35,c),
(105,1,o),
(188,-24,o),
(284,-24,cs),
(333,-24,o),
(386,-18,o),
(438,-1,c),
(408,96,l),
(346,72,o),
(285,63,o),
(227,63,cs),
(197,63,o),
(168,65,o),
(140,69,c),
(140,207,o),
(244,337,o),
(410,426,c),
(237,539,l)
);
},
{
closed = 1;
nodes = (
(347,738,l),
(271,676,l),
(153,741,l),
(119,693,l),
(235,556,l),
(422,648,l)
);
}
);
};
layerId = UUID0;
shapes = (
{
ref = c;
},
{
pos = (18,0);
ref = caroncomb;
}
);
width = 460;
}
);
unicode = 269;
},
{
glyphname = ccedilla;
kernLeft = c;
lastChange = "2023-03-01 09:16:35 +0000";
layers = (
{
background = {
shapes = (
{
closed = 1;
nodes = (
(147,489,o),
(50,347,o),
(50,169,cs),
(50,130,o),
(54,88,o),
(65,35,c),
(105,1,o),
(188,-24,o),
(284,-24,cs),
(333,-24,o),
(386,-18,o),
(438,-1,c),
(408,96,l),
(346,72,o),
(285,63,o),
(227,63,cs),
(197,63,o),
(168,65,o),
(140,69,c),
(140,207,o),
(244,337,o),
(410,426,c),
(237,539,l)
);
},
{
closed = 1;
nodes = (
(137,-201,o),
(184,-208,o),
(214,-208,cs),
(264,-208,o),
(360,-187,o),
(360,-108,cs),
(360,-38,o),
(280,9,o),
(218,44,c),
(190,-6,l),
(252,-38,o),
(283,-71,o),
(299,-104,c),
(277,-113,o),
(263,-117,o),
(238,-117,cs),
(201,-117,o),
(173,-108,o),
(134,-91,c),
(100,-187,l)
);
}
);
};
layerId = UUID0;
shapes = (
{
ref = c;
},
{
pos = (-24,0);
ref = cedillacomb;
}
);
width = 460;
}
);
unicode = 231;
},
{
glyphname = ccircumflex;
kernLeft = c;
lastChange = "2023-03-01 09:16:35 +0000";
layers = (
{
background = {
shapes = (
{
closed = 1;
nodes = (
(147,489,o),
(50,347,o),
(50,169,cs),
(50,130,o),
(54,88,o),
(65,35,c),
(105,1,o),
(188,-24,o),
(284,-24,cs),
(333,-24,o),
(386,-18,o),
(438,-1,c),
(408,96,l),
(346,72,o),
(285,63,o),
(227,63,cs),
(197,63,o),
(168,65,o),
(140,69,c),
(140,207,o),
(244,337,o),
(410,426,c),
(237,539,l)
);
},
{
closed = 1;
nodes = (
(132,566,l),
(250,631,l),
(326,569,l),
(401,659,l),
(214,751,l),
(98,614,l)
);
}
);
};
layerId = UUID0;
shapes = (
{
ref = c;
},
{
pos = (18,0);
ref = circumflexcomb;
}
);
width = 460;
}
);
unicode = 265;
},
{
glyphname = cdotaccent;
kernLeft = c;
lastChange = "2023-03-01 09:16:35 +0000";
layers = (
{
background = {
shapes = (
{
closed = 1;
nodes = (
(147,489,o),
(50,347,o),
(50,169,cs),
(50,130,o),
(54,88,o),
(65,35,c),
(105,1,o),
(188,-24,o),
(284,-24,cs),
(333,-24,o),
(386,-18,o),
(438,-1,c),
(408,96,l),
(346,72,o),
(285,63,o),
(227,63,cs),
(197,63,o),
(168,65,o),
(140,69,c),
(140,207,o),
(244,337,o),
(410,426,c),
(237,539,l)
);
},
{
closed = 1;
nodes = (
(337,641,o),
(328,605,c),
(299,594,o),
(256,588,o),
(217,588,cs),
(198,588,o),
(179,589,o),
(163,593,c),
(163,635,o),
(172,684,o),
(191,721,c),
(240,733,o),
(290,733,o),
(340,733,c),
(340,677,o)
);
}
);
};
layerId = UUID0;
shapes = (
{
ref = c;
},
{
pos = (94,0);
ref = dotaccentcomb;
}
);
width = 460;
}
);
unicode = 267;
},
{
glyphname = d;
lastChange = "2023-03-01 09:16:35 +0000";
layers = (
{
anchors = (
{
name = bottom;
pos = (351,0);
},
{
name = center;
pos = (351,250);
},
{
name = top;
pos = (351,683);
},
{
name = topright;
pos = (751,683);
}
);
background = {
shapes = (
{
closed = 1;
nodes = (
(567,-6,l),
(631,716,l),
(417,683,l),
(432,468,l),
(392,484,o),
(343,496,o),
(291,496,cs),
(133,496,o),
(83,418,o),
(83,265,cs),
(83,140,o),
(116,35,o),
(165,-15,c),
(173,-19,o),
(197,-23,o),
(205,-23,cs),
(305,-23,o),
(392,29,o),
(447,157,c),
(455,157,l),
(468,-15,l)
);
},
{
closed = 1;
nodes = (
(441,368,o),
(441,353,cs),
(441,136,o),
(324,68,o),
(273,58,c),
(263,87,o),
(253,179,o),
(253,246,cs),
(253,327,o),
(260,386,o),
(267,422,c),
(284,431,o),
(306,436,o),
(330,436,cs),
(367,436,o),
(409,424,o),
(439,400,c),
(440,384,o)
);
}
);
};
layerId = UUID0;
shapes = (
{
closed = 1;
nodes = (
(305,-23,o),
(392,29,o),
(447,157,c),
(455,157,l),
(468,-15,l),
(567,-6,l),
(631,716,l),
(417,683,l),
(432,468,l),
(392,484,o),
(343,496,o),
(291,496,cs),
(133,496,o),
(83,418,o),
(83,265,cs),
(83,140,o),
(116,35,o),
(165,-15,c),
(173,-19,o),
(197,-23,o),
(205,-23,cs)
);
},
{
closed = 1;
nodes = (
(263,87,o),
(253,179,o),
(253,246,cs),
(253,327,o),
(260,386,o),
(267,422,c),
(284,431,o),
(306,436,o),
(330,436,cs),
(367,436,o),
(409,424,o),
(439,400,c),
(440,384,o),
(441,368,o),
(441,353,cs),
(441,136,o),
(324,68,o),
(273,58,c)
);
}
);
width = 701;
}
);
unicode = 100;
},
{
glyphname = eth;
lastChange = "2023-03-01 09:16:35 +0000";
layers = (
{
background = {
shapes = (
{
closed = 1;
nodes = (
(318,45,o),
(292,45,cs),
(274,45,o),
(256,48,o),
(239,52,c),
(232,78,o),
(224,111,o),
(224,169,cs),
(224,217,o),
(227,283,o),
(239,304,c),
(280,290,o),
(345,247,o),
(375,66,c),
(344,51,o)
);
},
{
closed = 1;
nodes = (
(332,326,o),
(266,377,o),
(191,377,cs),
(172,377,o),
(151,374,o),
(131,367,c),
(83,320,o),
(50,266,o),
(50,164,cs),
(50,40,o),
(100,-24,o),
(271,-24,cs),
(365,-24,o),
(450,4,o),
(495,41,c),
(507,100,o),
(512,155,o),
(512,207,cs),
(512,444,o),
(394,654,o),
(294,720,c),
(142,619,l),
(216,551,o),
(349,366,o),
(385,235,c),
(373,228,l)
);
},
{
closed = 1;
nodes = (
(490,666,l),
(139,497,l),
(176,422,l),
(515,615,l)
);
}
);
};
layerId = UUID0;
shapes = (
{
closed = 1;
nodes = (
(365,-24,o),
(450,4,o),
(495,41,c),
(507,100,o),
(512,155,o),
(512,207,cs),
(512,444,o),
(394,654,o),
(294,720,c),
(142,619,l),
(216,551,o),
(349,366,o),
(385,235,c),
(373,228,l),
(332,326,o),
(266,377,o),
(191,377,cs),
(172,377,o),
(151,374,o),
(131,367,c),
(83,320,o),
(50,266,o),
(50,164,cs),
(50,40,o),
(100,-24,o),
(271,-24,cs)
);
},
{
closed = 1;
nodes = (
(274,45,o),
(256,48,o),
(239,52,c),
(232,78,o),
(224,111,o),
(224,169,cs),
(224,217,o),
(227,283,o),
(239,304,c),
(280,290,o),
(345,247,o),
(375,66,c),
(344,51,o),
(318,45,o),
(292,45,cs)
);
},
{
closed = 1;
nodes = (
(515,615,l),
(490,666,l),
(139,497,l),
(176,422,l)
);
}
);
width = 585;
}
);
unicode = 240;
},
{
glyphname = dcaron;
lastChange = "2023-03-01 09:16:35 +0000";
layers = (
{
background = {
shapes = (
{
closed = 1;
nodes = (
(567,-6,l),
(631,716,l),
(417,683,l),
(432,468,l),
(392,484,o),
(343,496,o),
(291,496,cs),
(133,496,o),
(83,418,o),
(83,265,cs),
(83,140,o),
(116,35,o),
(165,-15,c),
(173,-19,o),
(197,-23,o),
(205,-23,cs),
(305,-23,o),
(392,29,o),
(447,157,c),
(455,157,l),
(468,-15,l)
);
},
{
closed = 1;
nodes = (
(441,368,o),
(441,353,cs),
(441,136,o),
(324,68,o),
(273,58,c),
(263,87,o),
(253,179,o),
(253,246,cs),
(253,327,o),
(260,386,o),
(267,422,c),
(284,431,o),
(306,436,o),
(330,436,cs),
(367,436,o),
(409,424,o),
(439,400,c),
(440,384,o)
);
},
{
closed = 1;
nodes = (
(757,647,o),
(747,619,o),
(711,590,c),
(765,539,l),
(820,588,o),
(840,647,o),
(840,721,cs),
(840,746,o),
(838,770,o),
(834,792,c),
(819,808,o),
(790,819,o),
(757,819,cs),
(698,819,o),
(682,792,o),
(682,740,cs),
(682,692,o),
(700,661,o),
(729,661,cs),
(742,661,o),
(751,665,o),
(758,671,c),
(762,669,l)
);
}
);
};
layerId = UUID0;
shapes = (
{
ref = d;
},
{
pos = (627,-23);
ref = caroncomb.alt;
}
);
width = 701;
}
);
unicode = 271;
},
{
glyphname = dcroat;
lastChange = "2023-03-01 09:16:35 +0000";
layers = (
{
background = {
shapes = (
{
closed = 1;
nodes = (
(567,-6,l),
(631,716,l),
(417,683,l),
(432,468,l),
(392,484,o),
(343,496,o),
(291,496,cs),
(133,496,o),
(83,418,o),
(83,265,cs),
(83,140,o),
(116,35,o),
(165,-15,c),
(173,-19,o),
(197,-23,o),
(205,-23,cs),
(305,-23,o),
(392,29,o),
(447,157,c),
(455,157,l),
(468,-15,l)
);
},
{
closed = 1;
nodes = (
(441,368,o),
(441,353,cs),
(441,136,o),
(324,68,o),
(273,58,c),
(263,87,o),
(253,179,o),
(253,246,cs),
(253,327,o),
(260,386,o),
(267,422,c),
(284,431,o),
(306,436,o),
(330,436,cs),
(367,436,o),
(409,424,o),
(439,400,c),
(440,384,o)
);
},
{
closed = 1;
nodes = (
(709,650,l),
(337,650,l),
(327,570,l),
(699,597,l)
);
}
);
};
layerId = UUID0;
shapes = (
{
closed = 1;
nodes = (
(699,597,l),
(709,650,l),
(337,650,l),
(327,570,l)
);
},
{
alignment = -1;
ref = d;
}
);
width = 701;
}
);
unicode = 273;
},
{
glyphname = e;
kernLeft = c;
lastChange = "2023-03-01 09:16:35 +0000";
layers = (
{
anchors = (
{
name = bottom;
pos = (267,0);
},
{
name = ogonek;
pos = (541,44);
},
{
name = top;
pos = (303,500);
}
);
background = {
shapes = (
{
closed = 1;
nodes = (
(50,347,o),
(50,169,cs),
(50,130,o),
(54,88,o),
(66,35,c),
(119,-6,o),
(200,-24,o),
(304,-24,cs),
(357,-24,o),
(414,-18,o),
(468,-1,c),
(438,96,l),
(371,72,o),
(305,63,o),
(242,63,cs),
(209,63,o),
(170,65,o),
(140,69,c),
(140,102,o),
(146,135,o),
(159,167,c),
(189,160,o),
(234,156,o),
(279,156,cs),
(440,156,o),
(479,204,o),
(479,298,cs),
(479,419,o),
(346,497,o),
(237,539,c),
(144,487,o)
);
},
{
closed = 1;
nodes = (
(368,313,o),
(368,265,cs),
(368,253,o),
(367,240,o),
(365,227,c),
(326,219,o),
(272,213,o),
(221,213,cs),
(207,213,o),
(192,213,o),
(179,214,c),
(215,277,o),
(260,330,o),
(335,380,c),
(353,350,o)
);
}
);
};
layerId = UUID0;
shapes = (
{
closed = 1;
nodes = (
(357,-24,o),
(414,-18,o),
(468,-1,c),
(438,96,l),
(371,72,o),
(305,63,o),
(242,63,cs),
(209,63,o),
(170,65,o),
(140,69,c),
(140,102,o),
(146,135,o),
(159,167,c),
(189,160,o),
(234,156,o),
(279,156,cs),
(440,156,o),
(479,204,o),
(479,298,cs),
(479,419,o),
(346,497,o),
(237,539,c),
(144,487,o),
(50,347,o),
(50,169,cs),
(50,130,o),
(54,88,o),
(66,35,c),
(119,-6,o),
(200,-24,o),
(304,-24,cs)
);
},
{
closed = 1;
nodes = (
(207,213,o),
(192,213,o),
(179,214,c),
(215,277,o),
(260,330,o),
(335,380,c),
(353,350,o),
(368,313,o),
(368,265,cs),
(368,253,o),
(367,240,o),
(365,227,c),
(326,219,o),
(272,213,o),
(221,213,cs)
);
}
);
width = 534;
}
);
unicode = 101;
},
{
glyphname = eacute;
kernLeft = c;
lastChange = "2023-03-01 09:16:35 +0000";
layers = (
{
background = {
shapes = (
{
closed = 1;
nodes = (
(50,347,o),
(50,169,cs),
(50,130,o),
(54,88,o),
(66,35,c),
(119,-6,o),
(200,-24,o),
(304,-24,cs),
(357,-24,o),
(414,-18,o),
(468,-1,c),
(438,96,l),
(371,72,o),
(305,63,o),
(242,63,cs),
(209,63,o),
(170,65,o),
(140,69,c),
(140,102,o),
(146,135,o),
(159,167,c),
(189,160,o),
(234,156,o),
(279,156,cs),
(440,156,o),
(479,204,o),
(479,298,cs),
(479,419,o),
(346,497,o),
(237,539,c),
(144,487,o)
);
},
{
closed = 1;
nodes = (
(368,313,o),
(368,265,cs),
(368,253,o),
(367,240,o),
(365,227,c),
(326,219,o),
(272,213,o),
(221,213,cs),
(207,213,o),
(192,213,o),
(179,214,c),
(215,277,o),
(260,330,o),
(335,380,c),
(353,350,o)
);
},
{
closed = 1;
nodes = (
(217,563,l),
(421,628,l),
(361,753,l),
(183,631,l)
);
}
);
};
layerId = UUID0;
shapes = (
{
ref = e;
},
{
pos = (54,0);
ref = acutecomb;
}
);
width = 534;
}
);
unicode = 233;
},
{
glyphname = ebreve;
kernLeft = c;
lastChange = "2023-03-01 09:16:35 +0000";
layers = (
{
background = {
shapes = (
{
closed = 1;
nodes = (
(50,347,o),
(50,169,cs),
(50,130,o),
(54,88,o),
(66,35,c),
(119,-6,o),
(200,-24,o),
(304,-24,cs),
(357,-24,o),
(414,-18,o),
(468,-1,c),
(438,96,l),
(371,72,o),
(305,63,o),
(242,63,cs),
(209,63,o),
(170,65,o),
(140,69,c),
(140,102,o),
(146,135,o),
(159,167,c),
(189,160,o),
(234,156,o),
(279,156,cs),
(440,156,o),
(479,204,o),
(479,298,cs),
(479,419,o),
(346,497,o),
(237,539,c),
(144,487,o)
);
},
{
closed = 1;
nodes = (
(368,313,o),
(368,265,cs),
(368,253,o),
(367,240,o),
(365,227,c),
(326,219,o),
(272,213,o),
(221,213,cs),
(207,213,o),
(192,213,o),
(179,214,c),
(215,277,o),
(260,330,o),
(335,380,c),
(353,350,o)
);
},
{
closed = 1;
nodes = (
(352,699,o),
(333,657,o),
(289,657,cs),
(249,657,o),
(231,688,o),
(206,732,c),
(153,699,l),
(180,634,o),
(214,556,o),
(287,556,cs),
(345,556,o),
(398,592,o),
(452,683,c),
(368,738,l)
);
}
);
};
layerId = UUID0;
shapes = (
{
ref = e;
},
{
pos = (43,0);
ref = brevecomb;
}
);
width = 534;
}
);
unicode = 277;
},
{
glyphname = ecaron;
kernLeft = c;
lastChange = "2023-03-01 09:16:35 +0000";
layers = (
{
background = {
shapes = (
{
closed = 1;
nodes = (
(50,347,o),
(50,169,cs),
(50,130,o),
(54,88,o),
(66,35,c),
(119,-6,o),
(200,-24,o),
(304,-24,cs),
(357,-24,o),
(414,-18,o),
(468,-1,c),
(438,96,l),
(371,72,o),
(305,63,o),
(242,63,cs),
(209,63,o),
(170,65,o),
(140,69,c),
(140,102,o),
(146,135,o),
(159,167,c),
(189,160,o),
(234,156,o),
(279,156,cs),
(440,156,o),
(479,204,o),
(479,298,cs),
(479,419,o),
(346,497,o),
(237,539,c),
(144,487,o)
);
},
{
closed = 1;
nodes = (
(368,313,o),
(368,265,cs),
(368,253,o),
(367,240,o),
(365,227,c),
(326,219,o),
(272,213,o),
(221,213,cs),
(207,213,o),
(192,213,o),
(179,214,c),
(215,277,o),
(260,330,o),
(335,380,c),
(353,350,o)
);
},
{
closed = 1;
nodes = (
(378,738,l),
(302,676,l),
(184,741,l),
(150,693,l),
(266,556,l),
(453,648,l)
);
}
);
};
layerId = UUID0;
shapes = (
{
ref = e;
},
{
pos = (71,0);
ref = caroncomb;
}
);
width = 534;
}
);
unicode = 283;
},
{
glyphname = ecircumflex;
kernLeft = c;
lastChange = "2023-03-01 09:16:35 +0000";
layers = (
{
background = {
shapes = (
{
closed = 1;
nodes = (
(50,347,o),
(50,169,cs),
(50,130,o),
(54,88,o),
(66,35,c),
(119,-6,o),
(200,-24,o),
(304,-24,cs),
(357,-24,o),
(414,-18,o),
(468,-1,c),
(438,96,l),
(371,72,o),
(305,63,o),
(242,63,cs),
(209,63,o),
(170,65,o),
(140,69,c),
(140,102,o),
(146,135,o),
(159,167,c),
(189,160,o),
(234,156,o),
(279,156,cs),
(440,156,o),
(479,204,o),
(479,298,cs),
(479,419,o),
(346,497,o),
(237,539,c),
(144,487,o)
);
},
{
closed = 1;
nodes = (
(368,313,o),
(368,265,cs),
(368,253,o),
(367,240,o),
(365,227,c),
(326,219,o),
(272,213,o),
(221,213,cs),
(207,213,o),
(192,213,o),
(179,214,c),
(215,277,o),
(260,330,o),
(335,380,c),
(353,350,o)
);
},
{
closed = 1;
nodes = (
(184,566,l),
(302,631,l),
(378,569,l),
(453,659,l),
(266,751,l),
(150,614,l)
);
}
);
};
layerId = UUID0;
shapes = (
{
ref = e;
},
{
pos = (71,0);
ref = circumflexcomb;
}
);
width = 534;
}
);
unicode = 234;
},
{
glyphname = edieresis;
kernLeft = c;
lastChange = "2023-03-01 09:16:35 +0000";
layers = (
{
background = {
shapes = (
{
closed = 1;
nodes = (
(50,347,o),
(50,169,cs),
(50,130,o),
(54,88,o),
(66,35,c),
(119,-6,o),
(200,-24,o),
(304,-24,cs),
(357,-24,o),
(414,-18,o),
(468,-1,c),
(438,96,l),
(371,72,o),
(305,63,o),
(242,63,cs),
(209,63,o),
(170,65,o),
(140,69,c),
(140,102,o),
(146,135,o),
(159,167,c),
(189,160,o),
(234,156,o),
(279,156,cs),
(440,156,o),
(479,204,o),
(479,298,cs),
(479,419,o),
(346,497,o),
(237,539,c),
(144,487,o)
);
},
{
closed = 1;
nodes = (
(368,313,o),
(368,265,cs),
(368,253,o),
(367,240,o),
(365,227,c),
(326,219,o),
(272,213,o),
(221,213,cs),
(207,213,o),
(192,213,o),
(179,214,c),
(215,277,o),
(260,330,o),
(335,380,c),
(353,350,o)
);
},
{
closed = 1;
nodes = (
(156,573,o),
(197,573,cs),
(238,573,o),
(273,611,o),
(273,657,cs),
(273,703,o),
(238,741,o),
(197,741,cs),
(156,741,o),
(121,703,o),
(121,657,cs),
(121,611,o)
);
},
{
closed = 1;
nodes = (
(366,573,o),
(407,573,cs),
(448,573,o),
(483,611,o),
(483,657,cs),
(483,703,o),
(448,741,o),
(407,741,cs),
(366,741,o),
(331,703,o),
(331,657,cs),
(331,611,o)
);
}
);
};
layerId = UUID0;
shapes = (
{
ref = e;
},
{
pos = (84,0);
ref = dieresiscomb;
}
);
width = 534;
}
);
unicode = 235;
},
{
glyphname = edotaccent;
kernLeft = c;
lastChange = "2023-03-01 09:16:35 +0000";
layers = (
{
background = {
shapes = (
{
closed = 1;
nodes = (
(50,347,o),
(50,169,cs),
(50,130,o),
(54,88,o),
(66,35,c),
(119,-6,o),
(200,-24,o),
(304,-24,cs),
(357,-24,o),
(414,-18,o),
(468,-1,c),
(438,96,l),
(371,72,o),
(305,63,o),
(242,63,cs),
(209,63,o),
(170,65,o),
(140,69,c),
(140,102,o),
(146,135,o),
(159,167,c),
(189,160,o),
(234,156,o),
(279,156,cs),
(440,156,o),
(479,204,o),
(479,298,cs),
(479,419,o),
(346,497,o),
(237,539,c),
(144,487,o)
);
},
{
closed = 1;
nodes = (
(368,313,o),
(368,265,cs),
(368,253,o),
(367,240,o),
(365,227,c),
(326,219,o),
(272,213,o),
(221,213,cs),
(207,213,o),
(192,213,o),
(179,214,c),
(215,277,o),
(260,330,o),
(335,380,c),
(353,350,o)
);
},
{
closed = 1;
nodes = (
(387,641,o),
(378,605,c),
(349,594,o),
(306,588,o),
(267,588,cs),
(248,588,o),
(229,589,o),
(213,593,c),
(213,635,o),
(222,684,o),
(241,721,c),
(290,733,o),
(340,733,o),
(390,733,c),
(390,677,o)
);
}
);
};
layerId = UUID0;
shapes = (
{
ref = e;
},
{
pos = (147,0);
ref = dotaccentcomb;
}
);
width = 534;
}
);
unicode = 279;
},
{
glyphname = egrave;
kernLeft = c;
lastChange = "2023-03-01 09:16:35 +0000";
layers = (
{
background = {
shapes = (
{
closed = 1;
nodes = (
(50,347,o),
(50,169,cs),
(50,130,o),
(54,88,o),
(66,35,c),
(119,-6,o),
(200,-24,o),
(304,-24,cs),
(357,-24,o),
(414,-18,o),
(468,-1,c),
(438,96,l),
(371,72,o),
(305,63,o),
(242,63,cs),
(209,63,o),
(170,65,o),
(140,69,c),
(140,102,o),
(146,135,o),
(159,167,c),
(189,160,o),
(234,156,o),
(279,156,cs),
(440,156,o),
(479,204,o),
(479,298,cs),
(479,419,o),
(346,497,o),
(237,539,c),
(144,487,o)
);
},
{
closed = 1;
nodes = (
(368,313,o),
(368,265,cs),
(368,253,o),
(367,240,o),
(365,227,c),
(326,219,o),
(272,213,o),
(221,213,cs),
(207,213,o),
(192,213,o),
(179,214,c),
(215,277,o),
(260,330,o),
(335,380,c),
(353,350,o)
);
},
{
closed = 1;
nodes = (
(183,628,l),
(387,563,l),
(421,631,l),
(243,753,l)
);
}
);
};
layerId = UUID0;
shapes = (
{
ref = e;
},
{
pos = (74,0);
ref = gravecomb;
}
);
width = 534;
}
);
unicode = 232;
},
{
glyphname = emacron;
kernLeft = c;
lastChange = "2023-03-01 09:16:35 +0000";
layers = (
{
background = {
shapes = (
{
closed = 1;
nodes = (
(50,347,o),
(50,169,cs),
(50,130,o),
(54,88,o),
(66,35,c),
(119,-6,o),
(200,-24,o),
(304,-24,cs),
(357,-24,o),
(414,-18,o),
(468,-1,c),
(438,96,l),
(371,72,o),
(305,63,o),
(242,63,cs),
(209,63,o),
(170,65,o),
(140,69,c),
(140,102,o),
(146,135,o),
(159,167,c),
(189,160,o),
(234,156,o),
(279,156,cs),
(440,156,o),
(479,204,o),
(479,298,cs),
(479,419,o),
(346,497,o),
(237,539,c),
(144,487,o)
);
},
{
closed = 1;
nodes = (
(368,313,o),
(368,265,cs),
(368,253,o),
(367,240,o),
(365,227,c),
(326,219,o),
(272,213,o),
(221,213,cs),
(207,213,o),
(192,213,o),
(179,214,c),
(215,277,o),
(260,330,o),
(335,380,c),
(353,350,o)
);
},
{
closed = 1;
nodes = (
(436,703,l),
(175,703,l),
(168,584,l),
(429,611,l)
);
}
);
};
layerId = UUID0;
shapes = (
{
ref = e;
},
{
pos = (92,0);
ref = macroncomb;
}
);
width = 534;
}
);
unicode = 275;
},
{
glyphname = eogonek;
kernLeft = c;
lastChange = "2023-03-01 09:16:35 +0000";
layers = (
{
background = {
shapes = (
{
closed = 1;
nodes = (
(50,347,o),
(50,169,cs),
(50,130,o),
(54,88,o),
(66,35,c),
(119,-6,o),
(200,-24,o),
(304,-24,cs),
(357,-24,o),
(414,-18,o),
(468,-1,c),
(438,96,l),
(371,72,o),
(305,63,o),
(242,63,cs),
(209,63,o),
(170,65,o),
(140,69,c),
(140,102,o),
(146,135,o),
(159,167,c),
(189,160,o),
(234,156,o),
(279,156,cs),
(440,156,o),
(479,204,o),
(479,298,cs),
(479,419,o),
(346,497,o),
(237,539,c),
(144,487,o)
);
},
{
closed = 1;
nodes = (
(368,313,o),
(368,265,cs),
(368,253,o),
(367,240,o),
(365,227,c),
(326,219,o),
(272,213,o),
(221,213,cs),
(207,213,o),
(192,213,o),
(179,214,c),
(215,277,o),
(260,330,o),
(335,380,c),
(353,350,o)
);
},
{
closed = 1;
nodes = (
(468,-108,o),
(440,-117,o),
(403,-117,cs),
(378,-117,o),
(364,-113,o),
(342,-104,c),
(358,-71,o),
(389,-38,o),
(451,-6,c),
(423,44,l),
(361,9,o),
(281,-38,o),
(281,-108,cs),
(281,-187,o),
(377,-208,o),
(427,-208,cs),
(457,-208,o),
(504,-201,o),
(541,-187,c),
(507,-91,l)
);
}
);
};
layerId = UUID0;
shapes = (
{
ref = e;
},
{
pos = (157,0);
ref = ogonekcomb;
}
);
width = 534;
}
);
unicode = 281;
},
{
glyphname = f;
lastChange = "2023-03-01 09:16:35 +0000";
layers = (
{
anchors = (
{
name = bottom;
pos = (216,0);
},
{
name = top;
pos = (216,683);
}
);
background = {
shapes = (
{
closed = 1;
nodes = (
(230,738,o),
(121,657,o),
(110,463,c),
(20,459,l),
(26,356,l),
(111,369,l),
(151,-15,l),
(250,-6,l),
(299,397,l),
(398,412,l),
(401,479,l),
(236,470,l),
(260,518,o),
(301,556,o),
(366,579,c),
(329,750,l)
);
}
);
};
layerId = UUID0;
shapes = (
{
closed = 1;
nodes = (
(250,-6,l),
(299,397,l),
(398,412,l),
(401,479,l),
(236,470,l),
(260,518,o),
(301,556,o),
(366,579,c),
(329,750,l),
(230,738,o),
(121,657,o),
(110,463,c),
(20,459,l),
(26,356,l),
(111,369,l),
(151,-15,l)
);
}
);
width = 431;
}
);
unicode = 102;
},
{
glyphname = g;
lastChange = "2023-03-01 09:16:35 +0000";
layers = (
{
anchors = (
{
name = bottom;
pos = (360,-208);
},
{
name = top;
pos = (354,500);
}
);
background = {
shapes = (
{
closed = 1;
nodes = (
(441,372,o),
(441,358,cs),
(441,152,o),
(323,87,o),
(273,78,c),
(263,105,o),
(253,193,o),
(253,256,cs),
(253,333,o),
(260,389,o),
(267,423,c),
(284,432,o),
(306,437,o),
(330,437,cs),
(367,437,o),
(409,425,o),
(439,402,c),
(440,386,o)
);
},
{
closed = 1;
nodes = (
(458,485,l),
(436,456,l),
(395,483,o),
(345,496,o),
(291,496,cs),
(133,496,o),
(83,421,o),
(83,274,cs),
(83,154,o),
(116,53,o),
(165,5,c),
(173,1,o),
(197,-3,o),
(205,-3,cs),
(311,-3,o),
(404,54,o),
(457,196,c),
(465,196,l),
(486,-9,o),
(486,-17,o),
(486,-25,cs),
(486,-92,o),
(452,-139,o),
(376,-139,cs),
(335,-139,o),
(284,-126,o),
(225,-100,c),
(197,-150,l),
(268,-197,o),
(330,-220,o),
(403,-220,cs),
(506,-220,o),
(568,-150,o),
(581,-45,cs),
(650,514,l)
);
}
);
};
layerId = UUID0;
shapes = (
{
closed = 1;
nodes = (
(506,-220,o),
(568,-150,o),
(581,-45,cs),
(650,514,l),
(458,485,l),
(436,456,l),
(395,483,o),
(345,496,o),
(291,496,cs),
(133,496,o),
(83,421,o),
(83,274,cs),
(83,154,o),
(116,53,o),
(165,5,c),
(173,1,o),
(197,-3,o),
(205,-3,cs),
(311,-3,o),
(404,54,o),
(457,196,c),
(465,196,l),
(486,-9,o),
(486,-17,o),
(486,-25,cs),
(486,-92,o),
(452,-139,o),
(376,-139,cs),
(335,-139,o),
(284,-126,o),
(225,-100,c),
(197,-150,l),
(268,-197,o),
(330,-220,o),
(403,-220,cs)
);
},
{
closed = 1;
nodes = (
(263,105,o),
(253,193,o),
(253,256,cs),
(253,333,o),
(260,389,o),
(267,423,c),
(284,432,o),
(306,437,o),
(330,437,cs),
(367,437,o),
(409,425,o),
(439,402,c),
(440,386,o),
(441,372,o),
(441,358,cs),
(441,152,o),
(323,87,o),
(273,78,c)
);
}
);
width = 720;
}
);
unicode = 103;
},
{
glyphname = gbreve;
lastChange = "2023-03-01 09:16:35 +0000";
layers = (
{
background = {
shapes = (
{
closed = 1;
nodes = (
(441,372,o),
(441,358,cs),
(441,152,o),
(323,87,o),
(273,78,c),
(263,105,o),
(253,193,o),
(253,256,cs),
(253,333,o),
(260,389,o),
(267,423,c),
(284,432,o),
(306,437,o),
(330,437,cs),
(367,437,o),
(409,425,o),
(439,402,c),
(440,386,o)
);
},
{
closed = 1;
nodes = (
(458,485,l),
(436,456,l),
(395,483,o),
(345,496,o),
(291,496,cs),
(133,496,o),
(83,421,o),
(83,274,cs),
(83,154,o),
(116,53,o),
(165,5,c),
(173,1,o),
(197,-3,o),
(205,-3,cs),
(311,-3,o),
(404,54,o),
(457,196,c),
(465,196,l),
(486,-9,o),
(486,-17,o),
(486,-25,cs),
(486,-92,o),
(452,-139,o),
(376,-139,cs),
(335,-139,o),
(284,-126,o),
(225,-100,c),
(197,-150,l),
(268,-197,o),
(330,-220,o),
(403,-220,cs),
(506,-220,o),
(568,-150,o),
(581,-45,cs),
(650,514,l)
);
},
{
closed = 1;
nodes = (
(409,699,o),
(390,657,o),
(346,657,cs),
(306,657,o),
(288,688,o),
(263,732,c),
(210,699,l),
(237,634,o),
(271,556,o),
(344,556,cs),
(402,556,o),
(455,592,o),
(509,683,c),
(425,738,l)
);
}
);
};
layerId = UUID0;
shapes = (
{
ref = g;
},
{
pos = (94,0);
ref = brevecomb;
}
);
width = 720;
}
);
unicode = 287;
},
{
glyphname = gcircumflex;
lastChange = "2023-03-01 09:16:35 +0000";
layers = (
{
background = {
shapes = (
{
closed = 1;
nodes = (
(441,372,o),
(441,358,cs),
(441,152,o),
(323,87,o),
(273,78,c),
(263,105,o),
(253,193,o),
(253,256,cs),
(253,333,o),
(260,389,o),
(267,423,c),
(284,432,o),
(306,437,o),
(330,437,cs),
(367,437,o),
(409,425,o),
(439,402,c),
(440,386,o)
);
},
{
closed = 1;
nodes = (
(458,485,l),
(436,456,l),
(395,483,o),
(345,496,o),
(291,496,cs),
(133,496,o),
(83,421,o),
(83,274,cs),
(83,154,o),
(116,53,o),
(165,5,c),
(173,1,o),
(197,-3,o),
(205,-3,cs),
(311,-3,o),
(404,54,o),
(457,196,c),
(465,196,l),
(486,-9,o),
(486,-17,o),
(486,-25,cs),
(486,-92,o),
(452,-139,o),
(376,-139,cs),
(335,-139,o),
(284,-126,o),
(225,-100,c),
(197,-150,l),
(268,-197,o),
(330,-220,o),
(403,-220,cs),
(506,-220,o),
(568,-150,o),
(581,-45,cs),
(650,514,l)
);
},
{
closed = 1;
nodes = (
(242,566,l),
(360,631,l),
(436,569,l),
(511,659,l),
(324,751,l),
(208,614,l)
);
}
);
};
layerId = UUID0;
shapes = (
{
ref = g;
},
{
pos = (122,0);
ref = circumflexcomb;
}
);
width = 720;
}
);
unicode = 285;
},
{
glyphname = gcommaaccent;
lastChange = "2023-03-01 09:16:35 +0000";
layers = (
{
background = {
shapes = (
{
closed = 1;
nodes = (
(441,372,o),
(441,358,cs),
(441,152,o),
(323,87,o),
(273,78,c),
(263,105,o),
(253,193,o),
(253,256,cs),
(253,333,o),
(260,389,o),
(267,423,c),
(284,432,o),
(306,437,o),
(330,437,cs),
(367,437,o),
(409,425,o),
(439,402,c),
(440,386,o)
);
},
{
closed = 1;
nodes = (
(458,485,l),
(436,456,l),
(395,483,o),
(345,496,o),
(291,496,cs),
(133,496,o),
(83,421,o),
(83,274,cs),
(83,154,o),
(116,53,o),
(165,5,c),
(173,1,o),
(197,-3,o),
(205,-3,cs),
(311,-3,o),
(404,54,o),
(457,196,c),
(465,196,l),
(486,-9,o),
(486,-17,o),
(486,-25,cs),
(486,-92,o),
(452,-139,o),
(376,-139,cs),
(335,-139,o),
(284,-126,o),
(225,-100,c),
(197,-150,l),
(268,-197,o),
(330,-220,o),
(403,-220,cs),
(506,-220,o),
(568,-150,o),
(581,-45,cs),
(650,514,l)
);
},
{
closed = 1;
nodes = (
(358,720,o),
(368,748,o),
(404,777,c),
(350,828,l),
(295,779,o),
(275,720,o),
(275,646,cs),
(275,621,o),
(277,597,o),
(281,575,c),
(296,559,o),
(325,548,o),
(358,548,cs),
(417,548,o),
(433,575,o),
(433,627,cs),
(433,675,o),
(415,706,o),
(386,706,cs),
(373,706,o),
(364,702,o),
(357,696,c),
(353,698,l)
);
}
);
};
layerId = UUID0;
shapes = (
{
ref = g;
},
{
pos = (195,0);
ref = commaturnedabovecomb;
}
);
width = 720;
}
);
unicode = 291;
},
{
glyphname = gdotaccent;
lastChange = "2023-03-01 09:16:35 +0000";
layers = (
{
background = {
shapes = (
{
closed = 1;
nodes = (
(441,372,o),
(441,358,cs),
(441,152,o),
(323,87,o),
(273,78,c),
(263,105,o),
(253,193,o),
(253,256,cs),
(253,333,o),
(260,389,o),
(267,423,c),
(284,432,o),
(306,437,o),
(330,437,cs),
(367,437,o),
(409,425,o),
(439,402,c),
(440,386,o)
);
},
{
closed = 1;
nodes = (
(458,485,l),
(436,456,l),
(395,483,o),
(345,496,o),
(291,496,cs),
(133,496,o),
(83,421,o),
(83,274,cs),
(83,154,o),
(116,53,o),
(165,5,c),
(173,1,o),
(197,-3,o),
(205,-3,cs),
(311,-3,o),
(404,54,o),
(457,196,c),
(465,196,l),
(486,-9,o),
(486,-17,o),
(486,-25,cs),
(486,-92,o),
(452,-139,o),
(376,-139,cs),
(335,-139,o),
(284,-126,o),
(225,-100,c),
(197,-150,l),
(268,-197,o),
(330,-220,o),
(403,-220,cs),
(506,-220,o),
(568,-150,o),
(581,-45,cs),
(650,514,l)
);
},
{
closed = 1;
nodes = (
(445,641,o),
(436,605,c),
(407,594,o),
(364,588,o),
(325,588,cs),
(306,588,o),
(287,589,o),
(271,593,c),
(271,635,o),
(280,684,o),
(299,721,c),
(348,733,o),
(398,733,o),
(448,733,c),
(448,677,o)
);
}
);
};
layerId = UUID0;
shapes = (
{
ref = g;
},
{
pos = (198,0);
ref = dotaccentcomb;
}
);
width = 720;
}
);
unicode = 289;
},
{
glyphname = h;
lastChange = "2023-03-01 09:16:35 +0000";
layers = (
{
anchors = (
{
name = bottom;
pos = (333,0);
},
{
name = center;
pos = (333,342);
},
{
name = top;
pos = (191,689);
}
);
background = {
shapes = (
{
closed = 1;
nodes = (
(220,-6,l),
(260,324,o),
(345,385,o),
(397,404,c),
(408,282,o),
(414,178,o),
(414,-15,c),
(594,0,l),
(594,133,o),
(583,423,o),
(505,517,c),
(493,521,o),
(481,523,o),
(469,523,cs),
(386,523,o),
(309,436,o),
(256,304,c),
(247,304,l),
(284,716,l),
(70,683,l),
(121,-15,l)
);
}
);
};
layerId = UUID0;
shapes = (
{
closed = 1;
nodes = (
(220,-6,l),
(260,324,o),
(345,385,o),
(397,404,c),
(408,282,o),
(414,178,o),
(414,-15,c),
(594,0,l),
(594,133,o),
(583,423,o),
(505,517,c),
(493,521,o),
(481,523,o),
(469,523,cs),
(386,523,o),
(309,436,o),
(256,304,c),
(247,304,l),
(284,716,l),
(70,683,l),
(121,-15,l)
);
}
);
width = 665;
}
);
unicode = 104;
},
{
glyphname = hbar;
lastChange = "2023-03-01 09:16:35 +0000";
layers = (
{
background = {
shapes = (
{
closed = 1;
nodes = (
(220,-6,l),
(260,324,o),
(345,385,o),
(397,404,c),
(408,282,o),
(414,178,o),
(414,-15,c),
(594,0,l),
(594,133,o),
(583,423,o),
(505,517,c),
(493,521,o),
(481,523,o),
(469,523,cs),
(386,523,o),
(309,436,o),
(256,304,c),
(247,304,l),
(284,716,l),
(70,683,l),
(121,-15,l)
);
},
{
closed = 1;
nodes = (
(382,650,l),
(10,650,l),
(0,570,l),
(372,597,l)
);
}
);
};
layerId = UUID0;
shapes = (
{
closed = 1;
nodes = (
(372,597,l),
(382,650,l),
(10,650,l),
(0,570,l)
);
},
{
alignment = -1;
ref = h;
}
);
width = 665;
}
);
unicode = 295;
},
{
glyphname = hcircumflex;
lastChange = "2023-03-01 09:16:35 +0000";
layers = (
{
background = {
shapes = (
{
closed = 1;
nodes = (
(220,-6,l),
(260,324,o),
(345,385,o),
(397,404,c),
(408,282,o),
(414,178,o),
(414,-15,c),
(594,0,l),
(594,133,o),
(583,423,o),
(505,517,c),
(493,521,o),
(481,523,o),
(469,523,cs),
(386,523,o),
(309,436,o),
(256,304,c),
(247,304,l),
(284,716,l),
(70,683,l),
(121,-15,l)
);
},
{
closed = 1;
nodes = (
(72,756,l),
(190,821,l),
(266,759,l),
(341,849,l),
(154,941,l),
(38,804,l)
);
}
);
};
layerId = UUID0;
shapes = (
{
ref = h;
},
{
pos = (-41,39);
ref = circumflexcomb.case;
}
);
width = 665;
}
);
unicode = 293;
},
{
glyphname = i;
lastChange = "2023-03-01 09:16:35 +0000";
layers = (
{
anchors = (
{
name = bottom;
pos = (177,0);
}
);
background = {
shapes = (
{
closed = 1;
nodes = (
(220,-6,l),
(284,513,l),
(70,480,l),
(121,-15,l)
);
},
{
closed = 1;
nodes = (
(116,564,o),
(167,564,cs),
(218,564,o),
(260,606,o),
(260,657,cs),
(260,708,o),
(218,750,o),
(167,750,cs),
(116,750,o),
(74,708,o),
(74,657,cs),
(74,606,o)
);
}
);
};
layerId = UUID0;
shapes = (
{
closed = 1;
nodes = (
(218,564,o),
(260,606,o),
(260,657,cs),
(260,708,o),
(218,750,o),
(167,750,cs),
(116,750,o),
(74,708,o),
(74,657,cs),
(74,606,o),
(116,564,o),
(167,564,cs)
);
},
{
ref = idotless;
}
);
width = 354;
}
);
unicode = 105;
},
{
glyphname = idotless;
lastChange = "2023-03-01 09:16:35 +0000";
layers = (
{
anchors = (
{
name = bottom;
pos = (177,0);
},
{
name = ogonek;
pos = (310,44);
},
{
name = top;
pos = (177,500);
}
);
background = {
shapes = (
{
closed = 1;
nodes = (
(220,-6,l),
(284,513,l),
(70,480,l),
(121,-15,l)
);
}
);
};
layerId = UUID0;
shapes = (
{
closed = 1;
nodes = (
(220,-6,l),
(284,513,l),
(70,480,l),
(121,-15,l)
);
}
);
width = 354;
}
);
unicode = 305;
},
{
glyphname = iacute;
lastChange = "2023-03-01 09:16:35 +0000";
layers = (
{
background = {
shapes = (
{
closed = 1;
nodes = (
(220,-6,l),
(284,513,l),
(70,480,l),
(121,-15,l)
);
},
{
closed = 1;
nodes = (
(92,563,l),
(296,628,l),
(236,753,l),
(58,631,l)
);
}
);
};
layerId = UUID0;
shapes = (
{
ref = idotless;
},
{
pos = (-72,0);
ref = acutecomb;
}
);
width = 354;
}
);
unicode = 237;
},
{
glyphname = ibreve;
lastChange = "2023-03-01 09:16:35 +0000";
layers = (
{
background = {
shapes = (
{
closed = 1;
nodes = (
(220,-6,l),
(284,513,l),
(70,480,l),
(121,-15,l)
);
},
{
closed = 1;
nodes = (
(227,699,o),
(208,657,o),
(164,657,cs),
(124,657,o),
(106,688,o),
(81,732,c),
(28,699,l),
(55,634,o),
(89,556,o),
(162,556,cs),
(220,556,o),
(273,592,o),
(327,683,c),
(243,738,l)
);
}
);
};
layerId = UUID0;
shapes = (
{
ref = idotless;
},
{
pos = (-83,0);
ref = brevecomb;
}
);
width = 354;
}
);
unicode = 301;
},
{
glyphname = icircumflex;
lastChange = "2023-03-01 09:16:35 +0000";
layers = (
{
background = {
shapes = (
{
closed = 1;
nodes = (
(220,-6,l),
(284,513,l),
(70,480,l),
(121,-15,l)
);
},
{
closed = 1;
nodes = (
(66,566,l),
(184,631,l),
(260,569,l),
(335,659,l),
(148,751,l),
(32,614,l)
);
}
);
};
layerId = UUID0;
shapes = (
{
ref = idotless;
},
{
pos = (-55,0);
ref = circumflexcomb;
}
);
width = 354;
}
);
unicode = 238;
},
{
glyphname = idieresis;
lastChange = "2023-03-01 09:16:35 +0000";
layers = (
{
background = {
shapes = (
{
closed = 1;
nodes = (
(220,-6,l),
(284,513,l),
(70,480,l),
(121,-15,l)
);
},
{
closed = 1;
nodes = (
(31,573,o),
(72,573,cs),
(113,573,o),
(148,611,o),
(148,657,cs),
(148,703,o),
(113,741,o),
(72,741,cs),
(31,741,o),
(-4,703,o),
(-4,657,cs),
(-4,611,o)
);
},
{
closed = 1;
nodes = (
(241,573,o),
(282,573,cs),
(323,573,o),
(358,611,o),
(358,657,cs),
(358,703,o),
(323,741,o),
(282,741,cs),
(241,741,o),
(206,703,o),
(206,657,cs),
(206,611,o)
);
}
);
};
layerId = UUID0;
shapes = (
{
ref = idotless;
},
{
pos = (-42,0);
ref = dieresiscomb;
}
);
width = 354;
}
);
unicode = 239;
},
{
glyphname = igrave;
lastChange = "2023-03-01 09:16:35 +0000";
layers = (
{
background = {
shapes = (
{
closed = 1;
nodes = (
(220,-6,l),
(284,513,l),
(70,480,l),
(121,-15,l)
);
},
{
closed = 1;
nodes = (
(58,628,l),
(262,563,l),
(296,631,l),
(118,753,l)
);
}
);
};
layerId = UUID0;
shapes = (
{
ref = idotless;
},
{
pos = (-52,0);
ref = gravecomb;
}
);
width = 354;
}
);
unicode = 236;
},
{
glyphname = ij;
lastChange = "2023-03-01 09:16:35 +0000";
layers = (
{
background = {
shapes = (
{
closed = 1;
nodes = (
(220,-6,l),
(284,513,l),
(70,480,l),
(121,-15,l)
);
},
{
closed = 1;
nodes = (
(116,564,o),
(167,564,cs),
(218,564,o),
(260,606,o),
(260,657,cs),
(260,708,o),
(218,750,o),
(167,750,cs),
(116,750,o),
(74,708,o),
(74,657,cs),
(74,606,o)
);
},
{
closed = 1;
nodes = (
(470,564,o),
(521,564,cs),
(572,564,o),
(614,606,o),
(614,657,cs),
(614,708,o),
(572,750,o),
(521,750,cs),
(470,750,o),
(428,708,o),
(428,657,cs),
(428,606,o)
);
},
{
closed = 1;
nodes = (
(424,480,l),
(469,48,o),
(470,38,o),
(470,28,cs),
(470,-27,o),
(450,-60,o),
(399,-60,cs),
(382,-60,o),
(352,-53,o),
(332,-39,c),
(302,-90,l),
(342,-122,o),
(383,-135,o),
(422,-135,cs),
(500,-135,o),
(562,-102,o),
(574,-5,cs),
(638,512,l)
);
}
);
};
layerId = UUID0;
shapes = (
{
ref = i;
},
{
pos = (354,0);
ref = j;
}
);
width = 668;
}
);
unicode = 307;
},
{
glyphname = imacron;
lastChange = "2023-03-01 09:16:35 +0000";
layers = (
{
background = {
shapes = (
{
closed = 1;
nodes = (
(220,-6,l),
(284,513,l),
(70,480,l),
(121,-15,l)
);
},
{
closed = 1;
nodes = (
(311,703,l),
(50,703,l),
(43,584,l),
(304,611,l)
);
}
);
};
layerId = UUID0;
shapes = (
{
ref = idotless;
},
{
pos = (-34,0);
ref = macroncomb;
}
);
width = 354;
}
);
unicode = 299;
},
{
glyphname = iogonek;
lastChange = "2023-03-01 09:16:35 +0000";
layers = (
{
background = {
shapes = (
{
closed = 1;
nodes = (
(220,-6,l),
(284,513,l),
(70,480,l),
(121,-15,l)
);
},
{
closed = 1;
nodes = (
(116,564,o),
(167,564,cs),
(218,564,o),
(260,606,o),
(260,657,cs),
(260,708,o),
(218,750,o),
(167,750,cs),
(116,750,o),
(74,708,o),
(74,657,cs),
(74,606,o)
);
},
{
closed = 1;
nodes = (
(237,-108,o),
(209,-117,o),
(172,-117,cs),
(147,-117,o),
(133,-113,o),
(111,-104,c),
(127,-71,o),
(158,-38,o),
(220,-6,c),
(192,44,l),
(130,9,o),
(50,-38,o),
(50,-108,cs),
(50,-187,o),
(146,-208,o),
(196,-208,cs),
(226,-208,o),
(273,-201,o),
(310,-187,c),
(276,-91,l)
);
}
);
};
layerId = UUID0;
shapes = (
{
ref = idotless;
},
{
pos = (21,0);
ref = dotaccentcomb;
},
{
pos = (-74,0);
ref = ogonekcomb;
}
);
width = 354;
}
);
unicode = 303;
},
{
glyphname = itilde;
lastChange = "2023-03-01 09:16:35 +0000";
layers = (
{
background = {
shapes = (
{
closed = 1;
nodes = (
(220,-6,l),
(284,513,l),
(70,480,l),
(121,-15,l)
);
},
{
closed = 1;
nodes = (
(249,708,o),
(264,742,c),
(324,726,l),
(313,641,o),
(286,585,o),
(239,585,cs),
(206,585,o),
(169,611,o),
(134,611,cs),
(119,611,o),
(106,600,o),
(91,566,c),
(31,582,l),
(42,667,o),
(69,723,o),
(116,723,cs),
(149,723,o),
(186,697,o),
(221,697,cs),
(236,697,o)
);
}
);
};
layerId = UUID0;
shapes = (
{
ref = idotless;
},
{
pos = (-57,0);
ref = tildecomb;
}
);
width = 354;
}
);
unicode = 297;
},
{
glyphname = j;
lastChange = "2023-03-01 09:16:35 +0000";
layers = (
{
background = {
shapes = (
{
closed = 1;
nodes = (
(116,564,o),
(167,564,cs),
(218,564,o),
(260,606,o),
(260,657,cs),
(260,708,o),
(218,750,o),
(167,750,cs),
(116,750,o),
(74,708,o),
(74,657,cs),
(74,606,o)
);
},
{
closed = 1;
nodes = (
(70,480,l),
(115,48,o),
(116,38,o),
(116,28,cs),
(116,-27,o),
(96,-60,o),
(45,-60,cs),
(28,-60,o),
(-2,-53,o),
(-22,-39,c),
(-52,-90,l),
(-12,-122,o),
(29,-135,o),
(68,-135,cs),
(146,-135,o),
(208,-102,o),
(220,-5,cs),
(284,512,l)
);
}
);
};
layerId = UUID0;
shapes = (
{
closed = 1;
nodes = (
(218,564,o),
(260,606,o),
(260,657,cs),
(260,708,o),
(218,750,o),
(167,750,cs),
(116,750,o),
(74,708,o),
(74,657,cs),
(74,606,o),
(116,564,o),
(167,564,cs)
);
},
{
ref = jdotless;
}
);
width = 314;
}
);
unicode = 106;
},
{
glyphname = jdotless;
lastChange = "2023-03-01 09:16:35 +0000";
layers = (
{
anchors = (
{
name = bottom;
pos = (157,-208);
},
{
name = top;
pos = (177,500);
}
);
layerId = UUID0;
shapes = (
{
closed = 1;
nodes = (
(208,-102,o),
(146,-135,o),
(68,-135,cs),
(29,-135,o),
(-12,-122,o),
(-52,-90,c),
(-22,-39,l),
(-2,-53,o),
(28,-60,o),
(45,-60,cs),
(96,-60,o),
(116,-27,o),
(116,28,cs),
(116,37,o),
(115,48,o),
(70,480,c),
(284,512,l),
(220,-5,ls)
);
}
);
width = 314;
}
);
unicode = 567;
},
{
glyphname = jcircumflex;
lastChange = "2023-03-01 09:16:35 +0000";
layers = (
{
background = {
shapes = (
{
closed = 1;
nodes = (
(208,-102,o),
(146,-135,o),
(68,-135,cs),
(29,-135,o),
(-12,-122,o),
(-52,-90,c),
(-22,-39,l),
(-2,-53,o),
(28,-60,o),
(45,-60,cs),
(96,-60,o),
(116,-27,o),
(116,28,cs),
(116,37,o),
(115,48,o),
(70,480,c),
(284,512,l),
(220,-5,ls)
);
},
{
closed = 1;
nodes = (
(60,566,l),
(178,631,l),
(254,569,l),
(329,659,l),
(142,751,l),
(26,614,l)
);
}
);
};
layerId = UUID0;
shapes = (
{
ref = jdotless;
},
{
pos = (-55,0);
ref = circumflexcomb;
}
);
width = 314;
}
);
unicode = 309;
},
{
glyphname = k;
lastChange = "2023-03-01 09:16:35 +0000";
layers = (
{
anchors = (
{
name = bottom;
pos = (299,0);
},
{
name = top;
pos = (299,683);
}
);
background = {
shapes = (
{
closed = 1;
nodes = (
(459,536,l),
(246,284,l),
(284,716,l),
(70,683,l),
(121,-15,l),
(220,-6,l),
(237,185,l),
(273,219,l),
(398,-15,l),
(588,-2,l),
(371,322,l),
(526,484,l)
);
}
);
};
layerId = UUID0;
shapes = (
{
closed = 1;
nodes = (
(220,-6,l),
(237,185,l),
(273,219,l),
(398,-15,l),
(588,-2,l),
(371,322,l),
(526,484,l),
(459,536,l),
(246,284,l),
(284,716,l),
(70,683,l),
(121,-15,l)
);
}
);
width = 598;
}
);
unicode = 107;
},
{
glyphname = kcommaaccent;
lastChange = "2023-03-01 09:16:35 +0000";
layers = (
{
background = {
shapes = (
{
closed = 1;
nodes = (
(459,536,l),
(246,284,l),
(284,716,l),
(70,683,l),
(121,-15,l),
(220,-6,l),
(237,185,l),
(273,219,l),
(398,-15,l),
(588,-2,l),
(371,322,l),
(526,484,l)
);
},
{
closed = 1;
nodes = (
(294,-223,o),
(284,-251,o),
(248,-280,c),
(302,-331,l),
(357,-282,o),
(377,-223,o),
(377,-149,cs),
(377,-124,o),
(375,-100,o),
(371,-78,c),
(356,-62,o),
(327,-51,o),
(294,-51,cs),
(235,-51,o),
(219,-78,o),
(219,-130,cs),
(219,-178,o),
(237,-209,o),
(266,-209,cs),
(279,-209,o),
(288,-205,o),
(295,-199,c),
(299,-201,l)
);
}
);
};
layerId = UUID0;
shapes = (
{
ref = k;
},
{
pos = (140,0);
ref = commaaccentcomb;
}
);
width = 598;
}
);
unicode = 311;
},
{
glyphname = kgreenlandic;
lastChange = "2023-03-01 09:16:35 +0000";
layers = (
{
anchors = (
{
name = bottom;
pos = (299,0);
},
{
name = top;
pos = (299,500);
}
);
background = {
shapes = (
{
closed = 1;
nodes = (
(220,-6,l),
(244,188,l),
(273,219,l),
(398,-15,l),
(588,-2,l),
(371,322,l),
(526,484,l),
(459,536,l),
(257,298,l),
(284,513,l),
(70,480,l),
(121,-15,l)
);
}
);
};
layerId = UUID0;
shapes = (
{
closed = 1;
nodes = (
(220,-6,l),
(244,188,l),
(273,219,l),
(398,-15,l),
(588,-2,l),
(371,322,l),
(526,484,l),
(459,536,l),
(257,298,l),
(284,513,l),
(70,480,l),
(121,-15,l)
);
}
);
width = 598;
}
);
unicode = 312;
},
{
glyphname = l;
lastChange = "2023-03-01 09:16:35 +0000";
layers = (
{
anchors = (
{
name = bottom;
pos = (173,0);
},
{
name = center;
pos = (177,342);
},
{
name = top;
pos = (168,690);
},
{
name = topright;
pos = (395,683);
}
);
background = {
shapes = (
{
closed = 1;
nodes = (
(220,-6,l),
(284,716,l),
(70,683,l),
(121,-15,l)
);
}
);
};
layerId = UUID0;
shapes = (
{
closed = 1;
nodes = (
(220,-6,l),
(284,716,l),
(70,683,l),
(121,-15,l)
);
}
);
width = 354;
}
);
unicode = 108;
},
{
glyphname = lacute;
lastChange = "2023-03-01 09:16:35 +0000";
layers = (
{
background = {
shapes = (
{
closed = 1;
nodes = (
(220,-6,l),
(284,716,l),
(70,683,l),
(121,-15,l)
);
},
{
closed = 1;
nodes = (
(82,753,l),
(286,818,l),
(226,943,l),
(48,821,l)
);
}
);
};
layerId = UUID0;
shapes = (
{
ref = l;
},
{
pos = (-91,40);
ref = acutecomb.case;
}
);
width = 354;
}
);
unicode = 314;
},
{
glyphname = lcaron;
lastChange = "2023-03-01 09:16:35 +0000";
layers = (
{
background = {
shapes = (
{
closed = 1;
nodes = (
(220,-6,l),
(284,716,l),
(70,683,l),
(121,-15,l)
);
},
{
closed = 1;
nodes = (
(409,647,o),
(399,619,o),
(363,590,c),
(417,539,l),
(472,588,o),
(492,647,o),
(492,721,cs),
(492,746,o),
(490,770,o),
(486,792,c),
(471,808,o),
(442,819,o),
(409,819,cs),
(350,819,o),
(334,792,o),
(334,740,cs),
(334,692,o),
(352,661,o),
(381,661,cs),
(394,661,o),
(403,665,o),
(410,671,c),
(414,669,l)
);
}
);
};
layerId = UUID0;
shapes = (
{
ref = l;
},
{
pos = (271,-23);
ref = caroncomb.alt;
}
);
width = 354;
}
);
unicode = 318;
},
{
glyphname = lcommaaccent;
lastChange = "2023-03-01 09:16:35 +0000";
layers = (
{
background = {
shapes = (
{
closed = 1;
nodes = (
(220,-6,l),
(284,716,l),
(70,683,l),
(121,-15,l)
);
},
{
closed = 1;
nodes = (
(168,-223,o),
(158,-251,o),
(122,-280,c),
(176,-331,l),
(231,-282,o),
(251,-223,o),
(251,-149,cs),
(251,-124,o),
(249,-100,o),
(245,-78,c),
(230,-62,o),
(201,-51,o),
(168,-51,cs),
(109,-51,o),
(93,-78,o),
(93,-130,cs),
(93,-178,o),
(111,-209,o),
(140,-209,cs),
(153,-209,o),
(162,-205,o),
(169,-199,c),
(173,-201,l)
);
}
);
};
layerId = UUID0;
shapes = (
{
ref = l;
},
{
pos = (14,0);
ref = commaaccentcomb;
}
);
width = 354;
}
);
unicode = 316;
},
{
glyphname = ldot;
lastChange = "2023-03-01 09:16:35 +0000";
layers = (
{
background = {
shapes = (
{
closed = 1;
nodes = (
(220,-6,l),
(284,716,l),
(70,683,l),
(121,-15,l)
);
},
{
closed = 1;
nodes = (
(339,240,o),
(407,240,cs),
(475,240,o),
(500,280,o),
(500,328,cs),
(500,376,o),
(475,416,o),
(407,416,cs),
(339,416,o),
(314,376,o),
(314,328,cs),
(314,280,o)
);
}
);
};
layerId = UUID0;
shapes = (
{
alignment = -1;
ref = l;
},
{
alignment = -1;
pos = (264,40);
ref = periodcentered;
}
);
width = 470;
}
);
unicode = 320;
},
{
glyphname = lslash;
lastChange = "2023-03-01 09:16:35 +0000";
layers = (
{
background = {
shapes = (
{
closed = 1;
nodes = (
(220,-6,l),
(284,716,l),
(70,683,l),
(121,-15,l)
);
},
{
closed = 1;
nodes = (
(335,525,l),
(-16,356,l),
(21,281,l),
(360,474,l)
);
}
);
};
layerId = UUID0;
shapes = (
{
closed = 1;
nodes = (
(360,474,l),
(335,525,l),
(-16,356,l),
(21,281,l)
);
},
{
alignment = -1;
ref = l;
}
);
width = 354;
}
);
unicode = 322;
},
{
glyphname = m;
lastChange = "2023-03-01 09:16:35 +0000";
layers = (
{
anchors = (
{
name = bottom;
pos = (465,0);
},
{
name = top;
pos = (465,500);
}
);
background = {
shapes = (
{
closed = 1;
nodes = (
(859,127,o),
(848,423,o),
(770,517,c),
(758,521,o),
(745,523,o),
(733,523,cs),
(663,523,o),
(598,453,o),
(551,343,c),
(543,343,l),
(529,416,o),
(509,481,o),
(480,517,c),
(468,521,o),
(455,523,o),
(443,523,cs),
(376,523,o),
(314,459,o),
(267,358,c),
(260,358,l),
(279,514,l),
(65,481,l),
(116,-15,l),
(215,-6,l),
(224,67,ls),
(254,314,o),
(330,386,o),
(374,404,c),
(384,282,o),
(389,178,o),
(389,-15,c),
(505,-6,l),
(541,324,o),
(617,385,o),
(664,404,c),
(674,282,o),
(679,178,o),
(679,-15,c),
(859,-6,l)
);
}
);
};
layerId = UUID0;
shapes = (
{
closed = 1;
nodes = (
(215,-6,l),
(224,67,ls),
(254,314,o),
(330,386,o),
(374,404,c),
(384,282,o),
(389,178,o),
(389,-15,c),
(505,-6,l),
(541,324,o),
(617,385,o),
(664,404,c),
(674,282,o),
(679,178,o),
(679,-15,c),
(859,-6,l),
(859,127,o),
(848,423,o),
(770,517,c),
(758,521,o),
(745,523,o),
(733,523,cs),
(663,523,o),
(598,453,o),
(551,343,c),
(543,343,l),
(529,416,o),
(509,481,o),
(480,517,c),
(468,521,o),
(455,523,o),
(443,523,cs),
(376,523,o),
(314,459,o),
(267,358,c),
(260,358,l),
(279,514,l),
(65,481,l),
(116,-15,l)
);
}
);
width = 930;
}
);
unicode = 109;
},
{
glyphname = n;
lastChange = "2023-03-01 09:16:35 +0000";
layers = (
{
anchors = (
{
name = bottom;
pos = (311,0);
},
{
name = top;
pos = (330,500);
}
);
background = {
shapes = (
{
closed = 1;
nodes = (
(215,-6,l),
(255,324,o),
(340,385,o),
(392,404,c),
(403,282,o),
(409,178,o),
(409,-15,c),
(589,0,l),
(589,133,o),
(578,423,o),
(500,517,c),
(488,521,o),
(475,523,o),
(463,523,cs),
(388,523,o),
(318,451,o),
(266,338,c),
(257,338,l),
(279,514,l),
(65,481,l),
(116,-15,l)
);
}
);
};
layerId = UUID0;
shapes = (
{
closed = 1;
nodes = (
(215,-6,l),
(255,324,o),
(340,385,o),
(392,404,c),
(403,282,o),
(409,178,o),
(409,-15,c),
(589,0,l),
(589,133,o),
(578,423,o),
(500,517,c),
(488,521,o),
(475,523,o),
(463,523,cs),
(388,523,o),
(318,451,o),
(266,338,c),
(257,338,l),
(279,514,l),
(65,481,l),
(116,-15,l)
);
}
);
width = 660;
}
);
unicode = 110;
},
{
glyphname = nacute;
lastChange = "2023-03-01 09:16:35 +0000";
layers = (
{
background = {
shapes = (
{
closed = 1;
nodes = (
(215,-6,l),
(255,324,o),
(340,385,o),
(392,404,c),
(403,282,o),
(409,178,o),
(409,-15,c),
(589,0,l),
(589,133,o),
(578,423,o),
(500,517,c),
(488,521,o),
(475,523,o),
(463,523,cs),
(388,523,o),
(318,451,o),
(266,338,c),
(257,338,l),
(279,514,l),
(65,481,l),
(116,-15,l)
);
},
{
closed = 1;
nodes = (
(245,563,l),
(449,628,l),
(389,753,l),
(211,631,l)
);
}
);
};
layerId = UUID0;
shapes = (
{
ref = n;
},
{
pos = (81,0);
ref = acutecomb;
}
);
width = 660;
}
);
unicode = 324;
},
{
glyphname = napostrophe;
lastChange = "2023-03-01 09:16:35 +0000";
layers = (
{
background = {
shapes = (
{
closed = 1;
nodes = (
(215,-6,l),
(255,324,o),
(340,385,o),
(392,404,c),
(403,282,o),
(409,178,o),
(409,-15,c),
(589,0,l),
(589,133,o),
(578,423,o),
(500,517,c),
(488,521,o),
(475,523,o),
(463,523,cs),
(388,523,o),
(318,451,o),
(266,338,c),
(257,338,l),
(279,514,l),
(65,481,l),
(116,-15,l)
);
},
{
closed = 1;
nodes = (
(26,647,o),
(16,619,o),
(-20,590,c),
(34,539,l),
(89,588,o),
(109,647,o),
(109,721,cs),
(109,746,o),
(107,770,o),
(103,792,c),
(88,808,o),
(59,819,o),
(26,819,cs),
(-33,819,o),
(-49,792,o),
(-49,740,cs),
(-49,692,o),
(-31,661,o),
(-2,661,cs),
(11,661,o),
(20,665,o),
(27,671,c),
(31,669,l)
);
}
);
};
layerId = UUID0;
shapes = (
{
ref = n;
},
{
pos = (-119,870);
ref = commaaccent;
}
);
width = 660;
}
);
unicode = 329;
},
{
glyphname = ncaron;
lastChange = "2023-03-01 09:16:35 +0000";
layers = (
{
background = {
shapes = (
{
closed = 1;
nodes = (
(215,-6,l),
(255,324,o),
(340,385,o),
(392,404,c),
(403,282,o),
(409,178,o),
(409,-15,c),
(589,0,l),
(589,133,o),
(578,423,o),
(500,517,c),
(488,521,o),
(475,523,o),
(463,523,cs),
(388,523,o),
(318,451,o),
(266,338,c),
(257,338,l),
(279,514,l),
(65,481,l),
(116,-15,l)
);
},
{
closed = 1;
nodes = (
(406,738,l),
(330,676,l),
(212,741,l),
(178,693,l),
(294,556,l),
(481,648,l)
);
}
);
};
layerId = UUID0;
shapes = (
{
ref = n;
},
{
pos = (98,0);
ref = caroncomb;
}
);
width = 660;
}
);
unicode = 328;
},
{
glyphname = ncommaaccent;
lastChange = "2023-03-01 09:16:35 +0000";
layers = (
{
background = {
shapes = (
{
closed = 1;
nodes = (
(215,-6,l),
(255,324,o),
(340,385,o),
(392,404,c),
(403,282,o),
(409,178,o),
(409,-15,c),
(589,0,l),
(589,133,o),
(578,423,o),
(500,517,c),
(488,521,o),
(475,523,o),
(463,523,cs),
(388,523,o),
(318,451,o),
(266,338,c),
(257,338,l),
(279,514,l),
(65,481,l),
(116,-15,l)
);
},
{
closed = 1;
nodes = (
(305,-223,o),
(295,-251,o),
(259,-280,c),
(313,-331,l),
(368,-282,o),
(388,-223,o),
(388,-149,cs),
(388,-124,o),
(386,-100,o),
(382,-78,c),
(367,-62,o),
(338,-51,o),
(305,-51,cs),
(246,-51,o),
(230,-78,o),
(230,-130,cs),
(230,-178,o),
(248,-209,o),
(277,-209,cs),
(290,-209,o),
(299,-205,o),
(306,-199,c),
(310,-201,l)
);
}
);
};
layerId = UUID0;
shapes = (
{
ref = n;
},
{
pos = (152,0);
ref = commaaccentcomb;
}
);
width = 660;
}
);
unicode = 326;
},
{
glyphname = ntilde;
lastChange = "2023-03-01 09:16:35 +0000";
layers = (
{
background = {
shapes = (
{
closed = 1;
nodes = (
(215,-6,l),
(255,324,o),
(340,385,o),
(392,404,c),
(403,282,o),
(409,178,o),
(409,-15,c),
(589,0,l),
(589,133,o),
(578,423,o),
(500,517,c),
(488,521,o),
(475,523,o),
(463,523,cs),
(388,523,o),
(318,451,o),
(266,338,c),
(257,338,l),
(279,514,l),
(65,481,l),
(116,-15,l)
);
},
{
closed = 1;
nodes = (
(405,708,o),
(420,742,c),
(480,726,l),
(469,641,o),
(442,585,o),
(395,585,cs),
(362,585,o),
(325,611,o),
(290,611,cs),
(275,611,o),
(262,600,o),
(247,566,c),
(187,582,l),
(198,667,o),
(225,723,o),
(272,723,cs),
(305,723,o),
(342,697,o),
(377,697,cs),
(392,697,o)
);
}
);
};
layerId = UUID0;
shapes = (
{
ref = n;
},
{
pos = (96,0);
ref = tildecomb;
}
);
width = 660;
}
);
unicode = 241;
},
{
glyphname = eng;
lastChange = "2023-03-01 09:16:35 +0000";
layers = (
{
anchors = (
{
name = bottom;
pos = (330,0);
},
{
name = top;
pos = (330,500);
}
);
background = {
shapes = (
{
closed = 1;
nodes = (
(578,423,o),
(500,517,c),
(488,521,o),
(475,523,o),
(463,523,cs),
(388,523,o),
(318,451,o),
(266,338,c),
(257,338,l),
(279,514,l),
(65,481,l),
(116,-15,l),
(215,-6,l),
(255,324,o),
(340,385,o),
(392,404,c),
(402,290,o),
(410,3,o),
(410,-48,cs),
(410,-103,o),
(390,-136,o),
(339,-136,cs),
(322,-136,o),
(292,-129,o),
(272,-115,c),
(242,-166,l),
(282,-198,o),
(323,-211,o),
(387,-211,cs),
(440,-211,o),
(589,-186,o),
(589,24,cs),
(589,157,o)
);
}
);
};
layerId = UUID0;
shapes = (
{
closed = 1;
nodes = (
(440,-211,o),
(589,-186,o),
(589,24,cs),
(589,157,o),
(578,423,o),
(500,517,c),
(488,521,o),
(475,523,o),
(463,523,cs),
(388,523,o),
(318,451,o),
(266,338,c),
(257,338,l),
(279,514,l),
(65,481,l),
(116,-15,l),
(215,-6,l),
(255,324,o),
(340,385,o),
(392,404,c),
(402,290,o),
(410,3,o),
(410,-48,cs),
(410,-103,o),
(390,-136,o),
(339,-136,cs),
(322,-136,o),
(292,-129,o),
(272,-115,c),
(242,-166,l),
(282,-198,o),
(323,-211,o),
(387,-211,cs)
);
}
);
width = 660;
}
);
unicode = 331;
},
{
glyphname = o;
kernLeft = c;
lastChange = "2023-03-01 09:16:35 +0000";
layers = (
{
anchors = (
{
name = bottom;
pos = (269,0);
},
{
name = center;
pos = (269,250);
},
{
name = ogonek;
pos = (484,10);
},
{
name = top;
pos = (269,500);
},
{
name = topright;
pos = (518,500);
}
);
background = {
shapes = (
{
closed = 1;
nodes = (
(50,371,o),
(50,184,cs),
(50,137,o),
(54,87,o),
(65,34,c),
(106,1,o),
(171,-24,o),
(266,-24,cs),
(442,-24,o),
(488,46,o),
(488,184,cs),
(488,364,o),
(357,477,o),
(238,539,c),
(178,509,o)
);
},
{
closed = 1;
nodes = (
(367,126,o),
(356,84,c),
(317,71,o),
(262,63,o),
(212,63,cs),
(187,63,o),
(162,65,o),
(141,69,c),
(141,191,o),
(220,326,o),
(332,385,c),
(359,332,o),
(372,273,o),
(372,211,cs),
(372,169,o)
);
}
);
};
layerId = UUID0;
shapes = (
{
closed = 1;
nodes = (
(442,-24,o),
(488,46,o),
(488,184,cs),
(488,364,o),
(357,477,o),
(238,539,c),
(178,509,o),
(50,371,o),
(50,184,cs),
(50,137,o),
(54,87,o),
(65,34,c),
(106,1,o),
(171,-24,o),
(266,-24,cs)
);
},
{
closed = 1;
nodes = (
(187,63,o),
(162,65,o),
(141,69,c),
(141,191,o),
(220,326,o),
(332,385,c),
(359,332,o),
(372,273,o),
(372,211,cs),
(372,169,o),
(367,126,o),
(356,84,c),
(317,71,o),
(262,63,o),
(212,63,cs)
);
}
);
width = 538;
}
);
unicode = 111;
},
{
glyphname = oacute;
kernLeft = c;
lastChange = "2023-03-01 09:16:35 +0000";
layers = (
{
background = {
shapes = (
{
closed = 1;
nodes = (
(50,371,o),
(50,184,cs),
(50,137,o),
(54,87,o),
(65,34,c),
(106,1,o),
(171,-24,o),
(266,-24,cs),
(442,-24,o),
(488,46,o),
(488,184,cs),
(488,364,o),
(357,477,o),
(238,539,c),
(178,509,o)
);
},
{
closed = 1;
nodes = (
(367,126,o),
(356,84,c),
(317,71,o),
(262,63,o),
(212,63,cs),
(187,63,o),
(162,65,o),
(141,69,c),
(141,191,o),
(220,326,o),
(332,385,c),
(359,332,o),
(372,273,o),
(372,211,cs),
(372,169,o)
);
},
{
closed = 1;
nodes = (
(184,563,l),
(388,628,l),
(328,753,l),
(150,631,l)
);
}
);
};
layerId = UUID0;
shapes = (
{
ref = o;
},
{
pos = (20,0);
ref = acutecomb;
}
);
width = 538;
}
);
unicode = 243;
},
{
glyphname = obreve;
kernLeft = c;
lastChange = "2023-03-01 09:16:35 +0000";
layers = (
{
background = {
shapes = (
{
closed = 1;
nodes = (
(50,371,o),
(50,184,cs),
(50,137,o),
(54,87,o),
(65,34,c),
(106,1,o),
(171,-24,o),
(266,-24,cs),
(442,-24,o),
(488,46,o),
(488,184,cs),
(488,364,o),
(357,477,o),
(238,539,c),
(178,509,o)
);
},
{
closed = 1;
nodes = (
(367,126,o),
(356,84,c),
(317,71,o),
(262,63,o),
(212,63,cs),
(187,63,o),
(162,65,o),
(141,69,c),
(141,191,o),
(220,326,o),
(332,385,c),
(359,332,o),
(372,273,o),
(372,211,cs),
(372,169,o)
);
},
{
closed = 1;
nodes = (
(318,699,o),
(299,657,o),
(255,657,cs),
(215,657,o),
(197,688,o),
(172,732,c),
(119,699,l),
(146,634,o),
(180,556,o),
(253,556,cs),
(311,556,o),
(364,592,o),
(418,683,c),
(334,738,l)
);
}
);
};
layerId = UUID0;
shapes = (
{
ref = o;
},
{
pos = (9,0);
ref = brevecomb;
}
);
width = 538;
}
);
unicode = 335;
},
{
glyphname = ocircumflex;
kernLeft = c;
lastChange = "2023-03-01 09:16:35 +0000";
layers = (
{
background = {
shapes = (
{
closed = 1;
nodes = (
(50,371,o),
(50,184,cs),
(50,137,o),
(54,87,o),
(65,34,c),
(106,1,o),
(171,-24,o),
(266,-24,cs),
(442,-24,o),
(488,46,o),
(488,184,cs),
(488,364,o),
(357,477,o),
(238,539,c),
(178,509,o)
);
},
{
closed = 1;
nodes = (
(367,126,o),
(356,84,c),
(317,71,o),
(262,63,o),
(212,63,cs),
(187,63,o),
(162,65,o),
(141,69,c),
(141,191,o),
(220,326,o),
(332,385,c),
(359,332,o),
(372,273,o),
(372,211,cs),
(372,169,o)
);
},
{
closed = 1;
nodes = (
(158,566,l),
(276,631,l),
(352,569,l),
(427,659,l),
(240,751,l),
(124,614,l)
);
}
);
};
layerId = UUID0;
shapes = (
{
ref = o;
},
{
pos = (37,0);
ref = circumflexcomb;
}
);
width = 538;
}
);
unicode = 244;
},
{
glyphname = odieresis;
kernLeft = c;
lastChange = "2023-03-01 09:16:35 +0000";
layers = (
{
background = {
shapes = (
{
closed = 1;
nodes = (
(50,371,o),
(50,184,cs),
(50,137,o),
(54,87,o),
(65,34,c),
(106,1,o),
(171,-24,o),
(266,-24,cs),
(442,-24,o),
(488,46,o),
(488,184,cs),
(488,364,o),
(357,477,o),
(238,539,c),
(178,509,o)
);
},
{
closed = 1;
nodes = (
(367,126,o),
(356,84,c),
(317,71,o),
(262,63,o),
(212,63,cs),
(187,63,o),
(162,65,o),
(141,69,c),
(141,191,o),
(220,326,o),
(332,385,c),
(359,332,o),
(372,273,o),
(372,211,cs),
(372,169,o)
);
},
{
closed = 1;
nodes = (
(123,573,o),
(164,573,cs),
(205,573,o),
(240,611,o),
(240,657,cs),
(240,703,o),
(205,741,o),
(164,741,cs),
(123,741,o),
(88,703,o),
(88,657,cs),
(88,611,o)
);
},
{
closed = 1;
nodes = (
(333,573,o),
(374,573,cs),
(415,573,o),
(450,611,o),
(450,657,cs),
(450,703,o),
(415,741,o),
(374,741,cs),
(333,741,o),
(298,703,o),
(298,657,cs),
(298,611,o)
);
}
);
};
layerId = UUID0;
shapes = (
{
ref = o;
},
{
pos = (50,0);
ref = dieresiscomb;
}
);
width = 538;
}
);
unicode = 246;
},
{
glyphname = ograve;
kernLeft = c;
lastChange = "2023-03-01 09:16:35 +0000";
layers = (
{
background = {
shapes = (
{
closed = 1;
nodes = (
(50,371,o),
(50,184,cs),
(50,137,o),
(54,87,o),
(65,34,c),
(106,1,o),
(171,-24,o),
(266,-24,cs),
(442,-24,o),
(488,46,o),
(488,184,cs),
(488,364,o),
(357,477,o),
(238,539,c),
(178,509,o)
);
},
{
closed = 1;
nodes = (
(367,126,o),
(356,84,c),
(317,71,o),
(262,63,o),
(212,63,cs),
(187,63,o),
(162,65,o),
(141,69,c),
(141,191,o),
(220,326,o),
(332,385,c),
(359,332,o),
(372,273,o),
(372,211,cs),
(372,169,o)
);
},
{
closed = 1;
nodes = (
(150,628,l),
(354,563,l),
(388,631,l),
(210,753,l)
);
}
);
};
layerId = UUID0;
shapes = (
{
ref = o;
},
{
pos = (40,0);
ref = gravecomb;
}
);
width = 538;
}
);
unicode = 242;
},
{
glyphname = ohungarumlaut;
kernLeft = c;
lastChange = "2023-03-01 09:16:35 +0000";
layers = (
{
background = {
shapes = (
{
closed = 1;
nodes = (
(50,371,o),
(50,184,cs),
(50,137,o),
(54,87,o),
(65,34,c),
(106,1,o),
(171,-24,o),
(266,-24,cs),
(442,-24,o),
(488,46,o),
(488,184,cs),
(488,364,o),
(357,477,o),
(238,539,c),
(178,509,o)
);
},
{
closed = 1;
nodes = (
(367,126,o),
(356,84,c),
(317,71,o),
(262,63,o),
(212,63,cs),
(187,63,o),
(162,65,o),
(141,69,c),
(141,191,o),
(220,326,o),
(332,385,c),
(359,332,o),
(372,273,o),
(372,211,cs),
(372,169,o)
);
},
{
closed = 1;
nodes = (
(124,558,l),
(299,653,l),
(222,756,l),
(88,609,l)
);
},
{
closed = 1;
nodes = (
(344,558,l),
(519,653,l),
(442,756,l),
(308,609,l)
);
}
);
};
layerId = UUID0;
shapes = (
{
ref = o;
},
{
pos = (12,0);
ref = hungarumlautcomb;
}
);
width = 538;
}
);
unicode = 337;
},
{
glyphname = omacron;
kernLeft = c;
lastChange = "2023-03-01 09:16:35 +0000";
layers = (
{
background = {
shapes = (
{
closed = 1;
nodes = (
(50,371,o),
(50,184,cs),
(50,137,o),
(54,87,o),
(65,34,c),
(106,1,o),
(171,-24,o),
(266,-24,cs),
(442,-24,o),
(488,46,o),
(488,184,cs),
(488,364,o),
(357,477,o),
(238,539,c),
(178,509,o)
);
},
{
closed = 1;
nodes = (
(367,126,o),
(356,84,c),
(317,71,o),
(262,63,o),
(212,63,cs),
(187,63,o),
(162,65,o),
(141,69,c),
(141,191,o),
(220,326,o),
(332,385,c),
(359,332,o),
(372,273,o),
(372,211,cs),
(372,169,o)
);
},
{
closed = 1;
nodes = (
(403,703,l),
(142,703,l),
(135,584,l),
(396,611,l)
);
}
);
};
layerId = UUID0;
shapes = (
{
ref = o;
},
{
pos = (58,0);
ref = macroncomb;
}
);
width = 538;
}
);
unicode = 333;
},
{
glyphname = oslash;
lastChange = "2023-03-01 09:16:35 +0000";
layers = (
{
background = {
shapes = (
{
closed = 1;
nodes = (
(360,664,l),
(131,-181,l),
(197,-196,l),
(426,649,l)
);
},
{
closed = 1;
nodes = (
(50,371,o),
(50,184,cs),
(50,137,o),
(54,87,o),
(65,34,c),
(106,1,o),
(171,-24,o),
(266,-24,cs),
(442,-24,o),
(488,46,o),
(488,184,cs),
(488,364,o),
(357,477,o),
(238,539,c),
(178,509,o)
);
},
{
closed = 1;
nodes = (
(367,126,o),
(356,84,c),
(317,71,o),
(262,63,o),
(212,63,cs),
(187,63,o),
(162,65,o),
(141,69,c),
(141,191,o),
(220,326,o),
(332,385,c),
(359,332,o),
(372,273,o),
(372,211,cs),
(372,169,o)
);
}
);
};
layerId = UUID0;
shapes = (
{
closed = 1;
nodes = (
(426,649,l),
(360,664,l),
(131,-181,l),
(197,-196,l)
);
},
{
ref = o;
}
);
width = 538;
}
);
unicode = 248;
},
{
glyphname = oslashacute;
kernLeft = c;
lastChange = "2023-03-01 09:16:35 +0000";
layers = (
{
background = {
shapes = (
{
closed = 1;
nodes = (
(333,564,l),
(131,-181,l),
(197,-196,l),
(399,549,l)
);
},
{
closed = 1;
nodes = (
(50,371,o),
(50,184,cs),
(50,137,o),
(54,87,o),
(65,34,c),
(106,1,o),
(171,-24,o),
(266,-24,cs),
(442,-24,o),
(488,46,o),
(488,184,cs),
(488,364,o),
(357,477,o),
(238,539,c),
(178,509,o)
);
},
{
closed = 1;
nodes = (
(367,126,o),
(356,84,c),
(317,71,o),
(262,63,o),
(212,63,cs),
(187,63,o),
(162,65,o),
(141,69,c),
(141,191,o),
(220,326,o),
(332,385,c),
(359,332,o),
(372,273,o),
(372,211,cs),
(372,169,o)
);
},
{
closed = 1;
nodes = (
(184,563,l),
(388,628,l),
(328,753,l),
(150,631,l)
);
}
);
};
layerId = UUID0;
shapes = (
{
closed = 1;
nodes = (
(399,549,l),
(333,564,l),
(131,-181,l),
(197,-196,l)
);
},
{
ref = o;
},
{
pos = (20,0);
ref = acutecomb;
}
);
width = 538;
}
);
unicode = 511;
},
{
glyphname = otilde;
kernLeft = c;
lastChange = "2023-03-01 09:16:35 +0000";
layers = (
{
background = {
shapes = (
{
closed = 1;
nodes = (
(50,371,o),
(50,184,cs),
(50,137,o),
(54,87,o),
(65,34,c),
(106,1,o),
(171,-24,o),
(266,-24,cs),
(442,-24,o),
(488,46,o),
(488,184,cs),
(488,364,o),
(357,477,o),
(238,539,c),
(178,509,o)
);
},
{
closed = 1;
nodes = (
(367,126,o),
(356,84,c),
(317,71,o),
(262,63,o),
(212,63,cs),
(187,63,o),
(162,65,o),
(141,69,c),
(141,191,o),
(220,326,o),
(332,385,c),
(359,332,o),
(372,273,o),
(372,211,cs),
(372,169,o)
);
},
{
closed = 1;
nodes = (
(344,708,o),
(359,742,c),
(419,726,l),
(408,641,o),
(381,585,o),
(334,585,cs),
(301,585,o),
(264,611,o),
(229,611,cs),
(214,611,o),
(201,600,o),
(186,566,c),
(126,582,l),
(137,667,o),
(164,723,o),
(211,723,cs),
(244,723,o),
(281,697,o),
(316,697,cs),
(331,697,o)
);
}
);
};
layerId = UUID0;
shapes = (
{
ref = o;
},
{
pos = (35,0);
ref = tildecomb;
}
);
width = 538;
}
);
unicode = 245;
},
{
glyphname = oe;
kernLeft = c;
lastChange = "2023-03-01 09:16:35 +0000";
layers = (
{
anchors = (
{
name = bottom;
pos = (428,0);
},
{
name = top;
pos = (428,500);
}
);
background = {
shapes = (
{
closed = 1;
nodes = (
(367,126,o),
(356,84,c),
(317,71,o),
(262,63,o),
(212,63,cs),
(187,63,o),
(162,65,o),
(141,69,c),
(141,191,o),
(220,326,o),
(332,385,c),
(359,332,o),
(372,273,o),
(372,211,cs),
(372,169,o)
);
},
{
closed = 1;
nodes = (
(540,-24,o),
(626,-24,cs),
(679,-24,o),
(736,-18,o),
(790,-1,c),
(760,96,l),
(693,72,o),
(627,63,o),
(564,63,cs),
(531,63,o),
(492,65,o),
(462,69,c),
(462,102,o),
(468,135,o),
(481,167,c),
(511,160,o),
(556,156,o),
(601,156,cs),
(762,156,o),
(801,204,o),
(801,298,cs),
(801,419,o),
(668,497,o),
(559,539,c),
(510,512,o),
(459,458,o),
(423,385,c),
(374,454,o),
(304,504,o),
(238,539,c),
(178,509,o),
(50,371,o),
(50,184,cs),
(50,137,o),
(54,87,o),
(65,34,c),
(106,1,o),
(171,-24,o),
(266,-24,cs),
(338,-24,o),
(384,-7,o),
(418,16,c),
(470,-11,o)
);
},
{
closed = 1;
nodes = (
(690,313,o),
(690,265,cs),
(690,253,o),
(689,240,o),
(687,227,c),
(648,219,o),
(594,213,o),
(543,213,cs),
(529,213,o),
(514,213,o),
(501,214,c),
(537,277,o),
(582,330,o),
(657,380,c),
(675,350,o)
);
}
);
};
layerId = UUID0;
shapes = (
{
closed = 1;
nodes = (
(338,-24,o),
(384,-7,o),
(418,16,c),
(470,-11,o),
(540,-24,o),
(626,-24,cs),
(679,-24,o),
(736,-18,o),
(790,-1,c),
(760,96,l),
(693,72,o),
(627,63,o),
(564,63,cs),
(531,63,o),
(492,65,o),
(462,69,c),
(462,102,o),
(468,135,o),
(481,167,c),
(511,160,o),
(556,156,o),
(601,156,cs),
(762,156,o),
(801,204,o),
(801,298,cs),
(801,419,o),
(668,497,o),
(559,539,c),
(510,512,o),
(459,458,o),
(423,385,c),
(374,454,o),
(304,504,o),
(238,539,c),
(178,509,o),
(50,371,o),
(50,184,cs),
(50,137,o),
(54,87,o),
(65,34,c),
(106,1,o),
(171,-24,o),
(266,-24,cs)
);
},
{
closed = 1;
nodes = (
(187,63,o),
(162,65,o),
(141,69,c),
(141,191,o),
(220,326,o),
(332,385,c),
(359,332,o),
(372,273,o),
(372,211,cs),
(372,169,o),
(367,126,o),
(356,84,c),
(317,71,o),
(262,63,o),
(212,63,cs)
);
},
{
closed = 1;
nodes = (
(529,213,o),
(514,213,o),
(501,214,c),
(537,277,o),
(582,330,o),
(657,380,c),
(675,350,o),
(690,313,o),
(690,265,cs),
(690,253,o),
(689,240,o),
(687,227,c),
(648,219,o),
(594,213,o),
(543,213,cs)
);
}
);
width = 856;
}
);
unicode = 339;
},
{
glyphname = p;
lastChange = "2023-03-01 09:16:35 +0000";
layers = (
{
anchors = (
{
name = bottom;
pos = (339,0);
},
{
name = top;
pos = (339,500);
}
);
background = {
shapes = (
{
closed = 1;
nodes = (
(204,-208,l),
(231,10,l),
(274,-10,o),
(327,-24,o),
(386,-24,cs),
(544,-24,o),
(594,54,o),
(594,207,cs),
(594,332,o),
(561,459,o),
(513,517,c),
(501,521,o),
(488,523,o),
(476,523,cs),
(401,523,o),
(331,450,o),
(279,338,c),
(272,338,l),
(294,514,l),
(80,481,l),
(111,-217,l)
);
},
{
closed = 1;
nodes = (
(357,385,o),
(405,404,c),
(415,375,o),
(425,283,o),
(425,216,cs),
(425,135,o),
(417,88,o),
(410,52,c),
(393,43,o),
(371,38,o),
(347,38,cs),
(310,38,o),
(269,50,o),
(239,74,c),
(275,359,o)
);
}
);
};
layerId = UUID0;
shapes = (
{
closed = 1;
nodes = (
(204,-208,l),
(231,10,l),
(274,-10,o),
(327,-24,o),
(386,-24,cs),
(544,-24,o),
(594,54,o),
(594,207,cs),
(594,332,o),
(561,459,o),
(513,517,c),
(501,521,o),
(488,523,o),
(476,523,cs),
(401,523,o),
(331,450,o),
(279,338,c),
(272,338,l),
(294,514,l),
(80,481,l),
(111,-217,l)
);
},
{
closed = 1;
nodes = (
(310,38,o),
(269,50,o),
(239,74,c),
(275,359,o),
(357,385,o),
(405,404,c),
(415,375,o),
(425,283,o),
(425,216,cs),
(425,135,o),
(417,88,o),
(410,52,c),
(393,43,o),
(371,38,o),
(347,38,cs)
);
}
);
width = 677;
}
);
unicode = 112;
},
{
glyphname = thorn;
lastChange = "2023-03-01 09:16:35 +0000";
layers = (
{
anchors = (
{
name = bottom;
pos = (339,0);
},
{
name = top;
pos = (339,500);
}
);
background = {
shapes = (
{
closed = 1;
nodes = (
(204,-208,l),
(226,12,l),
(269,-8,o),
(325,-24,o),
(386,-24,cs),
(544,-24,o),
(594,54,o),
(594,207,cs),
(594,332,o),
(561,459,o),
(513,517,c),
(501,521,o),
(488,523,o),
(476,523,cs),
(393,523,o),
(315,434,o),
(262,301,c),
(254,301,l),
(296,716,l),
(82,683,l),
(82,-217,l)
);
},
{
closed = 1;
nodes = (
(357,385,o),
(405,404,c),
(415,375,o),
(425,283,o),
(425,216,cs),
(425,135,o),
(417,88,o),
(410,52,c),
(393,43,o),
(371,38,o),
(347,38,cs),
(310,38,o),
(269,50,o),
(239,74,c),
(275,359,o)
);
}
);
};
layerId = UUID0;
shapes = (
{
closed = 1;
nodes = (
(204,-208,l),
(226,12,l),
(269,-8,o),
(325,-24,o),
(386,-24,cs),
(544,-24,o),
(594,54,o),
(594,207,cs),
(594,332,o),
(561,459,o),
(513,517,c),
(501,521,o),
(488,523,o),
(476,523,cs),
(393,523,o),
(315,434,o),
(262,301,c),
(254,301,l),
(296,716,l),
(82,683,l),
(82,-217,l)
);
},
{
closed = 1;
nodes = (
(310,38,o),
(269,50,o),
(239,74,c),
(275,359,o),
(357,385,o),
(405,404,c),
(415,375,o),
(425,283,o),
(425,216,cs),
(425,135,o),
(417,88,o),
(410,52,c),
(393,43,o),
(371,38,o),
(347,38,cs)
);
}
);
width = 677;
}
);
unicode = 254;
},
{
glyphname = q;
lastChange = "2023-03-01 09:16:35 +0000";
layers = (
{
anchors = (
{
name = bottom;
pos = (360,0);
},
{
name = top;
pos = (360,500);
}
);
background = {
shapes = (
{
closed = 1;
nodes = (
(560,-208,l),
(650,514,l),
(458,485,l),
(436,456,l),
(395,483,o),
(345,496,o),
(291,496,cs),
(133,496,o),
(83,418,o),
(83,265,cs),
(83,140,o),
(116,35,o),
(165,-15,c),
(173,-19,o),
(197,-23,o),
(205,-23,cs),
(302,-23,o),
(388,26,o),
(443,148,c),
(450,148,l),
(467,-217,l)
);
},
{
closed = 1;
nodes = (
(441,368,o),
(441,353,cs),
(441,136,o),
(324,68,o),
(273,58,c),
(263,87,o),
(253,179,o),
(253,246,cs),
(253,327,o),
(260,386,o),
(267,422,c),
(284,431,o),
(306,436,o),
(330,436,cs),
(367,436,o),
(409,424,o),
(439,400,c),
(440,384,o)
);
}
);
};
layerId = UUID0;
shapes = (
{
closed = 1;
nodes = (
(560,-208,l),
(650,514,l),
(458,485,l),
(436,456,l),
(395,483,o),
(345,496,o),
(291,496,cs),
(133,496,o),
(83,418,o),
(83,265,cs),
(83,140,o),
(116,35,o),
(165,-15,c),
(173,-19,o),
(197,-23,o),
(205,-23,cs),
(302,-23,o),
(388,26,o),
(443,148,c),
(450,148,l),
(467,-217,l)
);
},
{
closed = 1;
nodes = (
(263,87,o),
(253,179,o),
(253,246,cs),
(253,327,o),
(260,386,o),
(267,422,c),
(284,431,o),
(306,436,o),
(330,436,cs),
(367,436,o),
(409,424,o),
(439,400,c),
(440,384,o),
(441,368,o),
(441,353,cs),
(441,136,o),
(324,68,o),
(273,58,c)
);
}
);
width = 720;
}
);
unicode = 113;
},
{
glyphname = r;
lastChange = "2023-03-01 09:16:35 +0000";
layers = (
{
anchors = (
{
name = bottom;
pos = (168,0);
},
{
name = top;
pos = (245,500);
}
);
background = {
shapes = (
{
closed = 1;
nodes = (
(215,-6,l),
(229,107,ls),
(251,281,o),
(296,329,o),
(383,329,cs),
(401,329,o),
(420,327,o),
(442,324,c),
(470,537,l),
(388,530,o),
(317,464,o),
(266,354,c),
(259,354,l),
(279,514,l),
(65,481,l),
(116,-15,l)
);
}
);
};
layerId = UUID0;
shapes = (
{
closed = 1;
nodes = (
(215,-6,l),
(229,107,ls),
(251,281,o),
(296,329,o),
(383,329,cs),
(401,329,o),
(420,327,o),
(442,324,c),
(470,537,l),
(388,530,o),
(317,464,o),
(266,354,c),
(259,354,l),
(279,514,l),
(65,481,l),
(116,-15,l)
);
}
);
width = 470;
}
);
unicode = 114;
},
{
glyphname = racute;
lastChange = "2023-03-01 09:16:35 +0000";
layers = (
{
background = {
shapes = (
{
closed = 1;
nodes = (
(215,-6,l),
(229,107,ls),
(251,281,o),
(296,329,o),
(383,329,cs),
(401,329,o),
(420,327,o),
(442,324,c),
(470,537,l),
(388,530,o),
(317,464,o),
(266,354,c),
(259,354,l),
(279,514,l),
(65,481,l),
(116,-15,l)
);
},
{
closed = 1;
nodes = (
(150,563,l),
(354,628,l),
(294,753,l),
(116,631,l)
);
}
);
};
layerId = UUID0;
shapes = (
{
ref = r;
},
{
pos = (-4,0);
ref = acutecomb;
}
);
width = 470;
}
);
unicode = 341;
},
{
glyphname = rcaron;
lastChange = "2023-03-01 09:16:35 +0000";
layers = (
{
background = {
shapes = (
{
closed = 1;
nodes = (
(215,-6,l),
(229,107,ls),
(251,281,o),
(296,329,o),
(383,329,cs),
(401,329,o),
(420,327,o),
(442,324,c),
(470,537,l),
(388,530,o),
(317,464,o),
(266,354,c),
(259,354,l),
(279,514,l),
(65,481,l),
(116,-15,l)
);
},
{
closed = 1;
nodes = (
(337,738,l),
(261,676,l),
(143,741,l),
(109,693,l),
(225,556,l),
(412,648,l)
);
}
);
};
layerId = UUID0;
shapes = (
{
ref = r;
},
{
pos = (13,0);
ref = caroncomb;
}
);
width = 470;
}
);
unicode = 345;
},
{
glyphname = rcommaaccent;
lastChange = "2023-03-01 09:16:35 +0000";
layers = (
{
background = {
shapes = (
{
closed = 1;
nodes = (
(215,-6,l),
(229,107,ls),
(251,281,o),
(296,329,o),
(383,329,cs),
(401,329,o),
(420,327,o),
(442,324,c),
(470,537,l),
(388,530,o),
(317,464,o),
(266,354,c),
(259,354,l),
(279,514,l),
(65,481,l),
(116,-15,l)
);
},
{
closed = 1;
nodes = (
(161,-223,o),
(151,-251,o),
(115,-280,c),
(169,-331,l),
(224,-282,o),
(244,-223,o),
(244,-149,cs),
(244,-124,o),
(242,-100,o),
(238,-78,c),
(223,-62,o),
(194,-51,o),
(161,-51,cs),
(102,-51,o),
(86,-78,o),
(86,-130,cs),
(86,-178,o),
(104,-209,o),
(133,-209,cs),
(146,-209,o),
(155,-205,o),
(162,-199,c),
(166,-201,l)
);
}
);
};
layerId = UUID0;
shapes = (
{
ref = r;
},
{
pos = (9,0);
ref = commaaccentcomb;
}
);
width = 470;
}
);
unicode = 343;
},
{
glyphname = s;
lastChange = "2023-03-01 09:16:35 +0000";
layers = (
{
anchors = (
{
name = bottom;
pos = (210,0);
},
{
name = top;
pos = (220,500);
}
);
background = {
shapes = (
{
closed = 1;
nodes = (
(194,132,o),
(194,46,cs),
(194,14,o),
(177,-15,o),
(115,-49,c),
(159,-108,l),
(268,-65,o),
(339,-2,o),
(339,94,cs),
(339,169,o),
(248,224,o),
(248,304,cs),
(248,363,o),
(295,412,o),
(359,453,c),
(195,563,l),
(116,501,o),
(60,428,o),
(60,329,cs),
(60,196,o)
);
}
);
};
layerId = UUID0;
shapes = (
{
closed = 1;
nodes = (
(268,-65,o),
(339,-2,o),
(339,94,cs),
(339,169,o),
(248,224,o),
(248,304,cs),
(248,363,o),
(295,412,o),
(359,453,c),
(195,563,l),
(116,501,o),
(60,428,o),
(60,329,cs),
(60,196,o),
(194,132,o),
(194,46,cs),
(194,14,o),
(177,-15,o),
(115,-49,c),
(159,-108,l)
);
}
);
width = 419;
}
);
unicode = 115;
},
{
glyphname = sacute;
lastChange = "2023-03-01 09:16:35 +0000";
layers = (
{
background = {
shapes = (
{
closed = 1;
nodes = (
(194,123,o),
(194,41,cs),
(194,11,o),
(177,-17,o),
(115,-49,c),
(159,-108,l),
(268,-67,o),
(339,-7,o),
(339,85,cs),
(339,156,o),
(248,209,o),
(248,285,cs),
(248,342,o),
(295,389,o),
(359,428,c),
(195,533,l),
(116,474,o),
(60,405,o),
(60,310,cs),
(60,184,o)
);
},
{
closed = 1;
nodes = (
(145,563,l),
(349,628,l),
(289,753,l),
(111,631,l)
);
}
);
};
layerId = UUID0;
shapes = (
{
pos = (-29,0);
ref = acutecomb;
},
{
ref = s.alt;
}
);
width = 419;
}
);
unicode = 347;
},
{
glyphname = scaron;
lastChange = "2023-03-01 09:16:35 +0000";
layers = (
{
background = {
shapes = (
{
closed = 1;
nodes = (
(194,123,o),
(194,41,cs),
(194,11,o),
(177,-17,o),
(115,-49,c),
(159,-108,l),
(268,-67,o),
(339,-7,o),
(339,85,cs),
(339,156,o),
(248,209,o),
(248,285,cs),
(248,342,o),
(295,389,o),
(359,428,c),
(195,533,l),
(116,474,o),
(60,405,o),
(60,310,cs),
(60,184,o)
);
},
{
closed = 1;
nodes = (
(299,738,l),
(223,676,l),
(105,741,l),
(71,693,l),
(187,556,l),
(374,648,l)
);
}
);
};
layerId = UUID0;
shapes = (
{
pos = (-12,0);
ref = caroncomb;
},
{
ref = s.alt;
}
);
width = 419;
}
);
unicode = 353;
},
{
glyphname = scedilla;
lastChange = "2023-03-01 09:16:35 +0000";
layers = (
{
background = {
shapes = (
{
closed = 1;
nodes = (
(117,-201,o),
(164,-208,o),
(194,-208,cs),
(244,-208,o),
(340,-187,o),
(340,-108,cs),
(340,-69,o),
(316,-37,o),
(283,-11,c),
(320,20,o),
(339,57,o),
(339,115,cs),
(339,186,o),
(248,239,o),
(248,315,cs),
(248,372,o),
(295,419,o),
(359,458,c),
(195,563,l),
(116,504,o),
(60,435,o),
(60,340,cs),
(60,214,o),
(194,153,o),
(194,71,cs),
(194,41,o),
(185,18,o),
(157,-3,c),
(233,-39,o),
(263,-72,o),
(279,-104,c),
(257,-113,o),
(243,-117,o),
(218,-117,cs),
(181,-117,o),
(153,-108,o),
(114,-91,c),
(80,-187,l)
);
}
);
};
layerId = UUID0;
shapes = (
{
pos = (-44,0);
ref = cedillacomb;
},
{
pos = (0,30);
ref = s.alt;
}
);
width = 419;
}
);
unicode = 351;
},
{
glyphname = scircumflex;
lastChange = "2023-03-01 09:16:35 +0000";
layers = (
{
background = {
shapes = (
{
closed = 1;
nodes = (
(194,123,o),
(194,41,cs),
(194,11,o),
(177,-17,o),
(115,-49,c),
(159,-108,l),
(268,-67,o),
(339,-7,o),
(339,85,cs),
(339,156,o),
(248,209,o),
(248,285,cs),
(248,342,o),
(295,389,o),
(359,428,c),
(195,533,l),
(116,474,o),
(60,405,o),
(60,310,cs),
(60,184,o)
);
},
{
closed = 1;
nodes = (
(112,566,l),
(230,631,l),
(306,569,l),
(381,659,l),
(194,751,l),
(78,614,l)
);
}
);
};
layerId = UUID0;
shapes = (
{
pos = (-2,0);
ref = circumflexcomb;
},
{
ref = s.alt;
}
);
width = 419;
}
);
unicode = 349;
},
{
glyphname = scommaaccent;
lastChange = "2023-03-01 09:16:35 +0000";
layers = (
{
background = {
shapes = (
{
closed = 1;
nodes = (
(194,193,o),
(194,111,cs),
(194,81,o),
(177,53,o),
(115,21,c),
(159,-38,l),
(268,3,o),
(339,63,o),
(339,155,cs),
(339,226,o),
(248,279,o),
(248,355,cs),
(248,412,o),
(295,459,o),
(359,498,c),
(195,603,l),
(116,544,o),
(60,475,o),
(60,380,cs),
(60,254,o)
);
},
{
closed = 1;
nodes = (
(190,-223,o),
(180,-251,o),
(144,-280,c),
(198,-331,l),
(253,-282,o),
(273,-223,o),
(273,-149,cs),
(273,-124,o),
(271,-100,o),
(267,-78,c),
(252,-62,o),
(223,-51,o),
(190,-51,cs),
(131,-51,o),
(115,-78,o),
(115,-130,cs),
(115,-178,o),
(133,-209,o),
(162,-209,cs),
(175,-209,o),
(184,-205,o),
(191,-199,c),
(195,-201,l)
);
}
);
};
layerId = UUID0;
shapes = (
{
pos = (36,0);
ref = commaaccentcomb;
},
{
pos = (0,70);
ref = s.alt;
}
);
width = 419;
}
);
unicode = 537;
},
{
glyphname = germandbls;
lastChange = "2023-03-01 09:16:35 +0000";
layers = (
{
anchors = (
{
name = bottom;
pos = (371,0);
},
{
name = top;
pos = (371,683);
}
);
background = {
shapes = (
{
closed = 1;
nodes = (
(613,442,o),
(646,558,o),
(646,625,cs),
(646,642,o),
(643,659,o),
(637,677,c),
(581,712,o),
(485,725,o),
(410,725,cs),
(256,725,o),
(104,656,o),
(104,463,c),
(20,459,l),
(20,356,l),
(112,369,l),
(151,-15,l),
(250,-6,l),
(255,38,l),
(329,-7,o),
(397,-24,o),
(460,-24,cs),
(631,-24,o),
(701,40,o),
(701,164,cs),
(701,266,o),
(669,317,o),
(621,364,c),
(608,366,o),
(593,370,o),
(571,370,cs),
(558,370,o),
(543,369,o),
(524,365,c),
(522,371,l)
);
},
{
closed = 1;
nodes = (
(431,287,o),
(477,307,o),
(509,315,c),
(524,283,o),
(532,231,o),
(532,179,cs),
(532,131,o),
(526,84,o),
(512,52,c),
(435,55,o),
(348,73,o),
(265,125,c),
(299,492,ls),
(307,574,o),
(330,647,o),
(409,660,c),
(461,642,o),
(485,591,o),
(485,530,cs),
(485,449,o),
(455,348,o),
(368,287,c),
(389,261,l)
);
}
);
};
layerId = UUID0;
shapes = (
{
closed = 1;
nodes = (
(631,-24,o),
(701,40,o),
(701,164,cs),
(701,266,o),
(669,317,o),
(621,364,c),
(608,366,o),
(593,370,o),
(571,370,cs),
(558,370,o),
(543,369,o),
(524,365,c),
(522,371,l),
(613,442,o),
(646,558,o),
(646,625,cs),
(646,642,o),
(643,659,o),
(637,677,c),
(581,712,o),
(485,725,o),
(410,725,cs),
(256,725,o),
(104,656,o),
(104,463,c),
(20,459,l),
(20,356,l),
(112,369,l),
(151,-15,l),
(250,-6,l),
(255,38,l),
(329,-7,o),
(397,-24,o),
(460,-24,cs)
);
},
{
closed = 1;
nodes = (
(435,55,o),
(348,73,o),
(265,125,c),
(299,492,ls),
(307,574,o),
(330,647,o),
(409,660,c),
(461,642,o),
(485,591,o),
(485,530,cs),
(485,449,o),
(455,348,o),
(368,287,c),
(389,261,l),
(431,287,o),
(477,307,o),
(509,315,c),
(524,283,o),
(532,231,o),
(532,179,cs),
(532,131,o),
(526,84,o),
(512,52,c)
);
}
);
width = 741;
}
);
unicode = 223;
},
{
glyphname = t;
kernLeft = t;
kernRight = t;
lastChange = "2023-03-01 09:17:10 +0000";
layers = (
{
anchors = (
{
name = bottom;
pos = (196,0);
},
{
name = center;
pos = (216,250);
},
{
name = top;
pos = (216,500);
},
{
name = topright;
pos = (411,783);
}
);
background = {
shapes = (
{
closed = 1;
nodes = (
(250,-6,l),
(302,417,l),
(408,432,l),
(411,499,l),
(312,494,l),
(332,656,l),
(83,623,l),
(98,483,l),
(10,479,l),
(16,376,l),
(108,389,l),
(151,-15,l)
);
}
);
};
layerId = UUID0;
shapes = (
{
closed = 1;
nodes = (
(250,-6,l),
(302,417,l),
(408,432,l),
(411,499,l),
(312,494,l),
(332,656,l),
(83,623,l),
(98,483,l),
(10,479,l),
(16,376,l),
(108,389,l),
(151,-15,l)
);
}
);
width = 431;
}
);
unicode = 116;
},
{
glyphname = tbar;
kernLeft = t;
kernRight = t;
lastChange = "2023-03-01 09:17:10 +0000";
layers = (
{
background = {
shapes = (
{
closed = 1;
nodes = (
(250,-6,l),
(302,417,l),
(408,432,l),
(411,499,l),
(312,494,l),
(332,656,l),
(83,623,l),
(98,483,l),
(10,479,l),
(16,376,l),
(108,389,l),
(151,-15,l)
);
},
{
closed = 1;
nodes = (
(406,281,l),
(34,281,l),
(24,201,l),
(396,228,l)
);
}
);
};
layerId = UUID0;
shapes = (
{
closed = 1;
nodes = (
(396,228,l),
(406,281,l),
(34,281,l),
(24,201,l)
);
},
{
alignment = -1;
ref = t;
}
);
width = 431;
}
);
unicode = 359;
},
{
glyphname = tcaron;
kernLeft = t;
kernRight = t;
lastChange = "2023-03-01 09:17:10 +0000";
layers = (
{
background = {
shapes = (
{
closed = 1;
nodes = (
(250,-6,l),
(302,417,l),
(408,432,l),
(411,499,l),
(312,494,l),
(332,656,l),
(83,623,l),
(98,483,l),
(10,479,l),
(16,376,l),
(108,389,l),
(151,-15,l)
);
},
{
closed = 1;
nodes = (
(447,647,o),
(437,619,o),
(401,590,c),
(455,539,l),
(510,588,o),
(530,647,o),
(530,721,cs),
(530,746,o),
(528,770,o),
(524,792,c),
(509,808,o),
(480,819,o),
(447,819,cs),
(388,819,o),
(372,792,o),
(372,740,cs),
(372,692,o),
(390,661,o),
(419,661,cs),
(432,661,o),
(441,665,o),
(448,671,c),
(452,669,l)
);
}
);
};
layerId = UUID0;
shapes = (
{
ref = t;
},
{
pos = (287,77);
ref = caroncomb.alt;
}
);
width = 431;
}
);
unicode = 357;
},
{
glyphname = tcedilla;
kernLeft = t;
kernRight = t;
lastChange = "2023-03-01 09:17:10 +0000";
layers = (
{
background = {
shapes = (
{
closed = 1;
nodes = (
(104,-201,o),
(151,-208,o),
(181,-208,cs),
(231,-208,o),
(327,-187,o),
(327,-108,cs),
(327,-38,o),
(247,9,o),
(185,44,c),
(151,-15,l),
(213,-37,o),
(250,-71,o),
(266,-104,c),
(244,-113,o),
(230,-117,o),
(205,-117,cs),
(168,-117,o),
(140,-108,o),
(101,-91,c),
(67,-187,l)
);
},
{
closed = 1;
nodes = (
(250,-6,l),
(302,417,l),
(408,432,l),
(411,499,l),
(312,494,l),
(332,656,l),
(83,623,l),
(98,483,l),
(10,479,l),
(16,376,l),
(108,389,l),
(151,-15,l)
);
}
);
};
layerId = UUID0;
shapes = (
{
ref = t;
},
{
pos = (-58,0);
ref = cedillacomb;
}
);
width = 431;
}
);
unicode = 355;
},
{
glyphname = tcommaaccent;
kernLeft = t;
kernRight = t;
lastChange = "2023-03-01 09:17:10 +0000";
layers = (
{
background = {
shapes = (
{
closed = 1;
nodes = (
(250,-6,l),
(302,417,l),
(408,432,l),
(411,499,l),
(312,494,l),
(332,656,l),
(83,623,l),
(98,483,l),
(10,479,l),
(16,376,l),
(108,389,l),
(151,-15,l)
);
},
{
closed = 1;
nodes = (
(190,-223,o),
(180,-251,o),
(144,-280,c),
(198,-331,l),
(253,-282,o),
(273,-223,o),
(273,-149,cs),
(273,-124,o),
(271,-100,o),
(267,-78,c),
(252,-62,o),
(223,-51,o),
(190,-51,cs),
(131,-51,o),
(115,-78,o),
(115,-130,cs),
(115,-178,o),
(133,-209,o),
(162,-209,cs),
(175,-209,o),
(184,-205,o),
(191,-199,c),
(195,-201,l)
);
}
);
};
layerId = UUID0;
shapes = (
{
ref = t;
},
{
pos = (37,0);
ref = commaaccentcomb;
}
);
width = 431;
}
);
unicode = 539;
},
{
glyphname = u;
lastChange = "2023-03-01 09:16:35 +0000";
layers = (
{
anchors = (
{
name = bottom;
pos = (345,0);
},
{
name = ogonek;
pos = (646,44);
},
{
name = top;
pos = (345,500);
},
{
name = topright;
pos = (670,500);
}
);
background = {
shapes = (
{
closed = 1;
nodes = (
(247,189,o),
(247,249,cs),
(247,324,o),
(254,400,o),
(265,507,c),
(65,492,l),
(65,359,o),
(76,79,o),
(154,-15,c),
(162,-19,o),
(186,-23,o),
(194,-23,cs),
(298,-23,o),
(377,34,o),
(430,175,c),
(437,175,l),
(457,-15,l),
(556,-6,l),
(620,513,l),
(406,480,l),
(417,370,o),
(418,355,o),
(418,339,cs),
(418,225,o),
(378,84,o),
(262,58,c),
(251,131,o)
);
}
);
};
layerId = UUID0;
shapes = (
{
closed = 1;
nodes = (
(298,-23,o),
(377,34,o),
(430,175,c),
(437,175,l),
(457,-15,l),
(556,-6,l),
(620,513,l),
(406,480,l),
(417,370,o),
(418,355,o),
(418,339,cs),
(418,225,o),
(378,84,o),
(262,58,c),
(251,131,o),
(247,189,o),
(247,249,cs),
(247,324,o),
(254,400,o),
(265,507,c),
(65,492,l),
(65,359,o),
(76,79,o),
(154,-15,c),
(162,-19,o),
(186,-23,o),
(194,-23,cs)
);
}
);
width = 690;
}
);
unicode = 117;
},
{
glyphname = uacute;
lastChange = "2023-03-01 09:16:35 +0000";
layers = (
{
background = {
shapes = (
{
closed = 1;
nodes = (
(247,189,o),
(247,249,cs),
(247,324,o),
(254,400,o),
(265,507,c),
(65,492,l),
(65,359,o),
(76,79,o),
(154,-15,c),
(162,-19,o),
(186,-23,o),
(194,-23,cs),
(298,-23,o),
(377,34,o),
(430,175,c),
(437,175,l),
(457,-15,l),
(556,-6,l),
(620,513,l),
(406,480,l),
(417,370,o),
(418,355,o),
(418,339,cs),
(418,225,o),
(378,84,o),
(262,58,c),
(251,131,o)
);
},
{
closed = 1;
nodes = (
(260,563,l),
(464,628,l),
(404,753,l),
(226,631,l)
);
}
);
};
layerId = UUID0;
shapes = (
{
ref = u;
},
{
pos = (96,0);
ref = acutecomb;
}
);
width = 690;
}
);
unicode = 250;
},
{
glyphname = ubreve;
lastChange = "2023-03-01 09:16:35 +0000";
layers = (
{
background = {
shapes = (
{
closed = 1;
nodes = (
(247,189,o),
(247,249,cs),
(247,324,o),
(254,400,o),
(265,507,c),
(65,492,l),
(65,359,o),
(76,79,o),
(154,-15,c),
(162,-19,o),
(186,-23,o),
(194,-23,cs),
(298,-23,o),
(377,34,o),
(430,175,c),
(437,175,l),
(457,-15,l),
(556,-6,l),
(620,513,l),
(406,480,l),
(417,370,o),
(418,355,o),
(418,339,cs),
(418,225,o),
(378,84,o),
(262,58,c),
(251,131,o)
);
},
{
closed = 1;
nodes = (
(394,699,o),
(375,657,o),
(331,657,cs),
(291,657,o),
(273,688,o),
(248,732,c),
(195,699,l),
(222,634,o),
(256,556,o),
(329,556,cs),
(387,556,o),
(440,592,o),
(494,683,c),
(410,738,l)
);
}
);
};
layerId = UUID0;
shapes = (
{
ref = u;
},
{
pos = (85,0);
ref = brevecomb;
}
);
width = 690;
}
);
unicode = 365;
},
{
glyphname = ucircumflex;
lastChange = "2023-03-01 09:16:35 +0000";
layers = (
{
background = {
shapes = (
{
closed = 1;
nodes = (
(247,189,o),
(247,249,cs),
(247,324,o),
(254,400,o),
(265,507,c),
(65,492,l),
(65,359,o),
(76,79,o),
(154,-15,c),
(162,-19,o),
(186,-23,o),
(194,-23,cs),
(298,-23,o),
(377,34,o),
(430,175,c),
(437,175,l),
(457,-15,l),
(556,-6,l),
(620,513,l),
(406,480,l),
(417,370,o),
(418,355,o),
(418,339,cs),
(418,225,o),
(378,84,o),
(262,58,c),
(251,131,o)
);
},
{
closed = 1;
nodes = (
(234,566,l),
(352,631,l),
(428,569,l),
(503,659,l),
(316,751,l),
(200,614,l)
);
}
);
};
layerId = UUID0;
shapes = (
{
ref = u;
},
{
pos = (113,0);
ref = circumflexcomb;
}
);
width = 690;
}
);
unicode = 251;
},
{
glyphname = udieresis;
lastChange = "2023-03-01 09:16:35 +0000";
layers = (
{
background = {
shapes = (
{
closed = 1;
nodes = (
(247,189,o),
(247,249,cs),
(247,324,o),
(254,400,o),
(265,507,c),
(65,492,l),
(65,359,o),
(76,79,o),
(154,-15,c),
(162,-19,o),
(186,-23,o),
(194,-23,cs),
(298,-23,o),
(377,34,o),
(430,175,c),
(437,175,l),
(457,-15,l),
(556,-6,l),
(620,513,l),
(406,480,l),
(417,370,o),
(418,355,o),
(418,339,cs),
(418,225,o),
(378,84,o),
(262,58,c),
(251,131,o)
);
},
{
closed = 1;
nodes = (
(199,573,o),
(240,573,cs),
(281,573,o),
(316,611,o),
(316,657,cs),
(316,703,o),
(281,741,o),
(240,741,cs),
(199,741,o),
(164,703,o),
(164,657,cs),
(164,611,o)
);
},
{
closed = 1;
nodes = (
(409,573,o),
(450,573,cs),
(491,573,o),
(526,611,o),
(526,657,cs),
(526,703,o),
(491,741,o),
(450,741,cs),
(409,741,o),
(374,703,o),
(374,657,cs),
(374,611,o)
);
}
);
};
layerId = UUID0;
shapes = (
{
ref = u;
},
{
pos = (126,0);
ref = dieresiscomb;
}
);
width = 690;
}
);
unicode = 252;
},
{
glyphname = ugrave;
lastChange = "2023-03-01 09:16:35 +0000";
layers = (
{
background = {
shapes = (
{
closed = 1;
nodes = (
(247,189,o),
(247,249,cs),
(247,324,o),
(254,400,o),
(265,507,c),
(65,492,l),
(65,359,o),
(76,79,o),
(154,-15,c),
(162,-19,o),
(186,-23,o),
(194,-23,cs),
(298,-23,o),
(377,34,o),
(430,175,c),
(437,175,l),
(457,-15,l),
(556,-6,l),
(620,513,l),
(406,480,l),
(417,370,o),
(418,355,o),
(418,339,cs),
(418,225,o),
(378,84,o),
(262,58,c),
(251,131,o)
);
},
{
closed = 1;
nodes = (
(226,628,l),
(430,563,l),
(464,631,l),
(286,753,l)
);
}
);
};
layerId = UUID0;
shapes = (
{
ref = u;
},
{
pos = (116,0);
ref = gravecomb;
}
);
width = 690;
}
);
unicode = 249;
},
{
glyphname = uhungarumlaut;
lastChange = "2023-03-01 09:16:35 +0000";
layers = (
{
background = {
shapes = (
{
closed = 1;
nodes = (
(247,189,o),
(247,249,cs),
(247,324,o),
(254,400,o),
(265,507,c),
(65,492,l),
(65,359,o),
(76,79,o),
(154,-15,c),
(162,-19,o),
(186,-23,o),
(194,-23,cs),
(298,-23,o),
(377,34,o),
(430,175,c),
(437,175,l),
(457,-15,l),
(556,-6,l),
(620,513,l),
(406,480,l),
(417,370,o),
(418,355,o),
(418,339,cs),
(418,225,o),
(378,84,o),
(262,58,c),
(251,131,o)
);
},
{
closed = 1;
nodes = (
(200,558,l),
(375,653,l),
(298,756,l),
(164,609,l)
);
},
{
closed = 1;
nodes = (
(420,558,l),
(595,653,l),
(518,756,l),
(384,609,l)
);
}
);
};
layerId = UUID0;
shapes = (
{
ref = u;
},
{
pos = (88,0);
ref = hungarumlautcomb;
}
);
width = 690;
}
);
unicode = 369;
},
{
glyphname = umacron;
lastChange = "2023-03-01 09:16:35 +0000";
layers = (
{
background = {
shapes = (
{
closed = 1;
nodes = (
(247,189,o),
(247,249,cs),
(247,324,o),
(254,400,o),
(265,507,c),
(65,492,l),
(65,359,o),
(76,79,o),
(154,-15,c),
(162,-19,o),
(186,-23,o),
(194,-23,cs),
(298,-23,o),
(377,34,o),
(430,175,c),
(437,175,l),
(457,-15,l),
(556,-6,l),
(620,513,l),
(406,480,l),
(417,370,o),
(418,355,o),
(418,339,cs),
(418,225,o),
(378,84,o),
(262,58,c),
(251,131,o)
);
},
{
closed = 1;
nodes = (
(479,703,l),
(218,703,l),
(211,584,l),
(472,611,l)
);
}
);
};
layerId = UUID0;
shapes = (
{
ref = u;
},
{
pos = (134,0);
ref = macroncomb;
}
);
width = 690;
}
);
unicode = 363;
},
{
glyphname = uogonek;
lastChange = "2023-03-01 09:16:35 +0000";
layers = (
{
background = {
shapes = (
{
closed = 1;
nodes = (
(247,189,o),
(247,249,cs),
(247,324,o),
(254,400,o),
(265,507,c),
(65,492,l),
(65,359,o),
(76,79,o),
(154,-15,c),
(162,-19,o),
(186,-23,o),
(194,-23,cs),
(298,-23,o),
(377,34,o),
(430,175,c),
(437,175,l),
(457,-15,l),
(556,-6,l),
(620,513,l),
(406,480,l),
(417,370,o),
(418,355,o),
(418,339,cs),
(418,225,o),
(378,84,o),
(262,58,c),
(251,131,o)
);
},
{
closed = 1;
nodes = (
(573,-108,o),
(545,-117,o),
(508,-117,cs),
(483,-117,o),
(469,-113,o),
(447,-104,c),
(463,-71,o),
(494,-38,o),
(556,-6,c),
(528,44,l),
(466,9,o),
(386,-38,o),
(386,-108,cs),
(386,-187,o),
(482,-208,o),
(532,-208,cs),
(562,-208,o),
(609,-201,o),
(646,-187,c),
(612,-91,l)
);
}
);
};
layerId = UUID0;
shapes = (
{
ref = u;
},
{
pos = (262,0);
ref = ogonekcomb;
}
);
width = 690;
}
);
unicode = 371;
},
